shantell_bounce--light.ufo
<glyph name="ampersand" format="2">
	<unicode hex="0026"/>
	<advance width="600"/>
	<outline>
		<contour>
			<point x="451" y="401.6809684078"/>
			<point x="415" y="463.6809684078"/>
			<point x="290" y="463.6809684078" type="curve" smooth="yes"/>
			<point x="176.6298342541" y="463.6809684078"/>
			<point x="110" y="412.4871699582"/>
			<point x="110" y="336.6809684078" type="curve" smooth="yes"/>
			<point x="110" y="257.0489684078"/>
			<point x="156.0195874564" y="204.6659971036"/>
			<point x="313" y="84.6809684078" type="curve" smooth="yes"/>
			<point x="567" y="-108.3190315922"/>
			<point x="626" y="-164.3190315922"/>
			<point x="626" y="-222.3190315922" type="curve" smooth="yes"/>
			<point x="626" y="-252.5342214656"/>
			<point x="606.2830188679" y="-299.3190315922"/>
			<point x="571" y="-299.3190315922" type="curve" smooth="yes"/>
			<point x="552.3793103448" y="-299.3190315922"/>
			<point x="544" y="-287.2476030208"/>
			<point x="544" y="-273.3190315922" type="curve" smooth="yes"/>
			<point x="544" y="-253.3190315922"/>
			<point x="556" y="-246.3190315922"/>
			<point x="556" y="-230.3190315922" type="curve" smooth="yes"/>
			<point x="556" y="-193.3190315922"/>
			<point x="510" y="-154.3190315922"/>
			<point x="271" y="30.6809684078" type="curve" smooth="yes"/>
			<point x="83" y="175.6809684078"/>
			<point x="41" y="241.6809684078"/>
			<point x="41" y="334.6809684078" type="curve" smooth="yes"/>
			<point x="41" y="433.6809684078"/>
			<point x="113" y="528.6809684078"/>
			<point x="290" y="528.6809684078" type="curve" smooth="yes"/>
			<point x="377.5532994924" y="528.6809684078"/>
			<point x="436" y="504.6809684078"/>
			<point x="486" y="473.6809684078" type="curve" smooth="yes"/>
			<point x="511" y="457.6809684078"/>
			<point x="516" y="446.6809684078"/>
			<point x="516" y="433.6809684078" type="curve" smooth="yes"/>
			<point x="516" y="414.6809684078"/>
			<point x="506" y="401.6809684078"/>
			<point x="486" y="401.6809684078" type="curve" smooth="yes"/>
		</contour>
		<contour>
			<point x="174" y="117.6809684078" type="curve" smooth="yes"/>
			<point x="130" y="77.6809684078"/>
			<point x="115" y="40.6809684078"/>
			<point x="115" y="-16.3190315922" type="curve" smooth="yes"/>
			<point x="115" y="-78.3190315922"/>
			<point x="158" y="-140.3190315922"/>
			<point x="210" y="-140.3190315922" type="curve" smooth="yes"/>
			<point x="321" y="-140.3190315922"/>
			<point x="411.1043364444" y="-29.9193716217"/>
			<point x="548" y="214.6809684078" type="curve" smooth="yes"/>
			<point x="561.1407166189" y="238.3342583218"/>
			<point x="569" y="245.6809684078"/>
			<point x="582" y="245.6809684078" type="curve" smooth="yes"/>
			<point x="602" y="245.6809684078"/>
			<point x="614" y="225.6809684078"/>
			<point x="614" y="205.6809684078" type="curve" smooth="yes"/>
			<point x="614" y="195.6809684078"/>
			<point x="612" y="189.6809684078"/>
			<point x="602" y="171.6809684078" type="curve" smooth="yes"/>
			<point x="445" y="-108.3190315922"/>
			<point x="330" y="-204.3190315922"/>
			<point x="207" y="-204.3190315922" type="curve" smooth="yes"/>
			<point x="124" y="-204.3190315922"/>
			<point x="47" y="-121.3190315922"/>
			<point x="47" y="-18.3190315922" type="curve" smooth="yes"/>
			<point x="47" y="54.6809684078"/>
			<point x="80" y="116.6809684078"/>
			<point x="131" y="158.6809684078" type="curve" smooth="yes"/>
			<point x="146" y="170.6809684078"/>
			<point x="168" y="168.6809684078"/>
			<point x="179" y="154.6809684078" type="curve" smooth="yes"/>
			<point x="188" y="143.6809684078"/>
			<point x="183" y="125.6809684078"/>
		</contour>
	</outline>
</glyph>
<glyph name="quotesingle" format="2">
	<unicode hex="0027"/>
	<advance width="259"/>
	<outline>
		<contour>
			<point x="118" y="357.1960985721" type="curve" smooth="yes"/>
			<point x="133.0769230769" y="357.1960985721"/>
			<point x="141" y="367.1960985721"/>
			<point x="146" y="383.1960985721" type="curve" smooth="yes"/>
			<point x="168" y="448.1960985721"/>
			<point x="184" y="542.1960985721"/>
			<point x="167" y="622.1960985721" type="curve" smooth="yes"/>
			<point x="164" y="638.1960985721"/>
			<point x="149" y="649.1960985721"/>
			<point x="133" y="649.1960985721" type="curve" smooth="yes"/>
			<point x="110" y="649.1960985721"/>
			<point x="95.2941176471" y="630.3725691603"/>
			<point x="100" y="609.1960985721" type="curve" smooth="yes"/>
			<point x="115" y="539.1960985721"/>
			<point x="100" y="466.1960985721"/>
			<point x="85" y="412.1960985721" type="curve" smooth="yes"/>
			<point x="74.0496989038" y="375.3632676123"/>
			<point x="97.2571428571" y="357.1960985721"/>
		</contour>
	</outline>
</glyph>
<glyph name="parenleft" format="2">
	<unicode hex="0028"/>
	<advance width="421"/>
	<outline>
		<contour>
			<point x="374" y="797.8185096764" type="curve" smooth="yes"/>
			<point x="263" y="651.8185096764"/>
			<point x="162" y="455.8185096764"/>
			<point x="162" y="227.8185096764" type="curve" smooth="yes"/>
			<point x="162" y="30.8185096764"/>
			<point x="231" y="-88.1814903236"/>
			<point x="356" y="-137.1814903236" type="curve" smooth="yes"/>
			<point x="382" y="-147.1814903236"/>
			<point x="391" y="-161.1814903236"/>
			<point x="391" y="-175.1814903236" type="curve" smooth="yes"/>
			<point x="391" y="-193.0718170466"/>
			<point x="378" y="-209.1814903236"/>
			<point x="365" y="-209.1814903236" type="curve" smooth="yes"/>
			<point x="349" y="-209.1814903236"/>
			<point x="342" y="-207.1814903236"/>
			<point x="318" y="-197.1814903236" type="curve" smooth="yes"/>
			<point x="183" y="-143.1814903236"/>
			<point x="92" y="-9.1814903236"/>
			<point x="92" y="227.8185096764" type="curve" smooth="yes"/>
			<point x="92" y="471.8185096764"/>
			<point x="199" y="681.8185096764"/>
			<point x="320" y="841.8185096764" type="curve" smooth="yes"/>
			<point x="332" y="857.8185096764"/>
			<point x="343" y="862.8185096764"/>
			<point x="353" y="862.8185096764" type="curve" smooth="yes"/>
			<point x="376" y="862.8185096764"/>
			<point x="388" y="845.8185096764"/>
			<point x="388" y="827.8185096764" type="curve" smooth="yes"/>
			<point x="388" y="819.8185096764"/>
			<point x="385" y="812.8185096764"/>
		</contour>
	</outline>
</glyph>
<glyph name="asterisk" format="2">
	<unicode hex="002A"/>
	<advance width="480"/>
	<outline>
		<contour>
			<point x="247" y="602.8498128349"/>
			<point x="290" y="521.8498128349"/>
			<point x="290" y="407.8498128349" type="curve" smooth="yes"/>
			<point x="290" y="335.8498128349"/>
			<point x="275" y="232.8498128349"/>
			<point x="293" y="144.8498128349" type="curve" smooth="yes"/>
			<point x="299" y="114.8498128349"/>
			<point x="279" y="102.8498128349"/>
			<point x="261" y="102.8498128349" type="curve" smooth="yes"/>
			<point x="241" y="102.8498128349"/>
			<point x="229" y="113.8498128349"/>
			<point x="225" y="134.8498128349" type="curve" smooth="yes"/>
			<point x="208" y="221.8498128349"/>
			<point x="220" y="332.8498128349"/>
			<point x="220" y="405.8498128349" type="curve" smooth="yes"/>
			<point x="220" y="522.8498128349"/>
			<point x="180" y="538.8498128349"/>
			<point x="180" y="575.8498128349" type="curve" smooth="yes"/>
			<point x="180" y="591.8498128349"/>
			<point x="189" y="602.8498128349"/>
			<point x="207" y="602.8498128349" type="curve" smooth="yes"/>
		</contour>
		<contour>
			<point x="425" y="450.8498128349" type="curve" smooth="yes"/>
			<point x="386" y="388.8498128349"/>
			<point x="199" y="302.8498128349"/>
			<point x="124" y="212.8498128349" type="curve" smooth="yes"/>
			<point x="117" y="204.8498128349"/>
			<point x="107" y="199.8498128349"/>
			<point x="97" y="199.8498128349" type="curve" smooth="yes"/>
			<point x="78" y="199.8498128349"/>
			<point x="62" y="217.8498128349"/>
			<point x="62" y="234.8498128349" type="curve" smooth="yes"/>
			<point x="62" y="242.8498128349"/>
			<point x="65" y="250.8498128349"/>
			<point x="70" y="256.8498128349" type="curve" smooth="yes"/>
			<point x="143" y="344.8498128349"/>
			<point x="322" y="417.8498128349"/>
			<point x="373" y="499.8498128349" type="curve" smooth="yes"/>
			<point x="381" y="511.8498128349"/>
			<point x="388" y="519.8498128349"/>
			<point x="403" y="519.8498128349" type="curve" smooth="yes"/>
			<point x="423" y="519.8498128349"/>
			<point x="438" y="502.8498128349"/>
			<point x="438" y="485.8498128349" type="curve" smooth="yes"/>
			<point x="438" y="478.8498128349"/>
			<point x="436" y="469.8498128349"/>
		</contour>
		<contour>
			<point x="99" y="486.8498128349" type="curve" smooth="yes"/>
			<point x="177" y="442.8498128349"/>
			<point x="310" y="378.8498128349"/>
			<point x="426" y="289.8498128349" type="curve" smooth="yes"/>
			<point x="435" y="282.8498128349"/>
			<point x="440" y="271.8498128349"/>
			<point x="440" y="261.8498128349" type="curve" smooth="yes"/>
			<point x="440" y="240.8498128349"/>
			<point x="421" y="226.8498128349"/>
			<point x="406" y="226.8498128349" type="curve" smooth="yes"/>
			<point x="397" y="226.8498128349"/>
			<point x="390" y="229.8498128349"/>
			<point x="369" y="245.8498128349" type="curve" smooth="yes"/>
			<point x="270" y="320.8498128349"/>
			<point x="137" y="382.8498128349"/>
			<point x="58" y="429.8498128349" type="curve" smooth="yes"/>
			<point x="37" y="441.8498128349"/>
			<point x="32" y="456.8498128349"/>
			<point x="32" y="471.8498128349" type="curve" smooth="yes"/>
			<point x="32" y="486.8498128349"/>
			<point x="42" y="499.8498128349"/>
			<point x="59" y="499.8498128349" type="curve" smooth="yes"/>
			<point x="74" y="499.8498128349"/>
			<point x="80" y="497.8498128349"/>
		</contour>
	</outline>
</glyph>
<glyph name="slash" format="2">
	<unicode hex="002F"/>
	<advance width="330"/>
	<outline>
		<contour>
			<point x="412" y="817.3056250768" type="curve" smooth="yes"/>
			<point x="228.3282213789" y="511.8514715005"/>
			<point x="138" y="244.3056250768"/>
			<point x="117" y="-31.6943749232" type="curve" smooth="yes"/>
			<point x="115" y="-60.6943749232"/>
			<point x="103" y="-73.6943749232"/>
			<point x="85" y="-73.6943749232" type="curve" smooth="yes"/>
			<point x="62" y="-73.6943749232"/>
			<point x="45.9994436229" y="-56.7024423918"/>
			<point x="48" y="-27.6943749232" type="curve" smooth="yes"/>
			<point x="70" y="270.3056250768"/>
			<point x="169" y="557.3056250768"/>
			<point x="342" y="849.3056250768" type="curve" smooth="yes"/>
			<point x="361" y="881.3056250768"/>
			<point x="374" y="894.3056250768"/>
			<point x="392" y="894.3056250768" type="curve" smooth="yes"/>
			<point x="415" y="894.3056250768"/>
			<point x="440" y="864.3056250768"/>
		</contour>
	</outline>
</glyph>
<glyph name="nine" format="2">
	<unicode hex="0039"/>
	<advance width="700"/>
	<image fileName="zero.png" xScale="2.3662938837" yScale="2.3662938837" xOffset="-7800.8248343698" yOffset="-227.644631698" color="0,0,0,0.16492"/>
	<outline>
		<contour>
			<point x="496" y="420.8863860352" type="curve" smooth="yes"/>
			<point x="510" y="420.8863860352"/>
			<point x="517" y="440.8863860352"/>
			<point x="517" y="460.8863860352" type="curve" smooth="yes"/>
			<point x="517" y="510.8863860352"/>
			<point x="462" y="541.8863860352"/>
			<point x="369" y="541.8863860352" type="curve" smooth="yes"/>
			<point x="198" y="541.8863860352"/>
			<point x="92" y="413.8863860352"/>
			<point x="92" y="289.8863860352" type="curve" smooth="yes"/>
			<point x="92" y="182.8863860352"/>
			<point x="150" y="109.8863860352"/>
			<point x="277" y="109.8863860352" type="curve" smooth="yes"/>
			<point x="389" y="109.8863860352"/>
			<point x="501" y="176.8863860352"/>
			<point x="537" y="287.8863860352" type="curve"/>
			<point x="513" y="290.8863860352" type="line"/>
			<point x="513" y="110.8863860352"/>
			<point x="503" y="-30.1136139648"/>
			<point x="519" y="-130.1136139648" type="curve" smooth="yes"/>
			<point x="523.9893124088" y="-159.0516259358"/>
			<point x="540" y="-177.1136139648"/>
			<point x="567" y="-177.1136139648" type="curve" smooth="yes"/>
			<point x="582" y="-177.1136139648"/>
			<point x="590" y="-166.1136139648"/>
			<point x="590" y="-147.1136139648" type="curve" smooth="yes"/>
			<point x="590" y="-97.1136139648"/>
			<point x="578" y="-48.0538530086"/>
			<point x="578" y="111.8863860352" type="curve" smooth="yes"/>
			<point x="578" y="151.8863860352"/>
			<point x="575" y="250.8863860352"/>
			<point x="576" y="356.8863860352" type="curve"/>
			<point x="594.9426409456" y="462.5663828894"/>
			<point x="571" y="488.8863860352"/>
			<point x="532" y="488.8863860352" type="curve" smooth="yes"/>
			<point x="515" y="488.8863860352"/>
			<point x="504" y="470.8863860352"/>
			<point x="504" y="435.8863860352" type="curve" smooth="yes"/>
			<point x="504" y="251.8863860352"/>
			<point x="392" y="174.8863860352"/>
			<point x="277" y="174.8863860352" type="curve" smooth="yes"/>
			<point x="202" y="174.8863860352"/>
			<point x="159" y="213.8863860352"/>
			<point x="159" y="289.8863860352" type="curve" smooth="yes"/>
			<point x="159" y="396.8863860352"/>
			<point x="248" y="476.8863860352"/>
			<point x="369" y="476.8863860352" type="curve" smooth="yes"/>
			<point x="474" y="476.8863860352"/>
			<point x="460" y="420.8863860352"/>
		</contour>
	</outline>
</glyph>
<glyph name="question" format="2">
	<unicode hex="003F"/>
	<advance width="462"/>
	<outline>
		<contour>
			<point x="46" y="786.4982330163" type="curve" smooth="yes"/>
			<point x="89" y="808.4982330163"/>
			<point x="164" y="824.4982330163"/>
			<point x="219" y="824.4982330163" type="curve" smooth="yes"/>
			<point x="358" y="824.4982330163"/>
			<point x="417" y="760.4982330163"/>
			<point x="417" y="681.4982330163" type="curve" smooth="yes"/>
			<point x="417" y="631.4982330163"/>
			<point x="405" y="588.4982330163"/>
			<point x="314" y="524.4982330163" type="curve" smooth="yes"/>
			<point x="239" y="473.4982330163"/>
			<point x="231" y="454.4982330163"/>
			<point x="231" y="429.4982330163" type="curve" smooth="yes"/>
			<point x="231" y="385.4982330163"/>
			<point x="283" y="385.4982330163"/>
			<point x="283" y="346.4982330163" type="curve" smooth="yes"/>
			<point x="283" y="331.4982330163"/>
			<point x="272" y="320.4982330163"/>
			<point x="256" y="320.4982330163" type="curve" smooth="yes"/>
			<point x="210" y="320.4982330163"/>
			<point x="161" y="368.4982330163"/>
			<point x="161" y="425.4982330163" type="curve" smooth="yes"/>
			<point x="161" y="461.4982330163"/>
			<point x="165" y="500.4982330163"/>
			<point x="278" y="580.4982330163" type="curve" smooth="yes"/>
			<point x="338" y="624.4982330163"/>
			<point x="349" y="647.4982330163"/>
			<point x="349" y="681.4982330163" type="curve" smooth="yes"/>
			<point x="349" y="729.4982330163"/>
			<point x="312" y="756.4982330163"/>
			<point x="219" y="756.4982330163" type="curve" smooth="yes"/>
			<point x="132" y="756.4982330163"/>
			<point x="95" y="722.4982330163"/>
			<point x="62" y="722.4982330163" type="curve" smooth="yes"/>
			<point x="42" y="722.4982330163"/>
			<point x="28" y="737.4982330163"/>
			<point x="28" y="756.4982330163" type="curve" smooth="yes"/>
			<point x="28" y="768.4982330163"/>
			<point x="35" y="780.4982330163"/>
		</contour>
		<contour>
			<point x="250" y="94.4982330163" type="curve" smooth="yes"/>
			<point x="286" y="94.4982330163"/>
			<point x="300" y="120.4982330163"/>
			<point x="300" y="145.4982330163" type="curve" smooth="yes"/>
			<point x="300" y="182.4982330163"/>
			<point x="279" y="217.4982330163"/>
			<point x="225" y="217.4982330163" type="curve" smooth="yes"/>
			<point x="198" y="217.4982330163"/>
			<point x="175" y="195.4982330163"/>
			<point x="175" y="165.4982330163" type="curve" smooth="yes"/>
			<point x="175" y="120.4982330163"/>
			<point x="209" y="94.4982330163"/>
		</contour>
	</outline>
</glyph>
<glyph name="B" format="2">
	<unicode hex="0042"/>
	<advance width="579"/>
	<image fileName="B_.png" xScale="2.611894476" yScale="2.611894476" xOffset="-101.7903116164" yOffset="-300.367864743" color="0,0,0,0.25523"/>
	<outline>
		<contour>
			<point x="147" y="226.2406841775" type="curve" smooth="yes"/>
			<point x="151" y="316.2406841775"/>
			<point x="155" y="379.2406841775"/>
			<point x="177" y="494.2406841775" type="curve" smooth="yes"/>
			<point x="186" y="537.2406841775"/>
			<point x="166" y="569.2406841775"/>
			<point x="148" y="569.2406841775" type="curve" smooth="yes"/>
			<point x="127" y="569.2406841775"/>
			<point x="122" y="563.2406841775"/>
			<point x="118" y="542.2406841775" type="curve" smooth="yes"/>
			<point x="91" y="400.2406841775"/>
			<point x="81" y="335.2406841775"/>
			<point x="81" y="228.2406841775" type="curve" smooth="yes"/>
			<point x="81" y="48.2406841775"/>
			<point x="142" y="-112.7593158225"/>
			<point x="243" y="-112.7593158225" type="curve" smooth="yes"/>
			<point x="360" y="-112.7593158225"/>
			<point x="509" y="-8.7593158225"/>
			<point x="509" y="90.2406841775" type="curve" smooth="yes"/>
			<point x="509" y="154.2406841775"/>
			<point x="452" y="228.2406841775"/>
			<point x="230" y="250.2406841775" type="curve"/>
			<point x="231" y="228.2406841775" type="line"/>
			<point x="457" y="283.2406841775"/>
			<point x="535" y="362.2406841775"/>
			<point x="535" y="422.2406841775" type="curve" smooth="yes"/>
			<point x="535" y="553.2406841775"/>
			<point x="363" y="609.2406841775"/>
			<point x="151" y="609.2406841775" type="curve" smooth="yes"/>
			<point x="86" y="609.2406841775"/>
			<point x="49" y="593.2406841775"/>
			<point x="49" y="567.2406841775" type="curve" smooth="yes"/>
			<point x="49" y="553.2406841775"/>
			<point x="62" y="541.2406841775"/>
			<point x="78" y="541.2406841775" type="curve" smooth="yes"/>
			<point x="99" y="541.2406841775"/>
			<point x="150" y="541.2406841775"/>
			<point x="198" y="541.2406841775" type="curve" smooth="yes"/>
			<point x="321" y="541.2406841775"/>
			<point x="465" y="497.2406841775"/>
			<point x="465" y="423.2406841775" type="curve" smooth="yes"/>
			<point x="465" y="369.2406841775"/>
			<point x="321" y="303.2406841775"/>
			<point x="189" y="276.2406841775" type="curve" smooth="yes"/>
			<point x="125" y="263.2406841775"/>
			<point x="106" y="256.2406841775"/>
			<point x="106" y="233.2406841775" type="curve" smooth="yes"/>
			<point x="106" y="202.2406841775"/>
			<point x="132" y="195.2406841775"/>
			<point x="169" y="196.2406841775" type="curve" smooth="yes"/>
			<point x="308" y="198.2406841775"/>
			<point x="439" y="133.2406841775"/>
			<point x="439" y="93.2406841775" type="curve" smooth="yes"/>
			<point x="439" y="34.2406841775"/>
			<point x="335" y="-43.7593158225"/>
			<point x="251" y="-43.7593158225" type="curve" smooth="yes"/>
			<point x="198" y="-43.7593158225"/>
			<point x="140" y="87.2406841775"/>
		</contour>
	</outline>
</glyph>
<glyph name="E" format="2">
	<unicode hex="0045"/>
	<advance width="663"/>
	<outline>
		<contour>
			<point x="149" y="397.2623871391" type="curve" smooth="yes"/>
			<point x="105" y="327.2623871391"/>
			<point x="68" y="221.2623871391"/>
			<point x="68" y="121.2623871391" type="curve" smooth="yes"/>
			<point x="68" y="-52.7376128609"/>
			<point x="175" y="-178.7376128609"/>
			<point x="361" y="-178.7376128609" type="curve" smooth="yes"/>
			<point x="542" y="-178.7376128609"/>
			<point x="622" y="-125.7376128609"/>
			<point x="622" y="-90.7376128609" type="curve" smooth="yes"/>
			<point x="622" y="-74.7376128609"/>
			<point x="616" y="-62.7376128609"/>
			<point x="598" y="-62.7376128609" type="curve" smooth="yes"/>
			<point x="575" y="-62.7376128609"/>
			<point x="531" y="-113.7376128609"/>
			<point x="357" y="-113.7376128609" type="curve" smooth="yes"/>
			<point x="224" y="-113.7376128609"/>
			<point x="135" y="-18.7376128609"/>
			<point x="136" y="123.2623871391" type="curve" smooth="yes"/>
			<point x="137" y="229.2623871391"/>
			<point x="181" y="340.2623871391"/>
			<point x="244" y="430.2623871391" type="curve" smooth="yes"/>
			<point x="267" y="463.2623871391"/>
			<point x="257" y="474.2623871391"/>
			<point x="231" y="474.2623871391" type="curve" smooth="yes"/>
			<point x="199" y="474.2623871391"/>
			<point x="174" y="437.2623871391"/>
		</contour>
		<contour>
			<point x="155" y="109.2623871391" type="curve" smooth="yes"/>
			<point x="224" y="125.2623871391"/>
			<point x="357" y="142.2623871391"/>
			<point x="449" y="148.2623871391" type="curve" smooth="yes"/>
			<point x="487" y="150.2623871391"/>
			<point x="522" y="158.2623871391"/>
			<point x="522" y="188.2623871391" type="curve" smooth="yes"/>
			<point x="522" y="204.2623871391"/>
			<point x="512" y="214.2623871391"/>
			<point x="476" y="214.2623871391" type="curve" smooth="yes"/>
			<point x="414" y="213.2623871391"/>
			<point x="268" y="197.2623871391"/>
			<point x="165" y="180.2623871391" type="curve" smooth="yes"/>
			<point x="122" y="173.2623871391"/>
			<point x="98" y="158.2623871391"/>
			<point x="98" y="140.2623871391" type="curve" smooth="yes"/>
			<point x="98" y="121.2623871391"/>
			<point x="112" y="99.2623871391"/>
		</contour>
		<contour>
			<point x="128" y="444.2623871391" type="curve" smooth="yes"/>
			<point x="208" y="444.2623871391"/>
			<point x="286" y="471.2623871391"/>
			<point x="565" y="471.2623871391" type="curve" smooth="yes"/>
			<point x="598" y="471.2623871391"/>
			<point x="610" y="488.2623871391"/>
			<point x="610" y="511.2623871391" type="curve" smooth="yes"/>
			<point x="610" y="525.2623871391"/>
			<point x="600" y="536.2623871391"/>
			<point x="581" y="536.2623871391" type="curve" smooth="yes"/>
			<point x="453" y="536.2623871391"/>
			<point x="254" y="527.2623871391"/>
			<point x="114" y="504.2623871391" type="curve" smooth="yes"/>
			<point x="95" y="500.2623871391"/>
			<point x="87" y="484.2623871391"/>
			<point x="87" y="473.2623871391" type="curve" smooth="yes"/>
			<point x="87" y="455.2623871391"/>
			<point x="101" y="444.2623871391"/>
		</contour>
	</outline>
</glyph>
<glyph name="R" format="2">
	<unicode hex="0052"/>
	<advance width="700"/>
	<outline>
		<contour>
			<point x="97" y="728.5158569186" type="curve" smooth="yes"/>
			<point x="67" y="728.5158569186"/>
			<point x="63" y="710.5158569186"/>
			<point x="80" y="667.5158569186" type="curve" smooth="yes"/>
			<point x="111" y="590.5158569186"/>
			<point x="116" y="547.5158569186"/>
			<point x="121" y="492.5158569186" type="curve"/>
			<point x="86" y="369.5158569186"/>
			<point x="70" y="278.5158569186"/>
			<point x="70" y="203.5158569186" type="curve" smooth="yes"/>
			<point x="70" y="127.5158569186"/>
			<point x="80" y="84.5158569186"/>
			<point x="114" y="84.5158569186" type="curve" smooth="yes"/>
			<point x="133" y="84.5158569186"/>
			<point x="137" y="92.5158569186"/>
			<point x="137" y="165.5158569186" type="curve" smooth="yes"/>
			<point x="137" y="440.5158569186"/>
			<point x="252" y="742.5158569186"/>
			<point x="455" y="742.5158569186" type="curve" smooth="yes"/>
			<point x="528" y="742.5158569186"/>
			<point x="556" y="697.5158569186"/>
			<point x="556" y="644.5158569186" type="curve" smooth="yes"/>
			<point x="556" y="562.5158569186"/>
			<point x="479" y="469.5158569186"/>
			<point x="232" y="378.5158569186" type="curve" smooth="yes"/>
			<point x="189" y="362.5158569186"/>
			<point x="182" y="336.5158569186"/>
			<point x="205" y="305.5158569186" type="curve" smooth="yes"/>
			<point x="284" y="203.5158569186"/>
			<point x="526" y="85.5158569186"/>
			<point x="600" y="85.5158569186" type="curve" smooth="yes"/>
			<point x="632" y="85.5158569186"/>
			<point x="644" y="94.5158569186"/>
			<point x="644" y="116.5158569186" type="curve" smooth="yes"/>
			<point x="644" y="131.5158569186"/>
			<point x="634" y="142.5158569186"/>
			<point x="590" y="157.5158569186" type="curve" smooth="yes"/>
			<point x="448" y="204.5158569186"/>
			<point x="334" y="272.5158569186"/>
			<point x="274" y="329.5158569186" type="curve"/>
			<point x="564" y="434.5158569186"/>
			<point x="626" y="547.5158569186"/>
			<point x="626" y="645.5158569186" type="curve" smooth="yes"/>
			<point x="626" y="736.5158569186"/>
			<point x="577" y="807.5158569186"/>
			<point x="464" y="807.5158569186" type="curve" smooth="yes"/>
			<point x="338" y="807.5158569186"/>
			<point x="226" y="734.5158569186"/>
			<point x="149" y="550.5158569186" type="curve"/>
			<point x="173" y="559.5158569186" type="line"/>
			<point x="164" y="682.5158569186"/>
			<point x="131" y="728.5158569186"/>
		</contour>
	</outline>
</glyph>
<glyph name="S" format="2">
	<unicode hex="0053"/>
	<advance width="561"/>
	<outline>
		<contour>
			<point x="162" y="138.3596073057" type="curve" smooth="yes"/>
			<point x="332.4081632653" y="138.3596073057"/>
			<point x="496" y="183.3596073057"/>
			<point x="496" y="274.3596073057" type="curve" smooth="yes"/>
			<point x="496" y="433.7167501628"/>
			<point x="136" y="450.5432807751"/>
			<point x="136" y="565.3596073057" type="curve" smooth="yes"/>
			<point x="136" y="657.6061826482"/>
			<point x="250.1377567228" y="746.5817407611"/>
			<point x="459" y="787.3596073057" type="curve" smooth="yes"/>
			<point x="492.6994143525" y="793.4867735516"/>
			<point x="504" y="804.8859230952"/>
			<point x="504" y="824.3596073057" type="curve" smooth="yes"/>
			<point x="504" y="844.9846073057"/>
			<point x="490.4210526316" y="857.3596073057"/>
			<point x="461" y="857.3596073057" type="curve" smooth="yes"/>
			<point x="337.5664160401" y="857.3596073057"/>
			<point x="67" y="736.3596073057"/>
			<point x="67" y="562.3596073057" type="curve" smooth="yes"/>
			<point x="67" y="394.3596073057"/>
			<point x="406" y="392.3596073057"/>
			<point x="425" y="268.3596073057" type="curve"/>
			<point x="383" y="230.3596073057"/>
			<point x="290" y="206.3596073057"/>
			<point x="154" y="206.3596073057" type="curve" smooth="yes"/>
			<point x="108" y="206.3596073057"/>
			<point x="100" y="216.3596073057"/>
			<point x="72" y="216.3596073057" type="curve" smooth="yes"/>
			<point x="52" y="216.3596073057"/>
			<point x="43" y="207.3596073057"/>
			<point x="43" y="191.3596073057" type="curve" smooth="yes"/>
			<point x="43" y="160.3596073057"/>
			<point x="81.75" y="138.3596073057"/>
		</contour>
	</outline>
</glyph>
<glyph name="U" format="2">
	<unicode hex="0055"/>
	<advance width="650"/>
	<outline>
		<contour>
			<point x="351" y="-74.646617291" type="curve" smooth="yes"/>
			<point x="509" y="-74.646617291"/>
			<point x="581" y="52.353382709"/>
			<point x="581" y="236.353382709" type="curve" smooth="yes"/>
			<point x="581" y="309.353382709"/>
			<point x="576" y="379.353382709"/>
			<point x="576" y="449.353382709" type="curve" smooth="yes"/>
			<point x="576" y="556.353382709"/>
			<point x="588" y="585.353382709"/>
			<point x="588" y="622.353382709" type="curve" smooth="yes"/>
			<point x="588" y="644.353382709"/>
			<point x="578" y="650.353382709"/>
			<point x="562" y="650.353382709" type="curve" smooth="yes"/>
			<point x="527" y="650.353382709"/>
			<point x="506" y="614.353382709"/>
			<point x="506" y="553.353382709" type="curve" smooth="yes"/>
			<point x="506" y="436.353382709"/>
			<point x="514" y="367.353382709"/>
			<point x="514" y="243.353382709" type="curve" smooth="yes"/>
			<point x="514" y="70.353382709"/>
			<point x="464" y="-8.646617291"/>
			<point x="344" y="-8.646617291" type="curve" smooth="yes"/>
			<point x="237" y="-8.646617291"/>
			<point x="152" y="64.353382709"/>
			<point x="152" y="277.353382709" type="curve" smooth="yes"/>
			<point x="152" y="334.353382709"/>
			<point x="159" y="404.353382709"/>
			<point x="159" y="456.353382709" type="curve" smooth="yes"/>
			<point x="159" y="599.353382709"/>
			<point x="126" y="650.353382709"/>
			<point x="97" y="650.353382709" type="curve" smooth="yes"/>
			<point x="78" y="650.353382709"/>
			<point x="67" y="639.353382709"/>
			<point x="67" y="614.353382709" type="curve" smooth="yes"/>
			<point x="67" y="568.353382709"/>
			<point x="91" y="556.353382709"/>
			<point x="91" y="427.353382709" type="curve" smooth="yes"/>
			<point x="91" y="389.353382709"/>
			<point x="86" y="329.353382709"/>
			<point x="86" y="275.353382709" type="curve" smooth="yes"/>
			<point x="86" y="64.353382709"/>
			<point x="165" y="-74.646617291"/>
		</contour>
	</outline>
</glyph>
<glyph name="W" format="2">
	<unicode hex="0057"/>
	<advance width="948"/>
	<image fileName="W_.png" xScale="2.149419181" yScale="2.149419181" xOffset="-6246.5221094932" yOffset="-188.078106569" color="0,0,0,0.26332"/>
	<outline>
		<contour>
			<point x="131" y="533.031027787" type="curve" smooth="yes"/>
			<point x="128" y="583.031027787"/>
			<point x="122" y="608.031027787"/>
			<point x="91" y="608.031027787" type="curve" smooth="yes"/>
			<point x="67" y="608.031027787"/>
			<point x="58" y="584.031027787"/>
			<point x="60" y="559.031027787" type="curve" smooth="yes"/>
			<point x="74" y="364.031027787"/>
			<point x="144" y="64.031027787"/>
			<point x="206" y="-54.968972213" type="curve" smooth="yes"/>
			<point x="231" y="-101.968972213"/>
			<point x="251" y="-111.968972213"/>
			<point x="276" y="-111.968972213" type="curve" smooth="yes"/>
			<point x="301" y="-111.968972213"/>
			<point x="321" y="-92.968972213"/>
			<point x="325" y="-61.968972213" type="curve" smooth="yes"/>
			<point x="353" y="139.031027787"/>
			<point x="397" y="387.031027787"/>
			<point x="486" y="489.031027787" type="curve" smooth="yes"/>
			<point x="504" y="509.031027787"/>
			<point x="454" y="517.031027787"/>
			<point x="476" y="492.031027787" type="curve" smooth="yes"/>
			<point x="560" y="394.031027787"/>
			<point x="539" y="74.031027787"/>
			<point x="610" y="-43.968972213" type="curve" smooth="yes"/>
			<point x="650" y="-109.968972213"/>
			<point x="675" y="-115.968972213"/>
			<point x="702" y="-115.968972213" type="curve" smooth="yes"/>
			<point x="721" y="-115.968972213"/>
			<point x="737" y="-102.968972213"/>
			<point x="754" y="-61.968972213" type="curve" smooth="yes"/>
			<point x="813" y="84.031027787"/>
			<point x="827" y="372.031027787"/>
			<point x="882" y="517.031027787" type="curve" smooth="yes"/>
			<point x="904" y="577.031027787"/>
			<point x="899" y="608.031027787"/>
			<point x="874" y="608.031027787" type="curve" smooth="yes"/>
			<point x="851" y="608.031027787"/>
			<point x="841" y="601.031027787"/>
			<point x="823" y="557.031027787" type="curve" smooth="yes"/>
			<point x="761" y="400.031027787"/>
			<point x="752" y="94.031027787"/>
			<point x="684" y="-45.968972213" type="curve" smooth="yes"/>
			<point x="677" y="-59.968972213"/>
			<point x="705" y="-56.968972213"/>
			<point x="693" y="-41.968972213" type="curve" smooth="yes"/>
			<point x="612" y="60.031027787"/>
			<point x="627" y="257.031027787"/>
			<point x="594" y="385.031027787" type="curve" smooth="yes"/>
			<point x="561" y="506.031027787"/>
			<point x="532" y="548.031027787"/>
			<point x="487" y="548.031027787" type="curve" smooth="yes"/>
			<point x="453" y="548.031027787"/>
			<point x="423" y="517.031027787"/>
			<point x="397" y="477.031027787" type="curve" smooth="yes"/>
			<point x="335" y="382.031027787"/>
			<point x="288" y="184.031027787"/>
			<point x="259" y="-39.968972213" type="curve" smooth="yes"/>
			<point x="251" y="-101.968972213"/>
			<point x="279" y="-78.968972213"/>
			<point x="268" y="-48.968972213" type="curve" smooth="yes"/>
			<point x="199" y="138.031027787"/>
			<point x="140" y="401.031027787"/>
		</contour>
	</outline>
</glyph>
<glyph name="X" format="2">
	<unicode hex="0058"/>
	<advance width="587"/>
	<image fileName="W_.png" xScale="2.1183007847" xyScale="-0.3644236559" yxScale="0.3644236559" yScale="2.1183007847" xOffset="-7152.8449585541" yOffset="1029.1221139848" color="0,0,0,0.26332"/>
	<outline>
		<contour>
			<point x="131" y="796.4805915884" type="curve" smooth="yes"/>
			<point x="174" y="626.4805915884"/>
			<point x="444" y="328.4805915884"/>
			<point x="506" y="210.4805915884" type="curve" smooth="yes"/>
			<point x="544" y="136.4805915884"/>
			<point x="524" y="109.4805915884"/>
			<point x="503" y="109.4805915884" type="curve" smooth="yes"/>
			<point x="491" y="109.4805915884"/>
			<point x="479" y="116.4805915884"/>
			<point x="453" y="162.4805915884" type="curve" smooth="yes"/>
			<point x="365" y="328.4805915884"/>
			<point x="152" y="549.4805915884"/>
			<point x="91" y="706.4805915884" type="curve" smooth="yes"/>
			<point x="56" y="799.4805915884"/>
			<point x="67" y="824.4805915884"/>
			<point x="95" y="824.4805915884" type="curve" smooth="yes"/>
			<point x="114" y="824.4805915884"/>
			<point x="126" y="815.4805915884"/>
		</contour>
		<contour>
			<point x="506" y="733.4805915884" type="curve" smooth="yes"/>
			<point x="391" y="627.4805915884"/>
			<point x="237" y="411.4805915884"/>
			<point x="102" y="144.4805915884" type="curve" smooth="yes"/>
			<point x="84" y="108.4805915884"/>
			<point x="72" y="102.4805915884"/>
			<point x="57" y="102.4805915884" type="curve" smooth="yes"/>
			<point x="31" y="102.4805915884"/>
			<point x="19" y="128.4805915884"/>
			<point x="47" y="187.4805915884" type="curve" smooth="yes"/>
			<point x="117" y="331.4805915884"/>
			<point x="330" y="662.4805915884"/>
			<point x="486" y="807.4805915884" type="curve" smooth="yes"/>
			<point x="502" y="821.4805915884"/>
			<point x="510" y="824.4805915884"/>
			<point x="518" y="824.4805915884" type="curve" smooth="yes"/>
			<point x="540" y="824.4805915884"/>
			<point x="559" y="783.4805915884"/>
		</contour>
	</outline>
</glyph>
<glyph name="b" format="2">
	<unicode hex="0062"/>
	<advance width="575"/>
	<image fileName="b.png" xScale="2.580311745" yScale="2.580311745" xOffset="-92.140747017" yOffset="-580.570142633" color="0,0,0,0.24109"/>
	<outline>
		<contour>
			<point x="172" y="892.3701700646" type="curve" smooth="yes"/>
			<point x="172" y="789.3701700646"/>
			<point x="156" y="729.3701700646"/>
			<point x="156" y="537.3701700646" type="curve" smooth="yes"/>
			<point x="156" y="483.3701700646"/>
			<point x="161" y="418.3701700646"/>
			<point x="166" y="335.3701700646" type="curve" smooth="yes"/>
			<point x="169" y="279.3701700646"/>
			<point x="139" y="303.3701700646"/>
			<point x="150" y="366.3701700646" type="curve" smooth="yes"/>
			<point x="186" y="569.3701700646"/>
			<point x="287" y="642.3701700646"/>
			<point x="363" y="642.3701700646" type="curve" smooth="yes"/>
			<point x="459" y="642.3701700646"/>
			<point x="527" y="580.3701700646"/>
			<point x="527" y="434.3701700646" type="curve" smooth="yes"/>
			<point x="527" y="248.3701700646"/>
			<point x="364" y="139.3701700646"/>
			<point x="190" y="139.3701700646" type="curve" smooth="yes"/>
			<point x="141" y="139.3701700646"/>
			<point x="86" y="153.3701700646"/>
			<point x="86" y="190.3701700646" type="curve" smooth="yes"/>
			<point x="86" y="207.3701700646"/>
			<point x="96" y="216.3701700646"/>
			<point x="110" y="216.3701700646" type="curve" smooth="yes"/>
			<point x="127" y="216.3701700646"/>
			<point x="154" y="204.3701700646"/>
			<point x="178" y="204.3701700646" type="curve" smooth="yes"/>
			<point x="336" y="204.3701700646"/>
			<point x="460" y="287.3701700646"/>
			<point x="460" y="443.3701700646" type="curve" smooth="yes"/>
			<point x="460" y="511.3701700646"/>
			<point x="440" y="576.3701700646"/>
			<point x="363" y="576.3701700646" type="curve" smooth="yes"/>
			<point x="265" y="576.3701700646"/>
			<point x="210" y="431.3701700646"/>
			<point x="173" y="227.3701700646" type="curve" smooth="yes"/>
			<point x="168" y="204.3701700646"/>
			<point x="158" y="198.3701700646"/>
			<point x="147" y="198.3701700646" type="curve" smooth="yes"/>
			<point x="133" y="198.3701700646"/>
			<point x="124" y="222.3701700646"/>
			<point x="117" y="259.3701700646" type="curve" smooth="yes"/>
			<point x="97" y="369.3701700646"/>
			<point x="88" y="487.3701700646"/>
			<point x="88" y="553.3701700646" type="curve" smooth="yes"/>
			<point x="88" y="744.3701700646"/>
			<point x="104" y="817.3701700646"/>
			<point x="104" y="917.3701700646" type="curve" smooth="yes"/>
			<point x="104" y="938.3701700646"/>
			<point x="114" y="958.3701700646"/>
			<point x="132" y="958.3701700646" type="curve" smooth="yes"/>
			<point x="152" y="958.3701700646"/>
			<point x="172" y="934.3701700646"/>
		</contour>
	</outline>
</glyph>
<glyph name="c" format="2">
	<unicode hex="0063"/>
	<advance width="482"/>
	<image fileName="b.png" xScale="2.580311745" yScale="2.580311745" xOffset="-593.3109110762" yOffset="-580.570142633" color="0,0,0,0.24109"/>
	<outline>
		<contour>
			<point x="444" y="-75.8390693794" type="curve" smooth="yes"/>
			<point x="444" y="-53.8390693794"/>
			<point x="437" y="-45.8390693794"/>
			<point x="423" y="-45.8390693794" type="curve" smooth="yes"/>
			<point x="393" y="-45.8390693794"/>
			<point x="399" y="-113.8390693794"/>
			<point x="266" y="-113.8390693794" type="curve" smooth="yes"/>
			<point x="188" y="-113.8390693794"/>
			<point x="124" y="-54.3441198845"/>
			<point x="124" y="41.1609306206" type="curve" smooth="yes"/>
			<point x="124" y="152.4336578933"/>
			<point x="211" y="257.1609306206"/>
			<point x="331" y="257.1609306206" type="curve" smooth="yes"/>
			<point x="360" y="257.1609306206"/>
			<point x="361" y="244.1609306206"/>
			<point x="382" y="244.1609306206" type="curve" smooth="yes"/>
			<point x="399.1219512195" y="244.1609306206"/>
			<point x="408" y="257.3188253574"/>
			<point x="408" y="274.1609306206" type="curve" smooth="yes"/>
			<point x="408" y="316.6609306206"/>
			<point x="374.5" y="325.1609306206"/>
			<point x="341" y="325.1609306206" type="curve" smooth="yes"/>
			<point x="187" y="325.1609306206"/>
			<point x="56" y="204.1609306206"/>
			<point x="56" y="50.1609306206" type="curve" smooth="yes"/>
			<point x="56" y="-85.8390693794"/>
			<point x="146" y="-178.8390693794"/>
			<point x="266" y="-178.8390693794" type="curve" smooth="yes"/>
			<point x="369" y="-178.8390693794"/>
			<point x="444" y="-136.8390693794"/>
		</contour>
	</outline>
</glyph>
<glyph name="d" format="2">
	<unicode hex="0064"/>
	<advance width="613"/>
	<outline>
		<contour>
			<point x="253" y="163.8622482852" type="curve" smooth="yes"/>
			<point x="343" y="163.8622482852"/>
			<point x="423" y="257.8622482852"/>
			<point x="461" y="500.8622482852" type="curve"/>
			<point x="433" y="510.8622482852" type="line"/>
			<point x="419" y="329.8622482852"/>
			<point x="476.8899082569" y="164.8622482852"/>
			<point x="537" y="164.8622482852" type="curve" smooth="yes"/>
			<point x="556" y="164.8622482852"/>
			<point x="570" y="180.8622482852"/>
			<point x="570" y="193.8622482852" type="curve" smooth="yes"/>
			<point x="570" y="243.0622482852"/>
			<point x="487" y="263.5622482852"/>
			<point x="487" y="480.8622482852" type="curve" smooth="yes"/>
			<point x="487" y="634.3576611292"/>
			<point x="506" y="734.7200464503"/>
			<point x="506" y="909.8622482852" type="curve" smooth="yes"/>
			<point x="506" y="956.8622482852"/>
			<point x="494.95" y="982.8622482852"/>
			<point x="472" y="982.8622482852" type="curve" smooth="yes"/>
			<point x="452.6818181818" y="982.8622482852"/>
			<point x="438" y="970.5197825318"/>
			<point x="438" y="929.8622482852" type="curve" smooth="yes"/>
			<point x="438" y="480.0281807375"/>
			<point x="357" y="228.8622482852"/>
			<point x="247" y="228.8622482852" type="curve" smooth="yes"/>
			<point x="180" y="228.8622482852"/>
			<point x="116" y="325.8622482852"/>
			<point x="116" y="451.8622482852" type="curve" smooth="yes"/>
			<point x="116" y="544.8622482852"/>
			<point x="167" y="602.8622482852"/>
			<point x="263" y="602.8622482852" type="curve" smooth="yes"/>
			<point x="362" y="602.8622482852"/>
			<point x="360.7952755906" y="548.8622482852"/>
			<point x="398" y="548.8622482852" type="curve" smooth="yes"/>
			<point x="409.2" y="548.8622482852"/>
			<point x="418" y="556.8622482852"/>
			<point x="418" y="568.8622482852" type="curve" smooth="yes"/>
			<point x="418" y="623.8622482852"/>
			<point x="358" y="667.8622482852"/>
			<point x="262" y="667.8622482852" type="curve" smooth="yes"/>
			<point x="135" y="667.8622482852"/>
			<point x="50" y="582.2070758714"/>
			<point x="50" y="451.8622482852" type="curve" smooth="yes"/>
			<point x="50" y="296.8622482852"/>
			<point x="134" y="163.8622482852"/>
		</contour>
	</outline>
</glyph>
<glyph name="e" format="2">
	<unicode hex="0065"/>
	<advance width="537"/>
	<outline>
		<contour>
			<point x="192" y="266.8318492292" type="curve" smooth="yes"/>
			<point x="338" y="266.8318492292"/>
			<point x="446" y="331.8318492292"/>
			<point x="446" y="439.8318492292" type="curve" smooth="yes"/>
			<point x="446" y="534.8318492292"/>
			<point x="387.3121387283" y="585.8318492292"/>
			<point x="303" y="585.8318492292" type="curve" smooth="yes"/>
			<point x="144.8709677419" y="585.8318492292"/>
			<point x="45" y="433.8318492292"/>
			<point x="45" y="300.8318492292" type="curve" smooth="yes"/>
			<point x="45" y="172.8318492292"/>
			<point x="107" y="80.8318492292"/>
			<point x="249" y="80.8318492292" type="curve" smooth="yes"/>
			<point x="365.4788135593" y="80.8318492292"/>
			<point x="480" y="156.8318492292"/>
			<point x="480" y="204.8318492292" type="curve" smooth="yes"/>
			<point x="480" y="224.8318492292"/>
			<point x="476" y="233.8318492292"/>
			<point x="461" y="233.8318492292" type="curve" smooth="yes"/>
			<point x="427" y="233.8318492292"/>
			<point x="387" y="145.8318492292"/>
			<point x="246" y="145.8318492292" type="curve" smooth="yes"/>
			<point x="148.4558823529" y="145.8318492292"/>
			<point x="112" y="211.8318492292"/>
			<point x="112" y="291.8318492292" type="curve" smooth="yes"/>
			<point x="112" y="410.8318492292"/>
			<point x="191.1578947368" y="519.8318492292"/>
			<point x="300" y="519.8318492292" type="curve" smooth="yes"/>
			<point x="358.4430379747" y="519.8318492292"/>
			<point x="381" y="493.8318492292"/>
			<point x="381" y="443.8318492292" type="curve" smooth="yes"/>
			<point x="381" y="372.8318492292"/>
			<point x="314.3089005236" y="331.8318492292"/>
			<point x="188" y="331.8318492292" type="curve" smooth="yes"/>
			<point x="156" y="331.8318492292"/>
			<point x="137" y="339.8318492292"/>
			<point x="122" y="339.8318492292" type="curve" smooth="yes"/>
			<point x="103" y="339.8318492292"/>
			<point x="97" y="332.8318492292"/>
			<point x="97" y="317.8318492292" type="curve" smooth="yes"/>
			<point x="97" y="292.8318492292"/>
			<point x="121" y="266.8318492292"/>
		</contour>
	</outline>
</glyph>
<glyph name="f" format="2">
	<unicode hex="0066"/>
	<advance width="322"/>
	<outline>
		<contour>
			<point x="126" y="561.9366093347"/>
			<point x="152" y="576.9366093347"/>
			<point x="256" y="576.9366093347" type="curve" smooth="yes"/>
			<point x="282" y="576.9366093347"/>
			<point x="293" y="585.9366093347"/>
			<point x="293" y="600.9366093347" type="curve" smooth="yes"/>
			<point x="293" y="618.4501228482"/>
			<point x="279" y="636.9366093347"/>
			<point x="249" y="636.9366093347" type="curve" smooth="yes"/>
			<point x="197" y="636.9366093347"/>
			<point x="154" y="631.9366093347"/>
			<point x="111" y="623.9366093347" type="curve" smooth="yes"/>
			<point x="84" y="617.9366093347"/>
			<point x="74" y="599.9366093347"/>
			<point x="74" y="582.9366093347" type="curve" smooth="yes"/>
			<point x="74" y="569.2409571608"/>
			<point x="85" y="561.9366093347"/>
			<point x="98" y="561.9366093347" type="curve" smooth="yes"/>
		</contour>
		<contour>
			<point x="100" y="129.9366093347" type="curve" smooth="yes"/>
			<point x="118" y="129.9366093347"/>
			<point x="127" y="138.9366093347"/>
			<point x="127" y="171.9366093347" type="curve" smooth="yes"/>
			<point x="127" y="369.8842533138"/>
			<point x="109" y="479.5219304356"/>
			<point x="109" y="588.9366093347" type="curve" smooth="yes"/>
			<point x="109" y="745.9366093347"/>
			<point x="134" y="858.9366093347"/>
			<point x="303" y="892.9366093347" type="curve" smooth="yes"/>
			<point x="327" y="897.9366093347"/>
			<point x="337" y="911.0542563935"/>
			<point x="337" y="925.9366093347" type="curve" smooth="yes"/>
			<point x="337" y="943.9366093347"/>
			<point x="315" y="952.9366093347"/>
			<point x="299" y="952.9366093347" type="curve" smooth="yes"/>
			<point x="157" y="952.9366093347"/>
			<point x="39" y="838.9366093347"/>
			<point x="39" y="631.9366093347" type="curve" smooth="yes"/>
			<point x="39" y="457.374437706"/>
			<point x="57" y="389.3589799524"/>
			<point x="57" y="188.9366093347" type="curve" smooth="yes"/>
			<point x="57" y="151.9366093347"/>
			<point x="79" y="129.9366093347"/>
		</contour>
	</outline>
</glyph>
<glyph name="h" format="2">
	<unicode hex="0068"/>
	<advance width="613"/>
	<outline>
		<contour>
			<point x="520" y="-120.9091633427" type="curve" smooth="yes"/>
			<point x="536.3636363636" y="-120.9091633427"/>
			<point x="550" y="-107.1591633427"/>
			<point x="550" y="-90.9091633427" type="curve" smooth="yes"/>
			<point x="550" y="-79.0630094965"/>
			<point x="545.1546611495" y="-68.2184856417"/>
			<point x="540" y="-57.9091633427" type="curve" smooth="yes"/>
			<point x="520.335124402" y="-22.7193859568"/>
			<point x="509.1992489216" y="20.6985978006"/>
			<point x="496" y="157.0908366573" type="curve" smooth="yes"/>
			<point x="483.0970316562" y="299.0234884387"/>
			<point x="466" y="383.0908366573"/>
			<point x="389" y="383.0908366573" type="curve" smooth="yes"/>
			<point x="306" y="383.0908366573"/>
			<point x="234" y="287.0908366573"/>
			<point x="127" y="-2.9091633427" type="curve"/>
			<point x="145" y="-4.9091633427" type="line"/>
			<point x="141" y="184.0908366573"/>
			<point x="193" y="379.0908366573"/>
			<point x="213" y="533.0908366573" type="curve" smooth="yes"/>
			<point x="228" y="654.0908366573"/>
			<point x="217" y="698.0908366573"/>
			<point x="182" y="699.0908366573" type="curve" smooth="yes"/>
			<point x="162" y="699.0908366573"/>
			<point x="153" y="681.0908366573"/>
			<point x="150" y="662.0908366573" type="curve" smooth="yes"/>
			<point x="145" y="621.0908366573"/>
			<point x="149" y="570.0908366573"/>
			<point x="142" y="514.0908366573" type="curve" smooth="yes"/>
			<point x="126" y="383.0908366573"/>
			<point x="75" y="222.0908366573"/>
			<point x="75" y="-15.9091633427" type="curve" smooth="yes"/>
			<point x="75" y="-90.9091633427"/>
			<point x="96.5384615385" y="-120.9091633427"/>
			<point x="123" y="-120.9091633427" type="curve" smooth="yes"/>
			<point x="144" y="-120.9091633427"/>
			<point x="160" y="-112.9091633427"/>
			<point x="169" y="-82.9091633427" type="curve" smooth="yes"/>
			<point x="242" y="168.0908366573"/>
			<point x="343" y="318.0908366573"/>
			<point x="388" y="318.0908366573" type="curve"/>
			<point x="413" y="281.0908366573"/>
			<point x="424" y="229.0908366573"/>
			<point x="433" y="99.0908366573" type="curve" smooth="yes"/>
			<point x="440.9649161561" y="-14.4092185676"/>
			<point x="480.0823529412" y="-120.9091633427"/>
		</contour>
	</outline>
</glyph>
<glyph name="i" format="2">
	<unicode hex="0069"/>
	<advance width="276"/>
	<outline>
		<contour>
			<point x="143" y="-107.3854533196" type="curve" smooth="yes"/>
			<point x="159" y="-107.3854533196"/>
			<point x="167" y="-96.3854533196"/>
			<point x="167" y="-79.3854533196" type="curve" smooth="yes"/>
			<point x="167" y="4.6145466804"/>
			<point x="176" y="270.6145466804"/>
			<point x="175" y="348.6145466804" type="curve" smooth="yes"/>
			<point x="174" y="381.6145466804"/>
			<point x="154" y="399.6145466804"/>
			<point x="130" y="399.6145466804" type="curve" smooth="yes"/>
			<point x="109" y="399.6145466804"/>
			<point x="99" y="383.6145466804"/>
			<point x="99" y="359.6145466804" type="curve" smooth="yes"/>
			<point x="99" y="246.6145466804"/>
			<point x="102" y="179.6145466804"/>
			<point x="102" y="-43.3854533196" type="curve" smooth="yes"/>
			<point x="102" y="-76.3854533196"/>
			<point x="120" y="-107.3854533196"/>
		</contour>
		<contour>
			<point x="150" y="588.6145466804" type="curve" smooth="yes"/>
			<point x="189" y="588.6145466804"/>
			<point x="204" y="615.6145466804"/>
			<point x="204" y="636.6145466804" type="curve" smooth="yes"/>
			<point x="204" y="670.6145466804"/>
			<point x="172" y="712.6145466804"/>
			<point x="121" y="712.6145466804" type="curve" smooth="yes"/>
			<point x="94" y="712.6145466804"/>
			<point x="73" y="692.6145466804"/>
			<point x="73" y="667.6145466804" type="curve" smooth="yes"/>
			<point x="73" y="627.6145466804"/>
			<point x="109" y="588.6145466804"/>
		</contour>
	</outline>
</glyph>
<glyph name="k" format="2">
	<unicode hex="006B"/>
	<advance width="558"/>
	<image fileName="b.png" xScale="2.580311745" yScale="2.580311745" xOffset="-1523.246456254" yOffset="-580.570142633" color="0,0,0,0.24109"/>
	<outline>
		<contour>
			<point x="471" y="-73.066399459" type="curve" smooth="yes"/>
			<point x="491" y="-73.066399459"/>
			<point x="501" y="-63.066399459"/>
			<point x="501" y="-47.066399459" type="curve" smooth="yes"/>
			<point x="501" y="-30.066399459"/>
			<point x="491" y="-16.066399459"/>
			<point x="438" y="1.933600541" type="curve" smooth="yes"/>
			<point x="305.2082863863" y="44.5458668499"/>
			<point x="239" y="128.933600541"/>
			<point x="239" y="162.933600541" type="curve" smooth="yes"/>
			<point x="239" y="209.5007647201"/>
			<point x="346.2465843186" y="317.4498627335"/>
			<point x="444" y="357.933600541" type="curve" smooth="yes"/>
			<point x="471" y="368.933600541"/>
			<point x="485" y="380.933600541"/>
			<point x="485" y="401.933600541" type="curve" smooth="yes"/>
			<point x="485" y="419.933600541"/>
			<point x="472.7222222222" y="428.933600541"/>
			<point x="451" y="428.933600541" type="curve" smooth="yes"/>
			<point x="374" y="428.933600541"/>
			<point x="172" y="263.933600541"/>
			<point x="172" y="162.933600541" type="curve" smooth="yes"/>
			<point x="172" y="51.933600541"/>
			<point x="373" y="-73.066399459"/>
		</contour>
		<contour>
			<point x="182" y="742.933600541" type="curve" smooth="yes"/>
			<point x="163" y="743.933600541"/>
			<point x="152" y="732.933600541"/>
			<point x="149" y="714.933600541" type="curve" smooth="yes"/>
			<point x="142" y="669.933600541"/>
			<point x="148" y="662.933600541"/>
			<point x="127" y="524.933600541" type="curve" smooth="yes"/>
			<point x="98" y="337.933600541"/>
			<point x="75" y="142.790157918"/>
			<point x="75" y="50.933600541" type="curve" smooth="yes"/>
			<point x="75" y="-51.066399459"/>
			<point x="99.5" y="-76.066399459"/>
			<point x="124" y="-76.066399459" type="curve" smooth="yes"/>
			<point x="140.1111111111" y="-76.066399459"/>
			<point x="149" y="-65.066399459"/>
			<point x="149" y="-41.066399459" type="curve" smooth="yes"/>
			<point x="149" y="-8.066399459"/>
			<point x="144" y="20.533600541"/>
			<point x="144" y="62.933600541" type="curve" smooth="yes"/>
			<point x="144" y="202.9242328595"/>
			<point x="152" y="250.933600541"/>
			<point x="195" y="527.933600541" type="curve" smooth="yes"/>
			<point x="221" y="698.933600541"/>
			<point x="212" y="742.933600541"/>
		</contour>
	</outline>
</glyph>
<glyph name="l" format="2">
	<unicode hex="006C"/>
	<advance width="318"/>
	<image fileName="b.png" xScale="2.580311745" yScale="2.580311745" xOffset="-2454.3109110762" yOffset="-580.570142633" color="0,0,0,0.24109"/>
	<outline>
		<contour>
			<point x="157" y="948.7636516567" type="curve" smooth="yes"/>
			<point x="157" y="875.7636516567"/>
			<point x="129" y="791.7636516567"/>
			<point x="129" y="544.7636516567" type="curve" smooth="yes"/>
			<point x="129" y="323.7636516567"/>
			<point x="157" y="253.7636516567"/>
			<point x="193" y="253.7636516567" type="curve" smooth="yes"/>
			<point x="240.7922077922" y="253.7636516567"/>
			<point x="248" y="281.7636516567"/>
			<point x="273" y="281.7636516567" type="curve" smooth="yes"/>
			<point x="291" y="281.7636516567"/>
			<point x="297" y="269.7636516567"/>
			<point x="297" y="252.7636516567" type="curve" smooth="yes"/>
			<point x="297" y="217.7636516567"/>
			<point x="244" y="186.7636516567"/>
			<point x="195" y="186.7636516567" type="curve" smooth="yes"/>
			<point x="113" y="186.7636516567"/>
			<point x="61" y="230.7636516567"/>
			<point x="61" y="564.7636516567" type="curve" smooth="yes"/>
			<point x="61" y="738.2996516567"/>
			<point x="73" y="833.7636516567"/>
			<point x="89" y="938.7636516567" type="curve" smooth="yes"/>
			<point x="98" y="990.7636516567"/>
			<point x="108.2727272727" y="1007.7636516567"/>
			<point x="126" y="1007.7636516567" type="curve" smooth="yes"/>
			<point x="144.6" y="1007.7636516567"/>
			<point x="157" y="991.7636516567"/>
		</contour>
	</outline>
</glyph>
<glyph name="n" format="2">
	<unicode hex="006E"/>
	<advance width="612"/>
	<outline>
		<contour>
			<point x="514" y="-129.0659992138" type="curve" smooth="yes"/>
			<point x="539" y="-129.0659992138"/>
			<point x="549" y="-111.0659992138"/>
			<point x="549" y="-96.0659992138" type="curve" smooth="yes"/>
			<point x="549" y="-80.0659992138"/>
			<point x="545" y="-73.0659992138"/>
			<point x="535" y="-65.0659992138" type="curve" smooth="yes"/>
			<point x="490" y="-27.0659992138"/>
			<point x="494" y="63.5446878091"/>
			<point x="494" y="222.9340007862" type="curve" smooth="yes"/>
			<point x="494" y="312.9340007862"/>
			<point x="456" y="376.9340007862"/>
			<point x="399" y="376.9340007862" type="curve" smooth="yes"/>
			<point x="302" y="376.9340007862"/>
			<point x="198" y="228.9340007862"/>
			<point x="131" y="-46.0659992138" type="curve"/>
			<point x="143" y="-38.0659992138" type="line"/>
			<point x="133.0061024569" y="140.8247668075"/>
			<point x="171" y="219.9340007862"/>
			<point x="171" y="309.9340007862" type="curve" smooth="yes"/>
			<point x="171" y="358.9340007862"/>
			<point x="148.1428571429" y="375.9340007862"/>
			<point x="131" y="375.9340007862" type="curve" smooth="yes"/>
			<point x="113.6428571429" y="375.9340007862"/>
			<point x="104" y="363.1840007862"/>
			<point x="104" y="345.9340007862" type="curve" smooth="yes"/>
			<point x="104" y="220.9537376283"/>
			<point x="75" y="168.805795658"/>
			<point x="75" y="31.9340007862" type="curve" smooth="yes"/>
			<point x="75" y="-61.0659992138"/>
			<point x="98.8" y="-128.0659992138"/>
			<point x="145" y="-128.0659992138" type="curve" smooth="yes"/>
			<point x="170.2777777778" y="-128.0659992138"/>
			<point x="184.154669954" y="-107.387830954"/>
			<point x="197" y="-51.0659992138" type="curve" smooth="yes"/>
			<point x="244" y="143.9340007862"/>
			<point x="345" y="309.9340007862"/>
			<point x="393" y="309.9340007862" type="curve" smooth="yes"/>
			<point x="416" y="309.9340007862"/>
			<point x="427" y="298.9340007862"/>
			<point x="443" y="276.9340007862" type="curve"/>
			<point x="441" y="322.9340007862"/>
			<point x="418" y="342.9340007862"/>
			<point x="374" y="338.9340007862" type="curve"/>
			<point x="414" y="307.9340007862"/>
			<point x="426" y="295.9340007862"/>
			<point x="426" y="145.9340007862" type="curve" smooth="yes"/>
			<point x="426" y="-55.0659992138"/>
			<point x="450" y="-129.0659992138"/>
		</contour>
	</outline>
</glyph>
<glyph name="o" format="2">
	<unicode hex="006F"/>
	<advance width="600"/>
	<outline>
		<contour>
			<point x="315" y="-132.3712461172" type="curve" smooth="yes"/>
			<point x="440" y="-132.3712461172"/>
			<point x="535" y="-21.3712461172"/>
			<point x="535" y="125.6287538828" type="curve" smooth="yes"/>
			<point x="535" y="277.6287538828"/>
			<point x="453" y="373.6287538828"/>
			<point x="321" y="373.6287538828" type="curve" smooth="yes"/>
			<point x="233.7445652174" y="373.6287538828"/>
			<point x="152" y="296.6287538828"/>
			<point x="152" y="242.6287538828" type="curve" smooth="yes"/>
			<point x="152" y="222.6287538828"/>
			<point x="160" y="213.6287538828"/>
			<point x="178" y="213.6287538828" type="curve" smooth="yes"/>
			<point x="204" y="213.6287538828"/>
			<point x="202" y="237.6287538828"/>
			<point x="234" y="269.6287538828" type="curve" smooth="yes"/>
			<point x="259.2368002586" y="294.8655541414"/>
			<point x="284.0909090909" y="308.6287538828"/>
			<point x="329" y="308.6287538828" type="curve" smooth="yes"/>
			<point x="415" y="308.6287538828"/>
			<point x="467" y="241.6287538828"/>
			<point x="467" y="131.6287538828" type="curve" smooth="yes"/>
			<point x="467" y="11.6287538828"/>
			<point x="407" y="-66.3712461172"/>
			<point x="312" y="-66.3712461172" type="curve" smooth="yes"/>
			<point x="202" y="-66.3712461172"/>
			<point x="132" y="11.6287538828"/>
			<point x="132" y="132.6287538828" type="curve" smooth="yes"/>
			<point x="132" y="209.7766828769"/>
			<point x="179.965534545" y="259.649754673"/>
			<point x="229" y="291.6287538828" type="curve" smooth="yes"/>
			<point x="252" y="306.6287538828"/>
			<point x="260" y="317.6287538828"/>
			<point x="260" y="337.6287538828" type="curve" smooth="yes"/>
			<point x="260" y="354.0635364915"/>
			<point x="250" y="358.6287538828"/>
			<point x="235" y="358.6287538828" type="curve" smooth="yes"/>
			<point x="188" y="358.6287538828"/>
			<point x="65" y="268.6287538828"/>
			<point x="65" y="125.6287538828" type="curve" smooth="yes"/>
			<point x="65" y="-24.3712461172"/>
			<point x="169" y="-132.3712461172"/>
		</contour>
	</outline>
</glyph>
<glyph name="p" format="2">
	<unicode hex="0070"/>
	<advance width="550"/>
	<outline>
		<contour>
			<point x="131" y="247.5461793422" type="curve" smooth="yes"/>
			<point x="131" y="86.5461793422"/>
			<point x="187" y="-35.4538206578"/>
			<point x="187" y="-182.4538206578" type="curve" smooth="yes"/>
			<point x="187" y="-322.4538206578"/>
			<point x="157" y="-397.4538206578"/>
			<point x="113" y="-397.4538206578" type="curve" smooth="yes"/>
			<point x="93" y="-397.4538206578"/>
			<point x="84" y="-390.4538206578"/>
			<point x="84" y="-369.4538206578" type="curve" smooth="yes"/>
			<point x="84" y="-336.4538206578"/>
			<point x="119" y="-317.4538206578"/>
			<point x="119" y="-186.4538206578" type="curve" smooth="yes"/>
			<point x="119" y="-43.4538206578"/>
			<point x="61" y="112.5461793422"/>
			<point x="61" y="269.5461793422" type="curve" smooth="yes"/>
			<point x="61" y="304.5461793422"/>
			<point x="72" y="319.5461793422"/>
			<point x="94" y="319.5461793422" type="curve" smooth="yes"/>
			<point x="117.7179487179" y="319.5461793422"/>
			<point x="131" y="286.5461793422"/>
		</contour>
		<contour>
			<point x="76" y="336.5461793422"/>
			<point x="107" y="357.5461793422"/>
			<point x="189" y="357.5461793422" type="curve" smooth="yes"/>
			<point x="362" y="357.5461793422"/>
			<point x="492" y="239.5461793422"/>
			<point x="492" y="54.5461793422" type="curve" smooth="yes"/>
			<point x="492" y="-74.4538206578"/>
			<point x="408" y="-146.4538206578"/>
			<point x="294" y="-146.4538206578" type="curve" smooth="yes"/>
			<point x="204" y="-146.4538206578"/>
			<point x="136" y="-107.4538206578"/>
			<point x="136" y="-69.4538206578" type="curve" smooth="yes"/>
			<point x="136" y="-55.4538206578"/>
			<point x="140" y="-44.4538206578"/>
			<point x="156" y="-44.4538206578" type="curve" smooth="yes"/>
			<point x="180" y="-44.4538206578"/>
			<point x="183" y="-80.4538206578"/>
			<point x="289" y="-80.4538206578" type="curve" smooth="yes"/>
			<point x="369" y="-80.4538206578"/>
			<point x="424" y="-42.4538206578"/>
			<point x="424" y="60.5461793422" type="curve" smooth="yes"/>
			<point x="424" y="198.5461793422"/>
			<point x="327" y="292.5461793422"/>
			<point x="196" y="292.5461793422" type="curve" smooth="yes"/>
			<point x="161" y="292.5461793422"/>
			<point x="124" y="281.5461793422"/>
			<point x="104" y="281.5461793422" type="curve" smooth="yes"/>
			<point x="85" y="281.5461793422"/>
			<point x="76" y="295.5461793422"/>
			<point x="76" y="310.5461793422" type="curve" smooth="yes"/>
		</contour>
	</outline>
</glyph>
<glyph name="t" format="2">
	<unicode hex="0074"/>
	<advance width="443"/>
	<outline>
		<contour>
			<point x="148" y="152.1721501304" type="curve" smooth="yes"/>
			<point x="148" y="266.1721501304"/>
			<point x="168" y="306.1721501304"/>
			<point x="183" y="423.1721501304" type="curve" smooth="yes"/>
			<point x="196" y="520.1721501304"/>
			<point x="192" y="572.1721501304"/>
			<point x="158" y="572.1721501304" type="curve" smooth="yes"/>
			<point x="137" y="572.1721501304"/>
			<point x="131" y="560.1721501304"/>
			<point x="129" y="545.1721501304" type="curve" smooth="yes"/>
			<point x="125" y="511.1721501304"/>
			<point x="122" y="475.1721501304"/>
			<point x="114" y="410.1721501304" type="curve" smooth="yes"/>
			<point x="103" y="332.1721501304"/>
			<point x="81" y="258.3713202549"/>
			<point x="81" y="148.1721501304" type="curve" smooth="yes"/>
			<point x="81" y="-28.8278498696"/>
			<point x="140" y="-146.8278498696"/>
			<point x="301" y="-146.8278498696" type="curve" smooth="yes"/>
			<point x="365" y="-146.8278498696"/>
			<point x="401" y="-115.8278498696"/>
			<point x="401" y="-84.8278498696" type="curve" smooth="yes"/>
			<point x="401" y="-66.8278498696"/>
			<point x="394.8888888889" y="-57.8278498696"/>
			<point x="381" y="-57.8278498696" type="curve" smooth="yes"/>
			<point x="354.1126760563" y="-57.8278498696"/>
			<point x="355.2816901408" y="-80.8278498696"/>
			<point x="298" y="-80.8278498696" type="curve" smooth="yes"/>
			<point x="198.9259259259" y="-80.8278498696"/>
			<point x="148" y="-21.8278498696"/>
		</contour>
		<contour>
			<point x="156" y="253.1721501304" type="curve" smooth="yes"/>
			<point x="208" y="275.1721501304"/>
			<point x="256" y="291.1721501304"/>
			<point x="339" y="298.1721501304" type="curve" smooth="yes"/>
			<point x="364" y="300.1721501304"/>
			<point x="374" y="307.1721501304"/>
			<point x="374" y="326.1721501304" type="curve" smooth="yes"/>
			<point x="374" y="345.1721501304"/>
			<point x="353" y="361.1721501304"/>
			<point x="327" y="361.1721501304" type="curve" smooth="yes"/>
			<point x="280" y="361.1721501304"/>
			<point x="218" y="348.1721501304"/>
			<point x="171" y="330.1721501304" type="curve" smooth="yes"/>
			<point x="119" y="311.1721501304"/>
			<point x="111" y="295.1721501304"/>
			<point x="111" y="271.1721501304" type="curve" smooth="yes"/>
			<point x="111" y="252.1721501304"/>
			<point x="127" y="240.1721501304"/>
		</contour>
	</outline>
</glyph>
<glyph name="w" format="2">
	<unicode hex="0077"/>
	<advance width="857"/>
	<image fileName="b.png" xScale="2.580311745" yScale="2.580311745" xOffset="-5180.8366790108" yOffset="-580.570142633" color="0,0,0,0.24109"/>
	<outline>
		<contour>
			<point x="131" y="237.0951867365" type="curve" smooth="yes"/>
			<point x="187" y="127.0951867365"/>
			<point x="193" y="-44.9048132635"/>
			<point x="239" y="-141.9048132635" type="curve" smooth="yes"/>
			<point x="255" y="-173.9048132635"/>
			<point x="198" y="-176.9048132635"/>
			<point x="219" y="-144.9048132635" type="curve" smooth="yes"/>
			<point x="258" y="-83.9048132635"/>
			<point x="290" y="92.0951867365"/>
			<point x="325" y="182.0951867365" type="curve" smooth="yes"/>
			<point x="357" y="266.0951867365"/>
			<point x="380" y="297.0951867365"/>
			<point x="412" y="297.0951867365" type="curve" smooth="yes"/>
			<point x="462" y="297.0951867365"/>
			<point x="491" y="249.0951867365"/>
			<point x="537" y="132.0951867365" type="curve" smooth="yes"/>
			<point x="565" y="57.0951867365"/>
			<point x="601" y="-76.9048132635"/>
			<point x="651" y="-134.9048132635" type="curve" smooth="yes"/>
			<point x="687" y="-178.9048132635"/>
			<point x="619" y="-188.9048132635"/>
			<point x="639" y="-138.9048132635" type="curve" smooth="yes"/>
			<point x="684" y="-41.9048132635"/>
			<point x="678" y="96.0951867365"/>
			<point x="709" y="202.0951867365" type="curve" smooth="yes"/>
			<point x="726" y="259.0951867365"/>
			<point x="757.1134020619" y="299.0951867365"/>
			<point x="796" y="299.0951867365" type="curve" smooth="yes"/>
			<point x="809.6610169492" y="299.0951867365"/>
			<point x="822" y="288.0951867365"/>
			<point x="822" y="277.0951867365" type="curve" smooth="yes"/>
			<point x="822" y="256.0951867365"/>
			<point x="811" y="236.0951867365"/>
			<point x="795" y="222.0951867365" type="curve" smooth="yes"/>
			<point x="758.0142863551" y="188.5500045935"/>
			<point x="749.9818105705" y="55.3636696097"/>
			<point x="736" y="-33.9048132635" type="curve" smooth="yes"/>
			<point x="713" y="-177.9048132635"/>
			<point x="696" y="-207.9048132635"/>
			<point x="652" y="-207.9048132635" type="curve" smooth="yes"/>
			<point x="618.3979591837" y="-207.9048132635"/>
			<point x="601" y="-190.9048132635"/>
			<point x="563" y="-128.9048132635" type="curve" smooth="yes"/>
			<point x="503" y="-28.9048132635"/>
			<point x="473" y="161.0951867365"/>
			<point x="413" y="227.0951867365" type="curve" smooth="yes"/>
			<point x="381" y="260.0951867365"/>
			<point x="447" y="260.0951867365"/>
			<point x="426" y="233.0951867365" type="curve" smooth="yes"/>
			<point x="375" y="170.0951867365"/>
			<point x="350" y="0.0951867365"/>
			<point x="297" y="-136.9048132635" type="curve" smooth="yes"/>
			<point x="274" y="-194.9048132635"/>
			<point x="261" y="-209.9048132635"/>
			<point x="223" y="-209.9048132635" type="curve" smooth="yes"/>
			<point x="195" y="-209.9048132635"/>
			<point x="171" y="-183.9048132635"/>
			<point x="151" y="-97.9048132635" type="curve" smooth="yes"/>
			<point x="127" y="3.0951867365"/>
			<point x="110" y="150.0951867365"/>
			<point x="52" y="240.0951867365" type="curve" smooth="yes"/>
			<point x="26" y="279.0951867365"/>
			<point x="36" y="300.0951867365"/>
			<point x="64" y="300.0951867365" type="curve" smooth="yes"/>
			<point x="82" y="300.0951867365"/>
			<point x="103" y="295.0951867365"/>
		</contour>
	</outline>
</glyph>
<glyph name="x" format="2">
	<unicode hex="0078"/>
	<advance width="499"/>
	<image fileName="b.png" xScale="2.580311745" yScale="2.580311745" xOffset="-6195.2985653972" yOffset="-580.570142633" color="0,0,0,0.24109"/>
	<outline>
		<contour>
			<point x="447" y="318.7742884368" type="curve" smooth="yes"/>
			<point x="296.6124922468" y="229.9089429463"/>
			<point x="187" y="68.7742884368"/>
			<point x="126" y="-88.2257115632" type="curve" smooth="yes"/>
			<point x="118" y="-110.2257115632"/>
			<point x="105" y="-120.2257115632"/>
			<point x="94" y="-120.2257115632" type="curve" smooth="yes"/>
			<point x="81" y="-120.2257115632"/>
			<point x="64" y="-115.2257115632"/>
			<point x="64" y="-79.2257115632" type="curve" smooth="yes"/>
			<point x="64" y="-15.2257115632"/>
			<point x="172" y="182.7742884368"/>
			<point x="338" y="320.7742884368" type="curve" smooth="yes"/>
			<point x="410" y="380.7742884368"/>
			<point x="432" y="389.7742884368"/>
			<point x="455" y="389.7742884368" type="curve" smooth="yes"/>
			<point x="471" y="389.7742884368"/>
			<point x="481" y="380.7742884368"/>
			<point x="481" y="366.7742884368" type="curve" smooth="yes"/>
			<point x="481" y="350.7742884368"/>
			<point x="473" y="334.7742884368"/>
		</contour>
		<contour>
			<point x="200" y="276.7742884368"/>
			<point x="351" y="89.7742884368"/>
			<point x="412" y="4.7742884368" type="curve" smooth="yes"/>
			<point x="453" y="-53.2257115632"/>
			<point x="459" y="-80.2257115632"/>
			<point x="459" y="-99.2257115632" type="curve" smooth="yes"/>
			<point x="459" y="-110.2257115632"/>
			<point x="453" y="-117.2257115632"/>
			<point x="443" y="-117.2257115632" type="curve" smooth="yes"/>
			<point x="427" y="-117.2257115632"/>
			<point x="405" y="-107.2257115632"/>
			<point x="384" y="-76.2257115632" type="curve" smooth="yes"/>
			<point x="295" y="47.7742884368"/>
			<point x="172" y="218.7742884368"/>
			<point x="79" y="297.7742884368" type="curve" smooth="yes"/>
			<point x="46" y="325.7742884368"/>
			<point x="26" y="344.7742884368"/>
			<point x="26" y="366.7742884368" type="curve" smooth="yes"/>
			<point x="26" y="377.7742884368"/>
			<point x="33" y="387.7742884368"/>
			<point x="50" y="387.7742884368" type="curve" smooth="yes"/>
			<point x="76" y="387.7742884368"/>
			<point x="93" y="376.7742884368"/>
			<point x="133" y="339.7742884368" type="curve" smooth="yes"/>
		</contour>
	</outline>
</glyph>
<glyph name="section" format="2">
	<unicode hex="00A7"/>
	<advance width="561"/>
	<outline>
		<contour>
			<point x="192" y="-445.7618242615" type="curve"/>
			<point x="332" y="-445.7618242615"/>
			<point x="496" y="-400.7618242615"/>
			<point x="496" y="-309.7618242615" type="curve" smooth="yes"/>
			<point x="496" y="-151.7618242615"/>
			<point x="136" y="-133.7618242615"/>
			<point x="136" y="-18.7618242615" type="curve" smooth="yes"/>
			<point x="136" y="32.5715090718"/>
			<point x="174.5472806323" y="63.4074377897"/>
			<point x="271" y="93.2381757385" type="curve"/>
			<point x="209" y="127.2381757385" type="line"/>
			<point x="118.2406050128" y="98.5168482109"/>
			<point x="67" y="47.2381757385"/>
			<point x="67" y="-21.7618242615" type="curve" smooth="yes"/>
			<point x="67" y="-189.7618242615"/>
			<point x="405.9989796646" y="-191.7551652303"/>
			<point x="425" y="-315.7618242615" type="curve"/>
			<point x="383" y="-353.7618242615"/>
			<point x="290" y="-377.7618242615"/>
			<point x="184" y="-377.7618242615" type="curve"/>
			<point x="108" y="-377.7618242615"/>
			<point x="100" y="-367.7618242615"/>
			<point x="72" y="-367.7618242615" type="curve" smooth="yes"/>
			<point x="52" y="-367.7618242615"/>
			<point x="43" y="-376.7618242615"/>
			<point x="43" y="-392.7618242615" type="curve" smooth="yes"/>
			<point x="43" y="-423.7618242615"/>
			<point x="82" y="-445.7618242615"/>
		</contour>
		<contour>
			<point x="302" y="-174.7618242615" type="line"/>
			<point x="422" y="-161.7618242615"/>
			<point x="501" y="-112.7618242615"/>
			<point x="501" y="-39.7618242615" type="curve" smooth="yes"/>
			<point x="501" y="108.2381757385"/>
			<point x="141" y="129.2381757385"/>
			<point x="141" y="231.2381757385" type="curve" smooth="yes"/>
			<point x="141" y="323.2381757385"/>
			<point x="258" y="419.2381757385"/>
			<point x="464" y="454.2381757385" type="curve" smooth="yes"/>
			<point x="498" y="459.2381757385"/>
			<point x="509" y="471.2381757385"/>
			<point x="509" y="490.2381757385" type="curve" smooth="yes"/>
			<point x="509" y="511.2381757385"/>
			<point x="496" y="523.2381757385"/>
			<point x="470" y="523.2381757385" type="curve" smooth="yes"/>
			<point x="328" y="523.2381757385"/>
			<point x="72" y="404.2381757385"/>
			<point x="72" y="228.2381757385" type="curve" smooth="yes"/>
			<point x="72" y="68.2381757385"/>
			<point x="413" y="66.2381757385"/>
			<point x="432" y="-50.7618242615" type="curve"/>
			<point x="397" y="-98.7618242615"/>
			<point x="323" y="-126.7618242615"/>
			<point x="218" y="-127.7618242615" type="curve"/>
		</contour>
	</outline>
</glyph>
<glyph name="copyright" format="2">
	<unicode hex="00A9"/>
	<advance width="929"/>
	<outline>
		<contour>
			<point x="321" y="469.5612910319" type="curve" smooth="yes"/>
			<point x="202.7239495554" y="397.4868227922"/>
			<point x="152" y="276.5612910319"/>
			<point x="152" y="151.5612910319" type="curve" smooth="yes"/>
			<point x="152" y="13.5612910319"/>
			<point x="245.3962264151" y="-103.4387089681"/>
			<point x="427" y="-103.4387089681" type="curve" smooth="yes"/>
			<point x="661.6411609499" y="-103.4387089681"/>
			<point x="796" y="31.5612910319"/>
			<point x="796" y="266.5612910319" type="curve" smooth="yes"/>
			<point x="796" y="440.5612910319"/>
			<point x="714" y="549.5612910319"/>
			<point x="512" y="548.5612910319" type="curve" smooth="yes"/>
			<point x="351" y="547.5612910319"/>
			<point x="286" y="486.5612910319"/>
			<point x="211" y="426.5612910319" type="curve" smooth="yes"/>
			<point x="199" y="417.5612910319"/>
			<point x="188" y="411.5612910319"/>
			<point x="177" y="411.5612910319" type="curve" smooth="yes"/>
			<point x="161" y="411.5612910319"/>
			<point x="156" y="419.5612910319"/>
			<point x="156" y="437.5612910319" type="curve" smooth="yes"/>
			<point x="156" y="494.5612910319"/>
			<point x="293" y="611.5612910319"/>
			<point x="503" y="611.5612910319" type="curve" smooth="yes"/>
			<point x="752" y="611.5612910319"/>
			<point x="864" y="478.5612910319"/>
			<point x="864" y="275.5612910319" type="curve" smooth="yes"/>
			<point x="864" y="-20.4387089681"/>
			<point x="669.5852534562" y="-166.4387089681"/>
			<point x="440" y="-166.4387089681" type="curve" smooth="yes"/>
			<point x="236.2608695652" y="-166.4387089681"/>
			<point x="85" y="-71.4387089681"/>
			<point x="85" y="150.5612910319" type="curve" smooth="yes"/>
			<point x="85" y="398.5612910319"/>
			<point x="279" y="548.5612910319"/>
			<point x="354" y="548.5612910319" type="curve" smooth="yes"/>
			<point x="369" y="548.5612910319"/>
			<point x="376" y="544.5612910319"/>
			<point x="376" y="529.5612910319" type="curve" smooth="yes"/>
			<point x="376" y="509.5612910319"/>
			<point x="362" y="494.5612910319"/>
		</contour>
		<contour>
			<point x="466" y="6.5612910319" type="curve" smooth="yes"/>
			<point x="580.2790697674" y="6.5612910319"/>
			<point x="634" y="72.3865337503"/>
			<point x="634" y="119.5612910319" type="curve" smooth="yes"/>
			<point x="634" y="134.5612910319"/>
			<point x="627" y="145.5612910319"/>
			<point x="617" y="145.5612910319" type="curve" smooth="yes"/>
			<point x="594.5974025974" y="145.5612910319"/>
			<point x="576" y="70.5612910319"/>
			<point x="467" y="70.5612910319" type="curve" smooth="yes"/>
			<point x="391" y="70.5612910319"/>
			<point x="343" y="109.5612910319"/>
			<point x="343" y="180.5612910319" type="curve" smooth="yes"/>
			<point x="343" y="276.5612910319"/>
			<point x="414" y="371.5612910319"/>
			<point x="513" y="371.5612910319" type="curve" smooth="yes"/>
			<point x="569" y="371.5612910319"/>
			<point x="578" y="346.5612910319"/>
			<point x="578" y="316.5612910319" type="curve" smooth="yes"/>
			<point x="578" y="288.5612910319"/>
			<point x="582" y="278.5612910319"/>
			<point x="596" y="278.5612910319" type="curve" smooth="yes"/>
			<point x="623" y="278.5612910319"/>
			<point x="635" y="304.5612910319"/>
			<point x="635" y="333.5612910319" type="curve" smooth="yes"/>
			<point x="635" y="392.5612910319"/>
			<point x="602" y="434.5612910319"/>
			<point x="523" y="434.5612910319" type="curve" smooth="yes"/>
			<point x="384" y="434.5612910319"/>
			<point x="276" y="312.5612910319"/>
			<point x="276" y="183.5612910319" type="curve" smooth="yes"/>
			<point x="276" y="82.5612910319"/>
			<point x="335" y="6.5612910319"/>
		</contour>
	</outline>
</glyph>
<glyph name="dagger" format="2">
	<unicode hex="2020"/>
	<advance width="538"/>
	<outline>
		<contour>
			<point x="317" y="573.6248042537" type="curve" smooth="yes"/>
			<point x="317" y="463.6248042537"/>
			<point x="305" y="332.6248042537"/>
			<point x="305" y="127.6248042537" type="curve" smooth="yes"/>
			<point x="305" y="-128.3751957463"/>
			<point x="320" y="-161.3751957463"/>
			<point x="320" y="-294.3751957463" type="curve" smooth="yes"/>
			<point x="320" y="-329.3751957463"/>
			<point x="302" y="-339.3751957463"/>
			<point x="289" y="-339.3751957463" type="curve" smooth="yes"/>
			<point x="274" y="-339.3751957463"/>
			<point x="262" y="-325.3751957463"/>
			<point x="259" y="-303.3751957463" type="curve" smooth="yes"/>
			<point x="234" y="-120.3751957463"/>
			<point x="237" y="-2.3751957463"/>
			<point x="237" y="141.6248042537" type="curve" smooth="yes"/>
			<point x="237" y="341.6248042537"/>
			<point x="249" y="490.6248042537"/>
			<point x="249" y="595.6248042537" type="curve" smooth="yes"/>
			<point x="249" y="614.6248042537"/>
			<point x="259" y="632.6248042537"/>
			<point x="277" y="632.6248042537" type="curve" smooth="yes"/>
			<point x="297" y="632.6248042537"/>
			<point x="317" y="611.6248042537"/>
		</contour>
		<contour>
			<point x="86" y="307.6248042537" type="curve" smooth="yes"/>
			<point x="57" y="299.6248042537"/>
			<point x="41" y="315.6248042537"/>
			<point x="41" y="334.6248042537" type="curve" smooth="yes"/>
			<point x="42" y="358.6248042537"/>
			<point x="50" y="373.6248042537"/>
			<point x="102" y="381.6248042537" type="curve" smooth="yes"/>
			<point x="216" y="401.6248042537"/>
			<point x="354" y="415.6248042537"/>
			<point x="462" y="415.6248042537" type="curve" smooth="yes"/>
			<point x="488" y="415.6248042537"/>
			<point x="509" y="399.6248042537"/>
			<point x="509" y="380.6248042537" type="curve" smooth="yes"/>
			<point x="509" y="361.6248042537"/>
			<point x="499" y="354.6248042537"/>
			<point x="474" y="352.6248042537" type="curve" smooth="yes"/>
			<point x="299" y="338.6248042537"/>
			<point x="197" y="332.6248042537"/>
		</contour>
	</outline>
</glyph>
<glyph name="daggerdbl" format="2">
	<unicode hex="2021"/>
	<advance width="538"/>
	<outline>
		<contour>
			<point x="317" y="772.3280384463" type="curve" smooth="yes"/>
			<point x="317" y="662.3280384463"/>
			<point x="305" y="531.3280384463"/>
			<point x="305" y="326.3280384463" type="curve" smooth="yes"/>
			<point x="305" y="70.3280384463"/>
			<point x="320" y="37.3280384463"/>
			<point x="320" y="-95.6719615537" type="curve" smooth="yes"/>
			<point x="320" y="-130.6719615537"/>
			<point x="302" y="-140.6719615537"/>
			<point x="289" y="-140.6719615537" type="curve" smooth="yes"/>
			<point x="274" y="-140.6719615537"/>
			<point x="262" y="-126.6719615537"/>
			<point x="259" y="-104.6719615537" type="curve" smooth="yes"/>
			<point x="234" y="78.3280384463"/>
			<point x="237" y="196.3280384463"/>
			<point x="237" y="340.3280384463" type="curve" smooth="yes"/>
			<point x="237" y="540.3280384463"/>
			<point x="249" y="689.3280384463"/>
			<point x="249" y="794.3280384463" type="curve" smooth="yes"/>
			<point x="249" y="813.3280384463"/>
			<point x="259" y="831.3280384463"/>
			<point x="277" y="831.3280384463" type="curve" smooth="yes"/>
			<point x="297" y="831.3280384463"/>
			<point x="317" y="810.3280384463"/>
		</contour>
		<contour>
			<point x="86" y="506.3280384463" type="curve" smooth="yes"/>
			<point x="57" y="498.3280384463"/>
			<point x="41" y="514.3280384463"/>
			<point x="41" y="533.3280384463" type="curve" smooth="yes"/>
			<point x="42" y="557.3280384463"/>
			<point x="50" y="572.3280384463"/>
			<point x="102" y="580.3280384463" type="curve" smooth="yes"/>
			<point x="216" y="600.3280384463"/>
			<point x="354" y="614.3280384463"/>
			<point x="462" y="614.3280384463" type="curve" smooth="yes"/>
			<point x="488" y="614.3280384463"/>
			<point x="509" y="598.3280384463"/>
			<point x="509" y="579.3280384463" type="curve" smooth="yes"/>
			<point x="509" y="560.3280384463"/>
			<point x="499" y="553.3280384463"/>
			<point x="474" y="551.3280384463" type="curve" smooth="yes"/>
			<point x="299" y="537.3280384463"/>
			<point x="197" y="531.3280384463"/>
		</contour>
		<contour>
			<point x="86" y="109.3280384463" type="curve" smooth="yes"/>
			<point x="57" y="101.3280384463"/>
			<point x="41" y="117.3280384463"/>
			<point x="41" y="136.3280384463" type="curve" smooth="yes"/>
			<point x="42" y="160.3280384463"/>
			<point x="50" y="175.3280384463"/>
			<point x="102" y="183.3280384463" type="curve" smooth="yes"/>
			<point x="216" y="203.3280384463"/>
			<point x="354" y="217.3280384463"/>
			<point x="462" y="217.3280384463" type="curve" smooth="yes"/>
			<point x="488" y="217.3280384463"/>
			<point x="509" y="201.3280384463"/>
			<point x="509" y="182.3280384463" type="curve" smooth="yes"/>
			<point x="509" y="163.3280384463"/>
			<point x="499" y="156.3280384463"/>
			<point x="474" y="154.3280384463" type="curve" smooth="yes"/>
			<point x="299" y="140.3280384463"/>
			<point x="197" y="134.3280384463"/>
		</contour>
	</outline>
</glyph>
<glyph name="ellipsis" format="2">
	<unicode hex="2026"/>
	<advance width="841"/>
	<outline>
		<contour>
			<point x="176" y="-141.6395996431" type="curve" smooth="yes"/>
			<point x="210" y="-141.6395996431"/>
			<point x="223" y="-115.6395996431"/>
			<point x="223" y="-90.6395996431" type="curve" smooth="yes"/>
			<point x="223" y="-55.6395996431"/>
			<point x="194" y="-12.6395996431"/>
			<point x="146" y="-12.6395996431" type="curve" smooth="yes"/>
			<point x="120" y="-12.6395996431"/>
			<point x="98" y="-32.6395996431"/>
			<point x="98" y="-60.6395996431" type="curve" smooth="yes"/>
			<point x="98" y="-101.6395996431"/>
			<point x="134" y="-141.6395996431"/>
		</contour>
		<contour>
			<point x="436" y="-141.6395996431" type="curve" smooth="yes"/>
			<point x="470" y="-141.6395996431"/>
			<point x="483" y="-115.6395996431"/>
			<point x="483" y="-90.6395996431" type="curve" smooth="yes"/>
			<point x="483" y="-55.6395996431"/>
			<point x="454" y="-12.6395996431"/>
			<point x="406" y="-12.6395996431" type="curve" smooth="yes"/>
			<point x="380" y="-12.6395996431"/>
			<point x="358" y="-32.6395996431"/>
			<point x="358" y="-60.6395996431" type="curve" smooth="yes"/>
			<point x="358" y="-101.6395996431"/>
			<point x="394" y="-141.6395996431"/>
		</contour>
		<contour>
			<point x="696" y="-141.6395996431" type="curve" smooth="yes"/>
			<point x="730" y="-141.6395996431"/>
			<point x="743" y="-115.6395996431"/>
			<point x="743" y="-90.6395996431" type="curve" smooth="yes"/>
			<point x="743" y="-55.6395996431"/>
			<point x="714" y="-12.6395996431"/>
			<point x="666" y="-12.6395996431" type="curve" smooth="yes"/>
			<point x="640" y="-12.6395996431"/>
			<point x="618" y="-32.6395996431"/>
			<point x="618" y="-60.6395996431" type="curve" smooth="yes"/>
			<point x="618" y="-101.6395996431"/>
			<point x="654" y="-141.6395996431"/>
		</contour>
	</outline>
</glyph>
<glyph name="trademark" format="2">
	<unicode hex="2122"/>
	<advance width="950"/>
	<outline>
		<contour>
			<point x="167" y="585.2156217411" type="curve" smooth="yes"/>
			<point x="153" y="423.2156217411"/>
			<point x="157" y="342.2156217411"/>
			<point x="166" y="289.2156217411" type="curve" smooth="yes"/>
			<point x="174" y="244.2156217411"/>
			<point x="191" y="232.2156217411"/>
			<point x="209" y="232.2156217411" type="curve" smooth="yes"/>
			<point x="224" y="232.2156217411"/>
			<point x="232" y="237.2156217411"/>
			<point x="232" y="254.2156217411" type="curve" smooth="yes"/>
			<point x="232" y="278.2156217411"/>
			<point x="210" y="335.2156217411"/>
			<point x="225" y="547.2156217411" type="curve" smooth="yes"/>
			<point x="228" y="598.2156217411"/>
			<point x="220" y="616.2156217411"/>
			<point x="192" y="616.2156217411" type="curve" smooth="yes"/>
			<point x="178" y="616.2156217411"/>
			<point x="168" y="604.2156217411"/>
		</contour>
		<contour>
			<point x="86" y="590.2156217411" type="curve" smooth="yes"/>
			<point x="158.5526962352" y="586.1281458969"/>
			<point x="208.3414634146" y="582.2156217411"/>
			<point x="295" y="582.2156217411" type="curve" smooth="yes"/>
			<point x="330.0526315789" y="582.2156217411"/>
			<point x="367" y="597.2156217411"/>
			<point x="367" y="627.2156217411" type="curve" smooth="yes"/>
			<point x="367" y="640.2156217411"/>
			<point x="360" y="649.2156217411"/>
			<point x="344" y="649.2156217411" type="curve" smooth="yes"/>
			<point x="316.3033707865" y="649.2156217411"/>
			<point x="303.8876404494" y="640.2156217411"/>
			<point x="259" y="640.2156217411" type="curve" smooth="yes"/>
			<point x="186.58" y="640.2156217411"/>
			<point x="141.7" y="647.2156217411"/>
			<point x="55" y="647.2156217411" type="curve" smooth="yes"/>
			<point x="34.84" y="647.2156217411"/>
			<point x="27" y="637.5314112148"/>
			<point x="27" y="624.2156217411" type="curve" smooth="yes"/>
			<point x="27" y="605.4261480569"/>
			<point x="37.548462456" y="592.32221033"/>
		</contour>
		<contour>
			<point x="791" y="580.2156217411" type="curve"/>
			<point x="810" y="572.2156217411" type="line"/>
			<point x="771" y="524.2156217411"/>
			<point x="763" y="388.2156217411"/>
			<point x="703" y="257.2156217411" type="curve" smooth="yes"/>
			<point x="696" y="241.2156217411"/>
			<point x="687" y="234.2156217411"/>
			<point x="673" y="234.2156217411" type="curve" smooth="yes"/>
			<point x="662" y="234.2156217411"/>
			<point x="650" y="240.2156217411"/>
			<point x="641" y="255.2156217411" type="curve" smooth="yes"/>
			<point x="616" y="293.2156217411"/>
			<point x="603" y="365.2156217411"/>
			<point x="593" y="440.2156217411" type="curve" smooth="yes"/>
			<point x="586" y="493.2156217411"/>
			<point x="577" y="535.2156217411"/>
			<point x="563" y="574.2156217411" type="curve"/>
			<point x="568" y="574.2156217411" type="line"/>
			<point x="537" y="508.2156217411"/>
			<point x="514" y="393.2156217411"/>
			<point x="514" y="256.2156217411" type="curve" smooth="yes"/>
			<point x="514" y="240.2156217411"/>
			<point x="504" y="232.2156217411"/>
			<point x="494" y="232.2156217411" type="curve" smooth="yes"/>
			<point x="463" y="232.2156217411"/>
			<point x="450" y="267.2156217411"/>
			<point x="450" y="338.2156217411" type="curve" smooth="yes"/>
			<point x="450" y="396.2156217411"/>
			<point x="456" y="439.2156217411"/>
			<point x="456" y="483.2156217411" type="curve" smooth="yes"/>
			<point x="456" y="570.2156217411"/>
			<point x="434" y="597.2156217411"/>
			<point x="434" y="623.2156217411" type="curve" smooth="yes"/>
			<point x="434" y="633.2156217411"/>
			<point x="440" y="641.2156217411"/>
			<point x="453" y="641.2156217411" type="curve" smooth="yes"/>
			<point x="489" y="641.2156217411"/>
			<point x="510" y="587.2156217411"/>
			<point x="512" y="526.2156217411" type="curve"/>
			<point x="502" y="522.2156217411" type="line"/>
			<point x="516" y="605.2156217411"/>
			<point x="540" y="648.2156217411"/>
			<point x="572" y="648.2156217411" type="curve" smooth="yes"/>
			<point x="614" y="648.2156217411"/>
			<point x="635" y="572.2156217411"/>
			<point x="655" y="416.2156217411" type="curve" smooth="yes"/>
			<point x="659" y="387.2156217411"/>
			<point x="663" y="348.2156217411"/>
			<point x="680" y="308.2156217411" type="curve"/>
			<point x="664" y="318.2156217411" type="line"/>
			<point x="699" y="384.2156217411"/>
			<point x="716" y="501.2156217411"/>
			<point x="740" y="564.2156217411" type="curve" smooth="yes"/>
			<point x="760" y="618.2156217411"/>
			<point x="779" y="647.2156217411"/>
			<point x="806" y="647.2156217411" type="curve" smooth="yes"/>
			<point x="833" y="647.2156217411"/>
			<point x="871" y="626.2156217411"/>
			<point x="876" y="501.2156217411" type="curve" smooth="yes"/>
			<point x="879" y="426.2156217411"/>
			<point x="893" y="340.2156217411"/>
			<point x="917" y="274.2156217411" type="curve" smooth="yes"/>
			<point x="925" y="250.2156217411"/>
			<point x="918" y="234.2156217411"/>
			<point x="899" y="234.2156217411" type="curve" smooth="yes"/>
			<point x="881" y="234.2156217411"/>
			<point x="866" y="244.2156217411"/>
			<point x="851" y="277.2156217411" type="curve" smooth="yes"/>
			<point x="829" y="323.2156217411"/>
			<point x="819" y="416.2156217411"/>
			<point x="815" y="483.2156217411" type="curve" smooth="yes"/>
			<point x="813" y="528.2156217411"/>
			<point x="806" y="555.2156217411"/>
		</contour>
	</outline>
</glyph>
<glyph name="A.alt1" format="2">
	<advance width="713"/>
	<outline>
		<contour>
			<point x="605" y="-59.0813325548" type="curve" smooth="yes"/>
			<point x="619" y="-59.0813325548"/>
			<point x="628" y="-49.0813325548"/>
			<point x="628" y="-31.0813325548" type="curve" smooth="yes"/>
			<point x="628" y="20.9186674452"/>
			<point x="569" y="114.9186674452"/>
			<point x="543" y="346.9186674452" type="curve" smooth="yes"/>
			<point x="520" y="561.9186674452"/>
			<point x="511" y="659.9186674452"/>
			<point x="403" y="659.9186674452" type="curve" smooth="yes"/>
			<point x="338" y="659.9186674452"/>
			<point x="287" y="599.9186674452"/>
			<point x="223" y="468.9186674452" type="curve"/>
			<point x="252" y="475.9186674452" type="line"/>
			<point x="241" y="493.9186674452"/>
			<point x="227" y="504.9186674452"/>
			<point x="211" y="504.9186674452" type="curve"/>
			<point x="195" y="504.9186674452"/>
			<point x="186" y="490.9186674452"/>
			<point x="186" y="469.9186674452" type="curve" smooth="yes"/>
			<point x="186" y="300.9186674452"/>
			<point x="93" y="137.9186674452"/>
			<point x="93" y="-11.0813325548" type="curve" smooth="yes"/>
			<point x="93" y="-47.0813325548"/>
			<point x="106" y="-58.0813325548"/>
			<point x="126" y="-58.0813325548" type="curve" smooth="yes"/>
			<point x="141" y="-58.0813325548"/>
			<point x="148" y="-45.0813325548"/>
			<point x="151" y="-25.0813325548" type="curve" smooth="yes"/>
			<point x="203" y="344.9186674452"/>
			<point x="325" y="594.9186674452"/>
			<point x="403" y="594.9186674452" type="curve" smooth="yes"/>
			<point x="456" y="594.9186674452"/>
			<point x="462" y="517.9186674452"/>
			<point x="481" y="341.9186674452" type="curve" smooth="yes"/>
			<point x="493" y="232.9186674452"/>
			<point x="524" y="99.9186674452"/>
			<point x="548" y="26.9186674452" type="curve" smooth="yes"/>
			<point x="568" y="-35.0813325548"/>
			<point x="579" y="-59.0813325548"/>
		</contour>
		<contour>
			<point x="70" y="143.9186674452" type="curve" smooth="yes"/>
			<point x="169" y="145.9186674452"/>
			<point x="244" y="213.9186674452"/>
			<point x="607" y="213.9186674452" type="curve" smooth="yes"/>
			<point x="642" y="213.9186674452"/>
			<point x="672" y="233.9186674452"/>
			<point x="672" y="252.9186674452" type="curve" smooth="yes"/>
			<point x="672" y="273.9186674452"/>
			<point x="667" y="279.9186674452"/>
			<point x="623" y="279.9186674452" type="curve" smooth="yes"/>
			<point x="409" y="279.9186674452"/>
			<point x="217" y="254.9186674452"/>
			<point x="72" y="197.9186674452" type="curve" smooth="yes"/>
			<point x="50" y="188.9186674452"/>
			<point x="44" y="179.9186674452"/>
			<point x="44" y="165.9186674452" type="curve" smooth="yes"/>
			<point x="44" y="157.9186674452"/>
			<point x="57" y="143.9186674452"/>
		</contour>
	</outline>
</glyph>
<glyph name="D.alt1" format="2">
	<advance width="642"/>
	<outline>
		<contour>
			<point x="204" y="-70.7460912356" type="curve" smooth="yes"/>
			<point x="371" y="-70.7460912356"/>
			<point x="589" y="121.2539087644"/>
			<point x="589" y="397.2539087644" type="curve" smooth="yes"/>
			<point x="589" y="556.2539087644"/>
			<point x="507" y="648.2539087644"/>
			<point x="362" y="648.2539087644" type="curve" smooth="yes"/>
			<point x="233.5268817204" y="648.2539087644"/>
			<point x="107.9119849245" y="602.8081409251"/>
			<point x="53" y="574.2539087644" type="curve" smooth="yes"/>
			<point x="40" y="567.2539087644"/>
			<point x="31" y="555.2539087644"/>
			<point x="31" y="543.2539087644" type="curve" smooth="yes"/>
			<point x="31" y="530.2539087644"/>
			<point x="41" y="520.2539087644"/>
			<point x="63" y="520.2539087644" type="curve" smooth="yes"/>
			<point x="132.3517786561" y="520.2539087644"/>
			<point x="194.9920948617" y="583.2539087644"/>
			<point x="346" y="583.2539087644" type="curve" smooth="yes"/>
			<point x="477" y="583.2539087644"/>
			<point x="523" y="514.2539087644"/>
			<point x="523" y="395.2539087644" type="curve" smooth="yes"/>
			<point x="523" y="163.2539087644"/>
			<point x="347" y="-2.7460912356"/>
			<point x="157" y="-13.7460912356" type="curve"/>
			<point x="179" y="-25.7460912356" type="line"/>
			<point x="169" y="16.2539087644"/>
			<point x="167" y="51.2539087644"/>
			<point x="167" y="86.2539087644" type="curve" smooth="yes"/>
			<point x="167" y="301.2539087644"/>
			<point x="191" y="425.2539087644"/>
			<point x="191" y="522.2539087644" type="curve" smooth="yes"/>
			<point x="191" y="548.2539087644"/>
			<point x="179" y="570.2539087644"/>
			<point x="165" y="570.2539087644" type="curve" smooth="yes"/>
			<point x="145" y="570.2539087644"/>
			<point x="136" y="556.2539087644"/>
			<point x="131" y="517.2539087644" type="curve" smooth="yes"/>
			<point x="113" y="372.2539087644"/>
			<point x="103" y="230.2539087644"/>
			<point x="103" y="33.2539087644" type="curve" smooth="yes"/>
			<point x="103" y="-17.7460912356"/>
			<point x="146" y="-70.7460912356"/>
		</contour>
	</outline>
</glyph>
<glyph name="F.alt1" format="2">
	<advance width="559"/>
	<outline>
		<contour>
			<point x="163" y="163.2337008376" type="curve" smooth="yes"/>
			<point x="160" y="256.2337008376"/>
			<point x="190" y="407.2337008376"/>
			<point x="207" y="497.2337008376" type="curve" smooth="yes"/>
			<point x="211" y="525.2337008376"/>
			<point x="210" y="545.2337008376"/>
			<point x="192" y="545.2337008376" type="curve" smooth="yes"/>
			<point x="163" y="545.2337008376"/>
			<point x="145" y="525.2337008376"/>
			<point x="132" y="465.2337008376" type="curve" smooth="yes"/>
			<point x="112" y="376.2337008376"/>
			<point x="95" y="269.2337008376"/>
			<point x="95" y="187.2337008376" type="curve" smooth="yes"/>
			<point x="95" y="68.2337008376"/>
			<point x="111" y="10.2337008376"/>
			<point x="136" y="-43.7662991624" type="curve" smooth="yes"/>
			<point x="161" y="-98.7662991624"/>
			<point x="175" y="-116.7662991624"/>
			<point x="201" y="-116.7662991624" type="curve" smooth="yes"/>
			<point x="218" y="-116.7662991624"/>
			<point x="227" y="-102.7662991624"/>
			<point x="227" y="-84.7662991624" type="curve" smooth="yes"/>
			<point x="227" y="-45.7662991624"/>
			<point x="168" y="-10.7662991624"/>
		</contour>
		<contour>
			<point x="128" y="507.2337008376"/>
			<point x="260" y="539.2337008376"/>
			<point x="472" y="539.2337008376" type="curve" smooth="yes"/>
			<point x="505" y="539.2337008376"/>
			<point x="516" y="547.2337008376"/>
			<point x="516" y="564.2337008376" type="curve" smooth="yes"/>
			<point x="516" y="588.2337008376"/>
			<point x="495" y="604.2337008376"/>
			<point x="455" y="604.2337008376" type="curve" smooth="yes"/>
			<point x="336" y="604.2337008376"/>
			<point x="168" y="588.2337008376"/>
			<point x="71" y="568.2337008376" type="curve" smooth="yes"/>
			<point x="50" y="563.2337008376"/>
			<point x="43" y="551.2337008376"/>
			<point x="43" y="535.2337008376" type="curve" smooth="yes"/>
			<point x="43" y="519.2337008376"/>
			<point x="59" y="507.2337008376"/>
			<point x="84" y="507.2337008376" type="curve" smooth="yes"/>
		</contour>
		<contour>
			<point x="189" y="196.2337008376" type="curve" smooth="yes"/>
			<point x="241" y="206.2337008376"/>
			<point x="283" y="208.2337008376"/>
			<point x="381" y="215.2337008376" type="curve" smooth="yes"/>
			<point x="446" y="220.2337008376"/>
			<point x="470" y="230.2337008376"/>
			<point x="470" y="258.2337008376" type="curve"/>
			<point x="470" y="278.2337008376"/>
			<point x="458" y="282.2337008376"/>
			<point x="418" y="282.2337008376" type="curve" smooth="yes"/>
			<point x="343" y="281.2337008376"/>
			<point x="247" y="272.2337008376"/>
			<point x="171" y="261.2337008376" type="curve" smooth="yes"/>
			<point x="129" y="255.2337008376"/>
			<point x="118" y="244.2337008376"/>
			<point x="118" y="219.2337008376" type="curve" smooth="yes"/>
			<point x="118" y="209.2337008376"/>
			<point x="127" y="184.2337008376"/>
		</contour>
	</outline>
</glyph>
<glyph name="G.alt2" format="2">
	<advance width="742"/>
	<outline>
		<contour>
			<point x="353" y="442.9883888383" type="curve" smooth="yes"/>
			<point x="401" y="442.9883888383"/>
			<point x="493" y="484.9883888383"/>
			<point x="672" y="484.9883888383" type="curve" smooth="yes"/>
			<point x="701" y="484.9883888383"/>
			<point x="714" y="499.9883888383"/>
			<point x="714" y="513.9883888383" type="curve" smooth="yes"/>
			<point x="714" y="534.9883888383"/>
			<point x="704" y="551.9883888383"/>
			<point x="654" y="551.9883888383" type="curve" smooth="yes"/>
			<point x="568" y="551.9883888383"/>
			<point x="476" y="536.9883888383"/>
			<point x="382" y="514.9883888383" type="curve" smooth="yes"/>
			<point x="332" y="502.9883888383"/>
			<point x="319" y="487.9883888383"/>
			<point x="319" y="471.9883888383" type="curve" smooth="yes"/>
			<point x="319" y="454.9883888383"/>
			<point x="329" y="442.9883888383"/>
		</contour>
		<contour>
			<point x="657" y="72.9883888383" type="curve" smooth="yes"/>
			<point x="672" y="72.9883888383"/>
			<point x="681" y="81.9883888383"/>
			<point x="681" y="96.9883888383" type="curve"/>
			<point x="681" y="111.9883888383"/>
			<point x="677" y="128.9883888383"/>
			<point x="661" y="165.9883888383" type="curve" smooth="yes"/>
			<point x="628" y="238.9883888383"/>
			<point x="605" y="340.9883888383"/>
			<point x="605" y="466.9883888383" type="curve" smooth="yes"/>
			<point x="605" y="498.9883888383"/>
			<point x="592" y="517.9883888383"/>
			<point x="571" y="517.9883888383" type="curve" smooth="yes"/>
			<point x="539" y="517.9883888383"/>
			<point x="523" y="505.9883888383"/>
			<point x="509" y="471.9883888383" type="curve" smooth="yes"/>
			<point x="444" y="313.9883888383"/>
			<point x="376" y="224.9883888383"/>
			<point x="274" y="224.9883888383" type="curve" smooth="yes"/>
			<point x="193" y="224.9883888383"/>
			<point x="133" y="285.9883888383"/>
			<point x="133" y="406.9883888383" type="curve" smooth="yes"/>
			<point x="133" y="600.9883888383"/>
			<point x="323" y="811.9883888383"/>
			<point x="489" y="811.9883888383" type="curve" smooth="yes"/>
			<point x="513" y="811.9883888383"/>
			<point x="520" y="802.9883888383"/>
			<point x="520" y="789.9883888383" type="curve" smooth="yes"/>
			<point x="520" y="760.9883888383"/>
			<point x="503" y="709.9883888383"/>
			<point x="535" y="709.9883888383" type="curve" smooth="yes"/>
			<point x="563" y="709.9883888383"/>
			<point x="589" y="745.9883888383"/>
			<point x="589" y="803.9883888383" type="curve" smooth="yes"/>
			<point x="589" y="843.9883888383"/>
			<point x="562" y="877.9883888383"/>
			<point x="495" y="877.9883888383" type="curve" smooth="yes"/>
			<point x="288" y="877.9883888383"/>
			<point x="65" y="650.9883888383"/>
			<point x="65" y="407.9883888383" type="curve" smooth="yes"/>
			<point x="65" y="235.9883888383"/>
			<point x="156" y="159.9883888383"/>
			<point x="277" y="159.9883888383" type="curve" smooth="yes"/>
			<point x="381" y="159.9883888383"/>
			<point x="482" y="219.9883888383"/>
			<point x="569" y="459.9883888383" type="curve"/>
			<point x="540" y="461.9883888383" type="line"/>
			<point x="544" y="273.9883888383"/>
			<point x="580" y="167.9883888383"/>
			<point x="600" y="126.9883888383" type="curve" smooth="yes"/>
			<point x="617" y="88.9883888383"/>
			<point x="632" y="72.9883888383"/>
		</contour>
	</outline>
</glyph>
<glyph name="J.alt2" format="2">
	<advance width="584"/>
	<outline>
		<contour>
			<point x="279" y="95.0848085085" type="curve" smooth="yes"/>
			<point x="429" y="95.0848085085"/>
			<point x="510" y="157.0848085085"/>
			<point x="510" y="293.0848085085" type="curve" smooth="yes"/>
			<point x="510" y="407.0848085085"/>
			<point x="468" y="603.0848085085"/>
			<point x="421" y="729.0848085085" type="curve" smooth="yes"/>
			<point x="407" y="769.0848085085"/>
			<point x="392" y="783.0848085085"/>
			<point x="358" y="783.0848085085" type="curve" smooth="yes"/>
			<point x="332" y="783.0848085085"/>
			<point x="334" y="751.0848085085"/>
			<point x="346" y="722.0848085085" type="curve" smooth="yes"/>
			<point x="395" y="603.0848085085"/>
			<point x="442" y="403.0848085085"/>
			<point x="442" y="299.0848085085" type="curve" smooth="yes"/>
			<point x="442" y="204.0848085085"/>
			<point x="402" y="160.0848085085"/>
			<point x="279" y="160.0848085085" type="curve" smooth="yes"/>
			<point x="185" y="160.0848085085"/>
			<point x="144" y="208.0848085085"/>
			<point x="144" y="280.0848085085" type="curve" smooth="yes"/>
			<point x="144" y="324.0848085085"/>
			<point x="176" y="339.0848085085"/>
			<point x="176" y="365.0848085085" type="curve" smooth="yes"/>
			<point x="176" y="381.0848085085"/>
			<point x="168" y="388.0848085085"/>
			<point x="154" y="388.0848085085" type="curve" smooth="yes"/>
			<point x="123" y="388.0848085085"/>
			<point x="76" y="328.0848085085"/>
			<point x="76" y="268.0848085085" type="curve" smooth="yes"/>
			<point x="76" y="160.0848085085"/>
			<point x="159" y="95.0848085085"/>
		</contour>
		<contour>
			<point x="145" y="741.0848085085" type="curve" smooth="yes"/>
			<point x="225" y="741.0848085085"/>
			<point x="351" y="753.0848085085"/>
			<point x="481" y="753.0848085085" type="curve" smooth="yes"/>
			<point x="514" y="753.0848085085"/>
			<point x="531" y="764.0848085085"/>
			<point x="531" y="783.0848085085" type="curve" smooth="yes"/>
			<point x="531" y="812.0848085085"/>
			<point x="507" y="819.0848085085"/>
			<point x="485" y="819.0848085085" type="curve" smooth="yes"/>
			<point x="339" y="819.0848085085"/>
			<point x="265" y="807.0848085085"/>
			<point x="160" y="807.0848085085" type="curve" smooth="yes"/>
			<point x="119" y="807.0848085085"/>
			<point x="113" y="820.0848085085"/>
			<point x="86" y="820.0848085085" type="curve" smooth="yes"/>
			<point x="68" y="820.0848085085"/>
			<point x="58" y="810.0848085085"/>
			<point x="58" y="794.0848085085" type="curve" smooth="yes"/>
			<point x="58" y="756.0848085085"/>
			<point x="109" y="741.0848085085"/>
		</contour>
	</outline>
</glyph>
<glyph name="L.alt1" format="2">
	<advance width="556"/>
	<outline>
		<contour>
			<point x="286" y="-103.2594449381" type="curve" smooth="yes"/>
			<point x="367.3605150215" y="-103.2594449381"/>
			<point x="437.6412760438" y="-88.0794516448"/>
			<point x="499" y="-59.2594449381" type="curve" smooth="yes"/>
			<point x="516" y="-51.2594449381"/>
			<point x="527" y="-35.2594449381"/>
			<point x="527" y="-19.2594449381" type="curve" smooth="yes"/>
			<point x="527" y="-3.2594449381"/>
			<point x="517" y="6.7405550619"/>
			<point x="500" y="6.7405550619" type="curve" smooth="yes"/>
			<point x="469.8571428571" y="6.7405550619"/>
			<point x="432" y="-38.2594449381"/>
			<point x="289" y="-38.2594449381" type="curve" smooth="yes"/>
			<point x="185" y="-38.2594449381"/>
			<point x="144" y="35.7405550619"/>
			<point x="144" y="149.7405550619" type="curve" smooth="yes"/>
			<point x="144" y="304.7405550619"/>
			<point x="194" y="414.7405550619"/>
			<point x="194" y="549.7405550619" type="curve" smooth="yes"/>
			<point x="194" y="596.7405550619"/>
			<point x="179.7391304348" y="615.7405550619"/>
			<point x="153" y="615.7405550619" type="curve" smooth="yes"/>
			<point x="128.2380952381" y="615.7405550619"/>
			<point x="127" y="598.7405550619"/>
			<point x="127" y="563.7405550619" type="curve" smooth="yes"/>
			<point x="127" y="428.7405550619"/>
			<point x="76" y="314.6196482609"/>
			<point x="76" y="156.7405550619" type="curve" smooth="yes"/>
			<point x="76" y="-11.2594449381"/>
			<point x="150.0526315789" y="-103.2594449381"/>
		</contour>
	</outline>
</glyph>
<glyph name="M.alt1" format="2">
	<advance width="916"/>
	<outline>
		<contour>
			<point x="183" y="345.5943356199" type="curve" smooth="yes"/>
			<point x="191" y="223.5943356199"/>
			<point x="157" y="228.5943356199"/>
			<point x="174" y="346.5943356199" type="curve" smooth="yes"/>
			<point x="197" y="506.5943356199"/>
			<point x="232" y="577.5943356199"/>
			<point x="282" y="577.5943356199" type="curve" smooth="yes"/>
			<point x="352" y="577.5943356199"/>
			<point x="375" y="406.5943356199"/>
			<point x="413" y="108.5943356199" type="curve" smooth="yes"/>
			<point x="417" y="78.5943356199"/>
			<point x="431" y="0.5943356199"/>
			<point x="463" y="-62.4056643801" type="curve" smooth="yes"/>
			<point x="480" y="-95.4056643801"/>
			<point x="412" y="-127.4056643801"/>
			<point x="440" y="-71.4056643801" type="curve" smooth="yes"/>
			<point x="521" y="77.5943356199"/>
			<point x="548" y="322.5943356199"/>
			<point x="595" y="438.5943356199" type="curve" smooth="yes"/>
			<point x="634" y="534.5943356199"/>
			<point x="664" y="571.5943356199"/>
			<point x="693" y="571.5943356199" type="curve" smooth="yes"/>
			<point x="726" y="571.5943356199"/>
			<point x="776" y="526.5943356199"/>
			<point x="785" y="314.5943356199" type="curve" smooth="yes"/>
			<point x="791" y="181.5943356199"/>
			<point x="818" y="35.5943356199"/>
			<point x="861" y="-84.4056643801" type="curve" smooth="yes"/>
			<point x="875" y="-127.4056643801"/>
			<point x="861" y="-140.4056643801"/>
			<point x="838" y="-140.4056643801" type="curve" smooth="yes"/>
			<point x="817" y="-140.4056643801"/>
			<point x="805" y="-123.4056643801"/>
			<point x="783" y="-66.4056643801" type="curve" smooth="yes"/>
			<point x="752" y="15.5943356199"/>
			<point x="725" y="177.5943356199"/>
			<point x="720" y="299.5943356199" type="curve" smooth="yes"/>
			<point x="716" y="389.5943356199"/>
			<point x="703" y="434.5943356199"/>
			<point x="678" y="479.5943356199" type="curve" smooth="yes"/>
			<point x="653" y="524.5943356199"/>
			<point x="761" y="556.5943356199"/>
			<point x="689" y="470.5943356199" type="curve" smooth="yes"/>
			<point x="609" y="372.5943356199"/>
			<point x="612" y="115.5943356199"/>
			<point x="501" y="-106.4056643801" type="curve" smooth="yes"/>
			<point x="490" y="-128.4056643801"/>
			<point x="482" y="-140.4056643801"/>
			<point x="458" y="-140.4056643801" type="curve" smooth="yes"/>
			<point x="438" y="-140.4056643801"/>
			<point x="425" y="-129.4056643801"/>
			<point x="408" y="-102.4056643801" type="curve" smooth="yes"/>
			<point x="365" y="-30.4056643801"/>
			<point x="342" y="103.5943356199"/>
			<point x="324" y="241.5943356199" type="curve" smooth="yes"/>
			<point x="313" y="338.5943356199"/>
			<point x="294" y="427.5943356199"/>
			<point x="269" y="499.5943356199" type="curve" smooth="yes"/>
			<point x="242" y="580.5943356199"/>
			<point x="320" y="596.5943356199"/>
			<point x="277" y="501.5943356199" type="curve" smooth="yes"/>
			<point x="225" y="376.5943356199"/>
			<point x="192" y="159.5943356199"/>
			<point x="192" y="-99.4056643801" type="curve" smooth="yes"/>
			<point x="192" y="-129.4056643801"/>
			<point x="180" y="-143.4056643801"/>
			<point x="164" y="-143.4056643801" type="curve" smooth="yes"/>
			<point x="142" y="-143.4056643801"/>
			<point x="113" y="-124.4056643801"/>
			<point x="113" y="6.5943356199" type="curve" smooth="yes"/>
			<point x="113" y="112.5943356199"/>
			<point x="123" y="181.5943356199"/>
			<point x="123" y="254.5943356199" type="curve" smooth="yes"/>
			<point x="123" y="421.5943356199"/>
			<point x="89" y="454.5943356199"/>
			<point x="89" y="490.5943356199" type="curve" smooth="yes"/>
			<point x="89" y="507.5943356199"/>
			<point x="98" y="516.5943356199"/>
			<point x="115" y="516.5943356199" type="curve" smooth="yes"/>
			<point x="152" y="516.5943356199"/>
			<point x="177" y="443.5943356199"/>
		</contour>
	</outline>
</glyph>
<glyph name="N.alt1" format="2">
	<advance width="754"/>
	<outline>
		<contour>
			<point x="117" y="-195.3889443978" type="curve" smooth="yes"/>
			<point x="135" y="-195.3889443978"/>
			<point x="148" y="-179.3889443978"/>
			<point x="154" y="-158.3889443978" type="curve" smooth="yes"/>
			<point x="182" y="-73.3889443978"/>
			<point x="193" y="29.6110556022"/>
			<point x="193" y="154.6110556022" type="curve" smooth="yes"/>
			<point x="193" y="232.6110556022"/>
			<point x="188" y="327.6110556022"/>
			<point x="175" y="453.6110556022" type="curve"/>
			<point x="164" y="449.6110556022" type="line"/>
			<point x="353" y="298.6110556022"/>
			<point x="374.4777227723" y="-197.3889443978"/>
			<point x="567" y="-197.3889443978" type="curve" smooth="yes"/>
			<point x="645" y="-197.3889443978"/>
			<point x="658" y="-91.3889443978"/>
			<point x="658" y="54.6110556022" type="curve" smooth="yes"/>
			<point x="658" y="203.6110556022"/>
			<point x="643" y="318.6110556022"/>
			<point x="669" y="447.6110556022" type="curve" smooth="yes"/>
			<point x="676" y="484.6110556022"/>
			<point x="663" y="517.6110556022"/>
			<point x="638" y="517.6110556022" type="curve" smooth="yes"/>
			<point x="617" y="517.6110556022"/>
			<point x="606" y="504.6110556022"/>
			<point x="599" y="472.6110556022" type="curve" smooth="yes"/>
			<point x="572" y="350.6110556022"/>
			<point x="588" y="206.6110556022"/>
			<point x="588" y="49.6110556022" type="curve" smooth="yes"/>
			<point x="588" y="-43.5351432282"/>
			<point x="582" y="-86.3889443978"/>
			<point x="553" y="-131.3889443978" type="curve"/>
			<point x="576" y="-119.3889443978" type="line"/>
			<point x="432" y="-121.3889443978"/>
			<point x="354" y="522.6110556022"/>
			<point x="156" y="522.6110556022" type="curve" smooth="yes"/>
			<point x="124" y="522.6110556022"/>
			<point x="107" y="490.6110556022"/>
			<point x="107" y="450.6110556022" type="curve" smooth="yes"/>
			<point x="107" y="417.6110556022"/>
			<point x="123" y="269.6110556022"/>
			<point x="123" y="154.6110556022" type="curve" smooth="yes"/>
			<point x="123" y="-47.3889443978"/>
			<point x="83" y="-91.3889443978"/>
			<point x="83" y="-144.3889443978" type="curve" smooth="yes"/>
			<point x="83" y="-183.3889443978"/>
			<point x="99" y="-195.3889443978"/>
		</contour>
	</outline>
</glyph>
<glyph name="N.alt2" format="2">
	<advance width="754"/>
	<outline>
		<contour>
			<point x="117" y="66.6746015995" type="curve" smooth="yes"/>
			<point x="135" y="66.6746015995"/>
			<point x="148" y="82.6746015995"/>
			<point x="154" y="103.6746015995" type="curve" smooth="yes"/>
			<point x="182" y="188.6746015995"/>
			<point x="193" y="291.6746015995"/>
			<point x="193" y="416.6746015995" type="curve" smooth="yes"/>
			<point x="193" y="494.6746015995"/>
			<point x="188" y="589.6746015995"/>
			<point x="175" y="715.6746015995" type="curve"/>
			<point x="164" y="711.6746015995" type="line"/>
			<point x="353" y="560.6746015995"/>
			<point x="374.4777227723" y="64.6746015995"/>
			<point x="567" y="64.6746015995" type="curve" smooth="yes"/>
			<point x="645" y="64.6746015995"/>
			<point x="658" y="170.6746015995"/>
			<point x="658" y="316.6746015995" type="curve" smooth="yes"/>
			<point x="658" y="465.6746015995"/>
			<point x="643" y="580.6746015995"/>
			<point x="669" y="709.6746015995" type="curve" smooth="yes"/>
			<point x="676" y="746.6746015995"/>
			<point x="663" y="779.6746015995"/>
			<point x="638" y="779.6746015995" type="curve" smooth="yes"/>
			<point x="617" y="779.6746015995"/>
			<point x="606" y="766.6746015995"/>
			<point x="599" y="734.6746015995" type="curve" smooth="yes"/>
			<point x="572" y="612.6746015995"/>
			<point x="588" y="468.6746015995"/>
			<point x="588" y="311.6746015995" type="curve" smooth="yes"/>
			<point x="588" y="218.5284027691"/>
			<point x="582" y="175.6746015995"/>
			<point x="553" y="130.6746015995" type="curve"/>
			<point x="576" y="142.6746015995" type="line"/>
			<point x="432" y="140.6746015995"/>
			<point x="354" y="784.6746015995"/>
			<point x="156" y="784.6746015995" type="curve" smooth="yes"/>
			<point x="124" y="784.6746015995"/>
			<point x="107" y="752.6746015995"/>
			<point x="107" y="712.6746015995" type="curve" smooth="yes"/>
			<point x="107" y="679.6746015995"/>
			<point x="123" y="531.6746015995"/>
			<point x="123" y="416.6746015995" type="curve" smooth="yes"/>
			<point x="123" y="214.6746015995"/>
			<point x="83" y="170.6746015995"/>
			<point x="83" y="117.6746015995" type="curve" smooth="yes"/>
			<point x="83" y="78.6746015995"/>
			<point x="99" y="66.6746015995"/>
		</contour>
	</outline>
</glyph>
<glyph name="O.alt2" format="2">
	<advance width="726"/>
	<outline>
		<contour>
			<point x="276" y="629.6519839301" type="curve" smooth="yes"/>
			<point x="225" y="595.6519839301"/>
			<point x="140" y="505.6519839301"/>
			<point x="140" y="352.6519839301" type="curve" smooth="yes"/>
			<point x="140" y="231.6519839301"/>
			<point x="205" y="118.6519839301"/>
			<point x="347" y="118.6519839301" type="curve" smooth="yes"/>
			<point x="484" y="118.6519839301"/>
			<point x="586" y="213.6519839301"/>
			<point x="586" y="362.6519839301" type="curve" smooth="yes"/>
			<point x="586" y="524.6519839301"/>
			<point x="512" y="708.6519839301"/>
			<point x="361" y="708.6519839301" type="curve" smooth="yes"/>
			<point x="326" y="708.6519839301"/>
			<point x="315" y="679.6519839301"/>
			<point x="315" y="642.6519839301" type="curve" smooth="yes"/>
			<point x="315" y="612.6519839301"/>
			<point x="298" y="597.6519839301"/>
			<point x="280" y="597.6519839301" type="curve" smooth="yes"/>
			<point x="262" y="597.6519839301"/>
			<point x="243" y="613.6519839301"/>
			<point x="243" y="642.6519839301" type="curve" smooth="yes"/>
			<point x="243" y="711.6519839301"/>
			<point x="283" y="773.6519839301"/>
			<point x="354" y="773.6519839301" type="curve" smooth="yes"/>
			<point x="550" y="773.6519839301"/>
			<point x="656" y="588.6519839301"/>
			<point x="656" y="362.6519839301" type="curve" smooth="yes"/>
			<point x="656" y="189.6519839301"/>
			<point x="535" y="52.6519839301"/>
			<point x="347" y="52.6519839301" type="curve" smooth="yes"/>
			<point x="166" y="52.6519839301"/>
			<point x="70" y="193.6519839301"/>
			<point x="70" y="352.6519839301" type="curve" smooth="yes"/>
			<point x="70" y="581.6519839301"/>
			<point x="245" y="707.6519839301"/>
			<point x="279" y="707.6519839301" type="curve" smooth="yes"/>
			<point x="287" y="707.6519839301"/>
			<point x="295" y="705.6519839301"/>
			<point x="305" y="692.6519839301" type="curve" smooth="yes"/>
			<point x="322" y="667.6519839301"/>
			<point x="303" y="646.6519839301"/>
		</contour>
	</outline>
</glyph>
<glyph name="P.alt2" format="2">
	<advance width="570"/>
	<outline>
		<contour>
			<point x="138" y="135.7033780146" type="curve" smooth="yes"/>
			<point x="138" y="96.7033780146"/>
			<point x="152" y="78.7033780146"/>
			<point x="171" y="78.7033780146" type="curve" smooth="yes"/>
			<point x="192" y="78.7033780146"/>
			<point x="205" y="92.7033780146"/>
			<point x="205" y="113.7033780146" type="curve" smooth="yes"/>
			<point x="205" y="321.7033780146"/>
			<point x="140" y="429.7033780146"/>
			<point x="140" y="554.7033780146" type="curve" smooth="yes"/>
			<point x="140" y="669.7033780146"/>
			<point x="193" y="731.7033780146"/>
			<point x="298" y="731.7033780146" type="curve" smooth="yes"/>
			<point x="381" y="731.7033780146"/>
			<point x="458" y="677.7033780146"/>
			<point x="458" y="568.7033780146" type="curve" smooth="yes"/>
			<point x="458" y="477.7033780146"/>
			<point x="377" y="396.7033780146"/>
			<point x="256" y="396.7033780146" type="curve" smooth="yes"/>
			<point x="197" y="396.7033780146"/>
			<point x="185" y="414.7033780146"/>
			<point x="158" y="414.7033780146" type="curve" smooth="yes"/>
			<point x="147" y="414.7033780146"/>
			<point x="139" y="406.7033780146"/>
			<point x="139" y="391.7033780146" type="curve" smooth="yes"/>
			<point x="139" y="360.7033780146"/>
			<point x="189" y="331.7033780146"/>
			<point x="259" y="331.7033780146" type="curve" smooth="yes"/>
			<point x="416" y="331.7033780146"/>
			<point x="525" y="448.7033780146"/>
			<point x="525" y="568.7033780146" type="curve" smooth="yes"/>
			<point x="525" y="713.7033780146"/>
			<point x="423" y="796.7033780146"/>
			<point x="299" y="796.7033780146" type="curve" smooth="yes"/>
			<point x="141" y="796.7033780146"/>
			<point x="73" y="698.7033780146"/>
			<point x="73" y="554.7033780146" type="curve" smooth="yes"/>
			<point x="73" y="423.7033780146"/>
			<point x="138" y="307.7033780146"/>
		</contour>
	</outline>
</glyph>
<glyph name="Q.alt1" format="2">
	<advance width="716"/>
	<outline>
		<contour>
			<point x="441" y="135.9907976393" type="curve" smooth="yes"/>
			<point x="471" y="91.9907976393"/>
			<point x="541" y="-69.0092023607"/>
			<point x="643" y="-198.0092023607" type="curve" smooth="yes"/>
			<point x="669" y="-230.0092023607"/>
			<point x="651" y="-247.0092023607"/>
			<point x="639" y="-247.0092023607" type="curve" smooth="yes"/>
			<point x="617" y="-247.0092023607"/>
			<point x="602" y="-240.0092023607"/>
			<point x="572" y="-208.0092023607" type="curve" smooth="yes"/>
			<point x="498" y="-130.0092023607"/>
			<point x="421" y="51.9907976393"/>
			<point x="367" y="130.9907976393" type="curve" smooth="yes"/>
			<point x="342" y="165.9907976393"/>
			<point x="343" y="192.9907976393"/>
			<point x="370" y="192.9907976393" type="curve" smooth="yes"/>
			<point x="399" y="192.9907976393"/>
			<point x="411" y="179.9907976393"/>
		</contour>
		<contour>
			<point x="218" y="431.9907976393" type="curve" smooth="yes"/>
			<point x="166" y="379.9907976393"/>
			<point x="137" y="265.9907976393"/>
			<point x="137" y="169.9907976393" type="curve" smooth="yes"/>
			<point x="137" y="35.9907976393"/>
			<point x="197" y="-87.0092023607"/>
			<point x="360" y="-87.0092023607" type="curve" smooth="yes"/>
			<point x="494" y="-87.0092023607"/>
			<point x="577" y="39.9907976393"/>
			<point x="577" y="171.9907976393" type="curve" smooth="yes"/>
			<point x="577" y="340.9907976393"/>
			<point x="509" y="500.9907976393"/>
			<point x="384" y="500.9907976393" type="curve" smooth="yes"/>
			<point x="331" y="500.9907976393"/>
			<point x="264" y="454.9907976393"/>
			<point x="223" y="375.9907976393" type="curve" smooth="yes"/>
			<point x="207" y="344.9907976393"/>
			<point x="192" y="334.9907976393"/>
			<point x="169" y="334.9907976393" type="curve" smooth="yes"/>
			<point x="161" y="334.9907976393"/>
			<point x="156" y="343.9907976393"/>
			<point x="156" y="355.9907976393" type="curve" smooth="yes"/>
			<point x="156" y="444.9907976393"/>
			<point x="277" y="565.9907976393"/>
			<point x="399" y="565.9907976393" type="curve" smooth="yes"/>
			<point x="532" y="565.9907976393"/>
			<point x="644" y="402.9907976393"/>
			<point x="644" y="183.9907976393" type="curve" smooth="yes"/>
			<point x="644" y="0.9907976393"/>
			<point x="539" y="-152.0092023607"/>
			<point x="360" y="-152.0092023607" type="curve" smooth="yes"/>
			<point x="147" y="-152.0092023607"/>
			<point x="70" y="0.9907976393"/>
			<point x="70" y="169.9907976393" type="curve" smooth="yes"/>
			<point x="70" y="394.9907976393"/>
			<point x="191" y="510.9907976393"/>
			<point x="233" y="510.9907976393" type="curve" smooth="yes"/>
			<point x="256" y="510.9907976393"/>
			<point x="264" y="495.9907976393"/>
			<point x="264" y="482.9907976393" type="curve" smooth="yes"/>
			<point x="264" y="465.9907976393"/>
			<point x="246" y="459.9907976393"/>
		</contour>
	</outline>
</glyph>
<glyph name="R.alt2" format="2">
	<advance width="700"/>
	<outline>
		<contour>
			<point x="97" y="801.6033665156" type="curve" smooth="yes"/>
			<point x="67" y="801.6033665156"/>
			<point x="63" y="783.6033665156"/>
			<point x="80" y="740.6033665156" type="curve" smooth="yes"/>
			<point x="111" y="663.6033665156"/>
			<point x="116" y="620.6033665156"/>
			<point x="121" y="565.6033665156" type="curve"/>
			<point x="86" y="442.6033665156"/>
			<point x="70" y="351.6033665156"/>
			<point x="70" y="276.6033665156" type="curve" smooth="yes"/>
			<point x="70" y="200.6033665156"/>
			<point x="80" y="157.6033665156"/>
			<point x="114" y="157.6033665156" type="curve" smooth="yes"/>
			<point x="133" y="157.6033665156"/>
			<point x="137" y="165.6033665156"/>
			<point x="137" y="238.6033665156" type="curve" smooth="yes"/>
			<point x="137" y="513.6033665156"/>
			<point x="252" y="815.6033665156"/>
			<point x="455" y="815.6033665156" type="curve" smooth="yes"/>
			<point x="528" y="815.6033665156"/>
			<point x="556" y="770.6033665156"/>
			<point x="556" y="717.6033665156" type="curve" smooth="yes"/>
			<point x="556" y="635.6033665156"/>
			<point x="479" y="542.6033665156"/>
			<point x="232" y="451.6033665156" type="curve" smooth="yes"/>
			<point x="189" y="435.6033665156"/>
			<point x="182" y="409.6033665156"/>
			<point x="205" y="378.6033665156" type="curve" smooth="yes"/>
			<point x="284" y="276.6033665156"/>
			<point x="526" y="158.6033665156"/>
			<point x="600" y="158.6033665156" type="curve" smooth="yes"/>
			<point x="632" y="158.6033665156"/>
			<point x="644" y="167.6033665156"/>
			<point x="644" y="189.6033665156" type="curve" smooth="yes"/>
			<point x="644" y="204.6033665156"/>
			<point x="634" y="215.6033665156"/>
			<point x="590" y="230.6033665156" type="curve" smooth="yes"/>
			<point x="448" y="277.6033665156"/>
			<point x="334" y="345.6033665156"/>
			<point x="274" y="402.6033665156" type="curve"/>
			<point x="564" y="507.6033665156"/>
			<point x="626" y="620.6033665156"/>
			<point x="626" y="718.6033665156" type="curve" smooth="yes"/>
			<point x="626" y="809.6033665156"/>
			<point x="577" y="880.6033665156"/>
			<point x="464" y="880.6033665156" type="curve" smooth="yes"/>
			<point x="338" y="880.6033665156"/>
			<point x="226" y="807.6033665156"/>
			<point x="149" y="623.6033665156" type="curve"/>
			<point x="173" y="632.6033665156" type="line"/>
			<point x="164" y="755.6033665156"/>
			<point x="131" y="801.6033665156"/>
		</contour>
	</outline>
</glyph>
<glyph name="S.alt2" format="2">
	<advance width="561"/>
	<outline>
		<contour>
			<point x="162" y="61.0163478235" type="curve" smooth="yes"/>
			<point x="332.4081632653" y="61.0163478235"/>
			<point x="496" y="106.0163478235"/>
			<point x="496" y="197.0163478235" type="curve" smooth="yes"/>
			<point x="496" y="356.3734906806"/>
			<point x="136" y="373.2000212929"/>
			<point x="136" y="488.0163478235" type="curve" smooth="yes"/>
			<point x="136" y="580.262923166"/>
			<point x="250.1377567228" y="669.2384812789"/>
			<point x="459" y="710.0163478235" type="curve" smooth="yes"/>
			<point x="492.6994143525" y="716.1435140694"/>
			<point x="504" y="727.542663613"/>
			<point x="504" y="747.0163478235" type="curve" smooth="yes"/>
			<point x="504" y="767.6413478235"/>
			<point x="490.4210526316" y="780.0163478235"/>
			<point x="461" y="780.0163478235" type="curve" smooth="yes"/>
			<point x="337.5664160401" y="780.0163478235"/>
			<point x="67" y="659.0163478235"/>
			<point x="67" y="485.0163478235" type="curve" smooth="yes"/>
			<point x="67" y="317.0163478235"/>
			<point x="406" y="315.0163478235"/>
			<point x="425" y="191.0163478235" type="curve"/>
			<point x="383" y="153.0163478235"/>
			<point x="290" y="129.0163478235"/>
			<point x="154" y="129.0163478235" type="curve" smooth="yes"/>
			<point x="108" y="129.0163478235"/>
			<point x="100" y="139.0163478235"/>
			<point x="72" y="139.0163478235" type="curve" smooth="yes"/>
			<point x="52" y="139.0163478235"/>
			<point x="43" y="130.0163478235"/>
			<point x="43" y="114.0163478235" type="curve" smooth="yes"/>
			<point x="43" y="83.0163478235"/>
			<point x="81.75" y="61.0163478235"/>
		</contour>
	</outline>
</glyph>
<glyph name="T.alt1" format="2">
	<advance width="647"/>
	<outline>
		<contour>
			<point x="295" y="546.6202642742" type="curve" smooth="yes"/>
			<point x="271" y="264.6202642742"/>
			<point x="283" y="100.6202642742"/>
			<point x="292" y="19.6202642742" type="curve" smooth="yes"/>
			<point x="301" y="-60.3797357258"/>
			<point x="322" y="-82.3797357258"/>
			<point x="345" y="-82.3797357258" type="curve" smooth="yes"/>
			<point x="360" y="-82.3797357258"/>
			<point x="371" y="-75.3797357258"/>
			<point x="371" y="-56.3797357258" type="curve" smooth="yes"/>
			<point x="371" y="-13.3797357258"/>
			<point x="333" y="97.6202642742"/>
			<point x="357" y="474.6202642742" type="curve" smooth="yes"/>
			<point x="362" y="562.6202642742"/>
			<point x="355" y="590.6202642742"/>
			<point x="324" y="590.6202642742" type="curve" smooth="yes"/>
			<point x="307" y="590.6202642742"/>
			<point x="297" y="572.6202642742"/>
		</contour>
		<contour>
			<point x="134" y="569.6202642742" type="curve" smooth="yes"/>
			<point x="262" y="565.6202642742"/>
			<point x="337" y="564.6202642742"/>
			<point x="489" y="564.6202642742" type="curve" smooth="yes"/>
			<point x="553" y="564.6202642742"/>
			<point x="618" y="580.6202642742"/>
			<point x="618" y="615.6202642742" type="curve" smooth="yes"/>
			<point x="618" y="630.6202642742"/>
			<point x="608" y="641.6202642742"/>
			<point x="586" y="641.6202642742" type="curve" smooth="yes"/>
			<point x="555" y="641.6202642742"/>
			<point x="545" y="630.6202642742"/>
			<point x="452" y="630.6202642742" type="curve" smooth="yes"/>
			<point x="317" y="630.6202642742"/>
			<point x="245" y="636.6202642742"/>
			<point x="80" y="636.6202642742" type="curve" smooth="yes"/>
			<point x="52" y="636.6202642742"/>
			<point x="41" y="627.6202642742"/>
			<point x="41" y="615.6202642742" type="curve" smooth="yes"/>
			<point x="41" y="594.0293551833"/>
			<point x="56" y="571.6202642742"/>
		</contour>
	</outline>
</glyph>
<glyph name="T.alt2" format="2">
	<advance width="647"/>
	<outline>
		<contour>
			<point x="295" y="771.8022356412" type="curve" smooth="yes"/>
			<point x="271" y="489.8022356412"/>
			<point x="283" y="325.8022356412"/>
			<point x="292" y="244.8022356412" type="curve" smooth="yes"/>
			<point x="301" y="164.8022356412"/>
			<point x="322" y="142.8022356412"/>
			<point x="345" y="142.8022356412" type="curve" smooth="yes"/>
			<point x="360" y="142.8022356412"/>
			<point x="371" y="149.8022356412"/>
			<point x="371" y="168.8022356412" type="curve" smooth="yes"/>
			<point x="371" y="211.8022356412"/>
			<point x="333" y="322.8022356412"/>
			<point x="357" y="699.8022356412" type="curve" smooth="yes"/>
			<point x="362" y="787.8022356412"/>
			<point x="355" y="815.8022356412"/>
			<point x="324" y="815.8022356412" type="curve" smooth="yes"/>
			<point x="307" y="815.8022356412"/>
			<point x="297" y="797.8022356412"/>
		</contour>
		<contour>
			<point x="134" y="794.8022356412" type="curve" smooth="yes"/>
			<point x="262" y="790.8022356412"/>
			<point x="337" y="789.8022356412"/>
			<point x="489" y="789.8022356412" type="curve" smooth="yes"/>
			<point x="553" y="789.8022356412"/>
			<point x="618" y="805.8022356412"/>
			<point x="618" y="840.8022356412" type="curve" smooth="yes"/>
			<point x="618" y="855.8022356412"/>
			<point x="608" y="866.8022356412"/>
			<point x="586" y="866.8022356412" type="curve" smooth="yes"/>
			<point x="555" y="866.8022356412"/>
			<point x="545" y="855.8022356412"/>
			<point x="452" y="855.8022356412" type="curve" smooth="yes"/>
			<point x="317" y="855.8022356412"/>
			<point x="245" y="861.8022356412"/>
			<point x="80" y="861.8022356412" type="curve" smooth="yes"/>
			<point x="52" y="861.8022356412"/>
			<point x="41" y="852.8022356412"/>
			<point x="41" y="840.8022356412" type="curve" smooth="yes"/>
			<point x="41" y="819.2113265503"/>
			<point x="56" y="796.8022356412"/>
		</contour>
	</outline>
</glyph>
<glyph name="U.alt1" format="2">
	<advance width="650"/>
	<outline>
		<contour>
			<point x="351" y="-65.1410018361" type="curve" smooth="yes"/>
			<point x="509" y="-65.1410018361"/>
			<point x="581" y="61.8589981639"/>
			<point x="581" y="245.8589981639" type="curve" smooth="yes"/>
			<point x="581" y="318.8589981639"/>
			<point x="576" y="388.8589981639"/>
			<point x="576" y="458.8589981639" type="curve" smooth="yes"/>
			<point x="576" y="565.8589981639"/>
			<point x="588" y="594.8589981639"/>
			<point x="588" y="631.8589981639" type="curve" smooth="yes"/>
			<point x="588" y="653.8589981639"/>
			<point x="578" y="659.8589981639"/>
			<point x="562" y="659.8589981639" type="curve" smooth="yes"/>
			<point x="527" y="659.8589981639"/>
			<point x="506" y="623.8589981639"/>
			<point x="506" y="562.8589981639" type="curve" smooth="yes"/>
			<point x="506" y="445.8589981639"/>
			<point x="514" y="376.8589981639"/>
			<point x="514" y="252.8589981639" type="curve" smooth="yes"/>
			<point x="514" y="79.8589981639"/>
			<point x="464" y="0.8589981639"/>
			<point x="344" y="0.8589981639" type="curve" smooth="yes"/>
			<point x="237" y="0.8589981639"/>
			<point x="152" y="73.8589981639"/>
			<point x="152" y="286.8589981639" type="curve" smooth="yes"/>
			<point x="152" y="343.8589981639"/>
			<point x="159" y="413.8589981639"/>
			<point x="159" y="465.8589981639" type="curve" smooth="yes"/>
			<point x="159" y="608.8589981639"/>
			<point x="126" y="659.8589981639"/>
			<point x="97" y="659.8589981639" type="curve" smooth="yes"/>
			<point x="78" y="659.8589981639"/>
			<point x="67" y="648.8589981639"/>
			<point x="67" y="623.8589981639" type="curve" smooth="yes"/>
			<point x="67" y="577.8589981639"/>
			<point x="91" y="565.8589981639"/>
			<point x="91" y="436.8589981639" type="curve" smooth="yes"/>
			<point x="91" y="398.8589981639"/>
			<point x="86" y="338.8589981639"/>
			<point x="86" y="284.8589981639" type="curve" smooth="yes"/>
			<point x="86" y="73.8589981639"/>
			<point x="165" y="-65.1410018361"/>
		</contour>
	</outline>
</glyph>
<glyph name="W.alt1" format="2">
	<advance width="948"/>
	<outline>
		<contour>
			<point x="131" y="540.7930761538" type="curve" smooth="yes"/>
			<point x="128" y="590.7930761538"/>
			<point x="122" y="615.7930761538"/>
			<point x="91" y="615.7930761538" type="curve" smooth="yes"/>
			<point x="67" y="615.7930761538"/>
			<point x="58" y="591.7930761538"/>
			<point x="60" y="566.7930761538" type="curve" smooth="yes"/>
			<point x="74" y="371.7930761538"/>
			<point x="144" y="71.7930761538"/>
			<point x="206" y="-47.2069238462" type="curve" smooth="yes"/>
			<point x="231" y="-94.2069238462"/>
			<point x="251" y="-104.2069238462"/>
			<point x="276" y="-104.2069238462" type="curve" smooth="yes"/>
			<point x="301" y="-104.2069238462"/>
			<point x="321" y="-85.2069238462"/>
			<point x="325" y="-54.2069238462" type="curve" smooth="yes"/>
			<point x="353" y="146.7930761538"/>
			<point x="397" y="394.7930761538"/>
			<point x="486" y="496.7930761538" type="curve" smooth="yes"/>
			<point x="504" y="516.7930761538"/>
			<point x="454" y="524.7930761538"/>
			<point x="476" y="499.7930761538" type="curve" smooth="yes"/>
			<point x="560" y="401.7930761538"/>
			<point x="539" y="81.7930761538"/>
			<point x="610" y="-36.2069238462" type="curve" smooth="yes"/>
			<point x="650" y="-102.2069238462"/>
			<point x="675" y="-108.2069238462"/>
			<point x="702" y="-108.2069238462" type="curve" smooth="yes"/>
			<point x="721" y="-108.2069238462"/>
			<point x="737" y="-95.2069238462"/>
			<point x="754" y="-54.2069238462" type="curve" smooth="yes"/>
			<point x="813" y="91.7930761538"/>
			<point x="827" y="379.7930761538"/>
			<point x="882" y="524.7930761538" type="curve" smooth="yes"/>
			<point x="904" y="584.7930761538"/>
			<point x="899" y="615.7930761538"/>
			<point x="874" y="615.7930761538" type="curve" smooth="yes"/>
			<point x="851" y="615.7930761538"/>
			<point x="841" y="608.7930761538"/>
			<point x="823" y="564.7930761538" type="curve" smooth="yes"/>
			<point x="761" y="407.7930761538"/>
			<point x="752" y="101.7930761538"/>
			<point x="684" y="-38.2069238462" type="curve" smooth="yes"/>
			<point x="677" y="-52.2069238462"/>
			<point x="705" y="-49.2069238462"/>
			<point x="693" y="-34.2069238462" type="curve" smooth="yes"/>
			<point x="612" y="67.7930761538"/>
			<point x="627" y="264.7930761538"/>
			<point x="594" y="392.7930761538" type="curve" smooth="yes"/>
			<point x="561" y="513.7930761538"/>
			<point x="532" y="555.7930761538"/>
			<point x="487" y="555.7930761538" type="curve" smooth="yes"/>
			<point x="453" y="555.7930761538"/>
			<point x="423" y="524.7930761538"/>
			<point x="397" y="484.7930761538" type="curve" smooth="yes"/>
			<point x="335" y="389.7930761538"/>
			<point x="288" y="191.7930761538"/>
			<point x="259" y="-32.2069238462" type="curve" smooth="yes"/>
			<point x="251" y="-94.2069238462"/>
			<point x="279" y="-71.2069238462"/>
			<point x="268" y="-41.2069238462" type="curve" smooth="yes"/>
			<point x="199" y="145.7930761538"/>
			<point x="140" y="408.7930761538"/>
		</contour>
	</outline>
</glyph>
<glyph name="Y.alt1" format="2">
	<advance width="601"/>
	<outline>
		<contour>
			<point x="542" y="561.2076678072" type="curve" smooth="yes"/>
			<point x="408" y="417.2076678072"/>
			<point x="308" y="214.2076678072"/>
			<point x="268" y="-4.7923321928" type="curve" smooth="yes"/>
			<point x="259" y="-54.7923321928"/>
			<point x="247" y="-66.7923321928"/>
			<point x="222" y="-66.7923321928" type="curve" smooth="yes"/>
			<point x="196" y="-66.7923321928"/>
			<point x="184" y="-44.7923321928"/>
			<point x="198" y="16.2076678072" type="curve" smooth="yes"/>
			<point x="238" y="211.2076678072"/>
			<point x="344" y="456.2076678072"/>
			<point x="501" y="627.2076678072" type="curve" smooth="yes"/>
			<point x="527" y="655.2076678072"/>
			<point x="542" y="660.2076678072"/>
			<point x="557" y="660.2076678072" type="curve" smooth="yes"/>
			<point x="570" y="660.2076678072"/>
			<point x="583" y="649.2076678072"/>
			<point x="583" y="630.2076678072" type="curve" smooth="yes"/>
			<point x="583" y="606.2076678072"/>
			<point x="579" y="599.2076678072"/>
		</contour>
		<contour>
			<point x="96" y="626.2076678072" type="curve" smooth="yes"/>
			<point x="172" y="487.2076678072"/>
			<point x="220" y="459.2076678072"/>
			<point x="300" y="309.2076678072" type="curve" smooth="yes"/>
			<point x="309" y="291.2076678072"/>
			<point x="312" y="256.2076678072"/>
			<point x="280" y="256.2076678072" type="curve" smooth="yes"/>
			<point x="262" y="256.2076678072"/>
			<point x="250" y="268.2076678072"/>
			<point x="240" y="285.2076678072" type="curve" smooth="yes"/>
			<point x="152.3162334957" y="430.6344024973"/>
			<point x="108" y="472.2076678072"/>
			<point x="51" y="567.2076678072" type="curve" smooth="yes"/>
			<point x="29" y="606.2076678072"/>
			<point x="25" y="615.2076678072"/>
			<point x="25" y="631.2076678072" type="curve" smooth="yes"/>
			<point x="25" y="648.2076678072"/>
			<point x="36" y="659.2076678072"/>
			<point x="53" y="659.2076678072" type="curve" smooth="yes"/>
			<point x="72" y="659.2076678072"/>
			<point x="83" y="649.2076678072"/>
		</contour>
	</outline>
</glyph>
<glyph name="a.alt2" format="2">
	<advance width="644"/>
	<outline>
		<contour>
			<point x="409" y="459.4993129677" type="curve" smooth="yes"/>
			<point x="413" y="482.4993129677"/>
			<point x="422" y="496.4993129677"/>
			<point x="442" y="496.4993129677" type="curve" smooth="yes"/>
			<point x="468" y="496.4993129677"/>
			<point x="487" y="470.4993129677"/>
			<point x="490" y="430.4993129677" type="curve" smooth="yes"/>
			<point x="502" y="294.4993129677"/>
			<point x="516" y="210.4993129677"/>
			<point x="589" y="113.4993129677" type="curve" smooth="yes"/>
			<point x="607" y="90.4993129677"/>
			<point x="594" y="55.4993129677"/>
			<point x="570" y="55.4993129677" type="curve" smooth="yes"/>
			<point x="552" y="55.4993129677"/>
			<point x="544" y="63.4993129677"/>
			<point x="533" y="76.4993129677" type="curve" smooth="yes"/>
			<point x="480" y="147.4993129677"/>
			<point x="439" y="225.4993129677"/>
			<point x="433" y="434.4993129677" type="curve"/>
			<point x="462" y="433.4993129677" type="line"/>
			<point x="433.0067477096" y="154.5642305884"/>
			<point x="314.8700361011" y="52.4993129677"/>
			<point x="215" y="52.4993129677" type="curve" smooth="yes"/>
			<point x="128.4545454545" y="52.4993129677"/>
			<point x="75" y="120.4993129677"/>
			<point x="75" y="225.4993129677" type="curve" smooth="yes"/>
			<point x="75" y="382.8912438034"/>
			<point x="197.7947019868" y="556.4993129677"/>
			<point x="367" y="556.4993129677" type="curve" smooth="yes"/>
			<point x="391" y="556.4993129677"/>
			<point x="409" y="544.4993129677"/>
			<point x="409" y="522.4993129677" type="curve" smooth="yes"/>
			<point x="409" y="507.4993129677"/>
			<point x="400" y="495.4993129677"/>
			<point x="379" y="493.4993129677" type="curve" smooth="yes"/>
			<point x="239.0361617904" y="472.4088715936"/>
			<point x="146" y="351.0063552212"/>
			<point x="146" y="225.4993129677" type="curve" smooth="yes"/>
			<point x="146" y="182.4993129677"/>
			<point x="150" y="154.4993129677"/>
			<point x="177" y="98.4993129677" type="curve"/>
			<point x="131" y="155.4993129677" type="line"/>
			<point x="159.8433435801" y="123.5656111469"/>
			<point x="173" y="116.4993129677"/>
			<point x="211" y="116.4993129677" type="curve" smooth="yes"/>
			<point x="302" y="116.4993129677"/>
			<point x="372.9084653072" y="236.934849029"/>
		</contour>
	</outline>
</glyph>
<glyph name="asterisk.alt2" format="2">
	<advance width="480"/>
	<outline>
		<contour>
			<point x="247" y="910.808998647"/>
			<point x="290" y="829.808998647"/>
			<point x="290" y="715.808998647" type="curve" smooth="yes"/>
			<point x="290" y="643.808998647"/>
			<point x="275" y="540.808998647"/>
			<point x="293" y="452.808998647" type="curve" smooth="yes"/>
			<point x="299" y="422.808998647"/>
			<point x="279" y="410.808998647"/>
			<point x="261" y="410.808998647" type="curve" smooth="yes"/>
			<point x="241" y="410.808998647"/>
			<point x="229" y="421.808998647"/>
			<point x="225" y="442.808998647" type="curve" smooth="yes"/>
			<point x="208" y="529.808998647"/>
			<point x="220" y="640.808998647"/>
			<point x="220" y="713.808998647" type="curve" smooth="yes"/>
			<point x="220" y="830.808998647"/>
			<point x="180" y="846.808998647"/>
			<point x="180" y="883.808998647" type="curve" smooth="yes"/>
			<point x="180" y="899.808998647"/>
			<point x="189" y="910.808998647"/>
			<point x="207" y="910.808998647" type="curve" smooth="yes"/>
		</contour>
		<contour>
			<point x="425" y="758.808998647" type="curve" smooth="yes"/>
			<point x="386" y="696.808998647"/>
			<point x="199" y="610.808998647"/>
			<point x="124" y="520.808998647" type="curve" smooth="yes"/>
			<point x="117" y="512.808998647"/>
			<point x="107" y="507.808998647"/>
			<point x="97" y="507.808998647" type="curve" smooth="yes"/>
			<point x="78" y="507.808998647"/>
			<point x="62" y="525.808998647"/>
			<point x="62" y="542.808998647" type="curve" smooth="yes"/>
			<point x="62" y="550.808998647"/>
			<point x="65" y="558.808998647"/>
			<point x="70" y="564.808998647" type="curve" smooth="yes"/>
			<point x="143" y="652.808998647"/>
			<point x="322" y="725.808998647"/>
			<point x="373" y="807.808998647" type="curve" smooth="yes"/>
			<point x="381" y="819.808998647"/>
			<point x="388" y="827.808998647"/>
			<point x="403" y="827.808998647" type="curve" smooth="yes"/>
			<point x="423" y="827.808998647"/>
			<point x="438" y="810.808998647"/>
			<point x="438" y="793.808998647" type="curve" smooth="yes"/>
			<point x="438" y="786.808998647"/>
			<point x="436" y="777.808998647"/>
		</contour>
		<contour>
			<point x="99" y="794.808998647" type="curve" smooth="yes"/>
			<point x="177" y="750.808998647"/>
			<point x="310" y="686.808998647"/>
			<point x="426" y="597.808998647" type="curve" smooth="yes"/>
			<point x="435" y="590.808998647"/>
			<point x="440" y="579.808998647"/>
			<point x="440" y="569.808998647" type="curve" smooth="yes"/>
			<point x="440" y="548.808998647"/>
			<point x="421" y="534.808998647"/>
			<point x="406" y="534.808998647" type="curve" smooth="yes"/>
			<point x="397" y="534.808998647"/>
			<point x="390" y="537.808998647"/>
			<point x="369" y="553.808998647" type="curve" smooth="yes"/>
			<point x="270" y="628.808998647"/>
			<point x="137" y="690.808998647"/>
			<point x="58" y="737.808998647" type="curve" smooth="yes"/>
			<point x="37" y="749.808998647"/>
			<point x="32" y="764.808998647"/>
			<point x="32" y="779.808998647" type="curve" smooth="yes"/>
			<point x="32" y="794.808998647"/>
			<point x="42" y="807.808998647"/>
			<point x="59" y="807.808998647" type="curve" smooth="yes"/>
			<point x="74" y="807.808998647"/>
			<point x="80" y="805.808998647"/>
		</contour>
	</outline>
</glyph>
<glyph name="at.alt2" format="2">
	<advance width="848"/>
	<outline>
		<contour>
			<point x="498" y="519.4005149929" type="curve" smooth="yes"/>
			<point x="397" y="509.4005149929"/>
			<point x="346" y="453.4005149929"/>
			<point x="346" y="397.4005149929" type="curve" smooth="yes"/>
			<point x="346" y="382.4005149929"/>
			<point x="346" y="366.4005149929"/>
			<point x="363" y="326.4005149929" type="curve"/>
			<point x="325" y="369.4005149929" type="line"/>
			<point x="361" y="348.4005149929"/>
			<point x="375" y="345.4005149929"/>
			<point x="387" y="345.4005149929" type="curve" smooth="yes"/>
			<point x="417" y="345.4005149929"/>
			<point x="431" y="361.4005149929"/>
			<point x="449" y="406.4005149929" type="curve" smooth="yes"/>
			<point x="476" y="476.4005149929"/>
			<point x="498" y="487.4005149929"/>
			<point x="526" y="487.4005149929" type="curve" smooth="yes"/>
			<point x="555" y="487.4005149929"/>
			<point x="582" y="475.4005149929"/>
			<point x="607" y="421.4005149929" type="curve" smooth="yes"/>
			<point x="635" y="361.4005149929"/>
			<point x="638" y="358.4005149929"/>
			<point x="657" y="358.4005149929" type="curve" smooth="yes"/>
			<point x="698" y="358.4005149929"/>
			<point x="710" y="419.4005149929"/>
			<point x="710" y="468.4005149929" type="curve" smooth="yes"/>
			<point x="710" y="578.2093385223"/>
			<point x="647" y="730.4005149929"/>
			<point x="459" y="730.4005149929" type="curve" smooth="yes"/>
			<point x="294" y="730.4005149929"/>
			<point x="138" y="570.4005149929"/>
			<point x="138" y="409.4005149929" type="curve" smooth="yes"/>
			<point x="138" y="230.4005149929"/>
			<point x="287" y="144.4005149929"/>
			<point x="447" y="144.4005149929" type="curve" smooth="yes"/>
			<point x="637" y="144.4005149929"/>
			<point x="648" y="199.4005149929"/>
			<point x="684" y="199.4005149929" type="curve" smooth="yes"/>
			<point x="703" y="199.4005149929"/>
			<point x="711" y="186.4005149929"/>
			<point x="711" y="166.4005149929" type="curve" smooth="yes"/>
			<point x="711" y="151.4005149929"/>
			<point x="704" y="138.4005149929"/>
			<point x="685" y="124.4005149929" type="curve" smooth="yes"/>
			<point x="646" y="95.4005149929"/>
			<point x="582" y="76.4005149929"/>
			<point x="447" y="76.4005149929" type="curve" smooth="yes"/>
			<point x="245" y="76.4005149929"/>
			<point x="70" y="190.4005149929"/>
			<point x="70" y="409.4005149929" type="curve"/>
			<point x="70" y="604.4005149929"/>
			<point x="258" y="798.4005149929"/>
			<point x="459" y="798.4005149929" type="curve" smooth="yes"/>
			<point x="693" y="798.4005149929"/>
			<point x="778" y="608.1652208753"/>
			<point x="778" y="468.4005149929" type="curve" smooth="yes"/>
			<point x="778" y="337.4005149929"/>
			<point x="715" y="290.4005149929"/>
			<point x="657" y="290.4005149929" type="curve" smooth="yes"/>
			<point x="547" y="290.4005149929"/>
			<point x="570" y="409.4005149929"/>
			<point x="510" y="434.4005149929" type="curve"/>
			<point x="535" y="434.4005149929" type="line"/>
			<point x="499" y="397.4005149929"/>
			<point x="494" y="279.4005149929"/>
			<point x="389" y="279.4005149929" type="curve" smooth="yes"/>
			<point x="331" y="279.4005149929"/>
			<point x="278" y="316.4005149929"/>
			<point x="278" y="397.4005149929" type="curve" smooth="yes"/>
			<point x="278" y="502.4005149929"/>
			<point x="390" y="587.4005149929"/>
			<point x="495" y="587.4005149929" type="curve" smooth="yes"/>
			<point x="516" y="587.4005149929"/>
			<point x="529" y="575.4005149929"/>
			<point x="529" y="556.4005149929" type="curve" smooth="yes"/>
			<point x="529" y="536.4005149929"/>
			<point x="517" y="521.4005149929"/>
		</contour>
	</outline>
</glyph>
<glyph name="at.case.alt1" format="2">
	<advance width="848"/>
	<outline>
		<contour>
			<point x="498" y="379.641706944" type="curve" smooth="yes"/>
			<point x="397" y="369.641706944"/>
			<point x="346" y="313.641706944"/>
			<point x="346" y="257.641706944" type="curve" smooth="yes"/>
			<point x="346" y="242.641706944"/>
			<point x="346" y="226.641706944"/>
			<point x="363" y="186.641706944" type="curve"/>
			<point x="325" y="229.641706944" type="line"/>
			<point x="361" y="208.641706944"/>
			<point x="375" y="205.641706944"/>
			<point x="387" y="205.641706944" type="curve" smooth="yes"/>
			<point x="417" y="205.641706944"/>
			<point x="431" y="221.641706944"/>
			<point x="449" y="266.641706944" type="curve" smooth="yes"/>
			<point x="476" y="336.641706944"/>
			<point x="498" y="347.641706944"/>
			<point x="526" y="347.641706944" type="curve" smooth="yes"/>
			<point x="555" y="347.641706944"/>
			<point x="582" y="335.641706944"/>
			<point x="607" y="281.641706944" type="curve" smooth="yes"/>
			<point x="635" y="221.641706944"/>
			<point x="638" y="218.641706944"/>
			<point x="657" y="218.641706944" type="curve" smooth="yes"/>
			<point x="698" y="218.641706944"/>
			<point x="710" y="279.641706944"/>
			<point x="710" y="328.641706944" type="curve" smooth="yes"/>
			<point x="710" y="438.641706944"/>
			<point x="647" y="590.641706944"/>
			<point x="459" y="590.641706944" type="curve" smooth="yes"/>
			<point x="294" y="590.641706944"/>
			<point x="138" y="430.641706944"/>
			<point x="138" y="269.641706944" type="curve" smooth="yes"/>
			<point x="138" y="90.641706944"/>
			<point x="287" y="4.641706944"/>
			<point x="447" y="4.641706944" type="curve" smooth="yes"/>
			<point x="637" y="4.641706944"/>
			<point x="648" y="59.641706944"/>
			<point x="684" y="59.641706944" type="curve" smooth="yes"/>
			<point x="703" y="59.641706944"/>
			<point x="711" y="46.641706944"/>
			<point x="711" y="26.641706944" type="curve" smooth="yes"/>
			<point x="711" y="11.641706944"/>
			<point x="704" y="-1.358293056"/>
			<point x="685" y="-15.358293056" type="curve" smooth="yes"/>
			<point x="646" y="-44.358293056"/>
			<point x="582" y="-63.358293056"/>
			<point x="447" y="-63.358293056" type="curve" smooth="yes"/>
			<point x="245" y="-63.358293056"/>
			<point x="70" y="50.641706944"/>
			<point x="70" y="269.641706944" type="curve"/>
			<point x="70" y="464.641706944"/>
			<point x="258" y="658.641706944"/>
			<point x="459" y="658.641706944" type="curve" smooth="yes"/>
			<point x="693" y="658.641706944"/>
			<point x="778" y="468.641706944"/>
			<point x="778" y="328.641706944" type="curve" smooth="yes"/>
			<point x="778" y="197.641706944"/>
			<point x="715" y="150.641706944"/>
			<point x="657" y="150.641706944" type="curve" smooth="yes"/>
			<point x="547" y="150.641706944"/>
			<point x="570" y="269.641706944"/>
			<point x="510" y="294.641706944" type="curve"/>
			<point x="535" y="294.641706944" type="line"/>
			<point x="499" y="257.641706944"/>
			<point x="494" y="139.641706944"/>
			<point x="389" y="139.641706944" type="curve" smooth="yes"/>
			<point x="331" y="139.641706944"/>
			<point x="278" y="176.641706944"/>
			<point x="278" y="257.641706944" type="curve" smooth="yes"/>
			<point x="278" y="362.641706944"/>
			<point x="390" y="447.641706944"/>
			<point x="495" y="447.641706944" type="curve" smooth="yes"/>
			<point x="516" y="447.641706944"/>
			<point x="529" y="435.641706944"/>
			<point x="529" y="416.641706944" type="curve" smooth="yes"/>
			<point x="529" y="396.641706944"/>
			<point x="517" y="381.641706944"/>
		</contour>
	</outline>
</glyph>
<glyph name="b.alt2" format="2">
	<advance width="575"/>
	<outline>
		<contour>
			<point x="172" y="902.7844777142" type="curve" smooth="yes"/>
			<point x="172" y="799.7844777142"/>
			<point x="156" y="739.7844777142"/>
			<point x="156" y="547.7844777142" type="curve" smooth="yes"/>
			<point x="156" y="493.7844777142"/>
			<point x="161" y="428.7844777142"/>
			<point x="166" y="345.7844777142" type="curve" smooth="yes"/>
			<point x="169" y="289.7844777142"/>
			<point x="139" y="313.7844777142"/>
			<point x="150" y="376.7844777142" type="curve" smooth="yes"/>
			<point x="186" y="579.7844777142"/>
			<point x="287" y="652.7844777142"/>
			<point x="363" y="652.7844777142" type="curve" smooth="yes"/>
			<point x="459" y="652.7844777142"/>
			<point x="527" y="590.7844777142"/>
			<point x="527" y="444.7844777142" type="curve" smooth="yes"/>
			<point x="527" y="258.7844777142"/>
			<point x="364" y="149.7844777142"/>
			<point x="190" y="149.7844777142" type="curve" smooth="yes"/>
			<point x="141" y="149.7844777142"/>
			<point x="86" y="163.7844777142"/>
			<point x="86" y="200.7844777142" type="curve" smooth="yes"/>
			<point x="86" y="217.7844777142"/>
			<point x="96" y="226.7844777142"/>
			<point x="110" y="226.7844777142" type="curve" smooth="yes"/>
			<point x="127" y="226.7844777142"/>
			<point x="154" y="214.7844777142"/>
			<point x="178" y="214.7844777142" type="curve" smooth="yes"/>
			<point x="336" y="214.7844777142"/>
			<point x="460" y="297.7844777142"/>
			<point x="460" y="453.7844777142" type="curve" smooth="yes"/>
			<point x="460" y="521.7844777142"/>
			<point x="440" y="586.7844777142"/>
			<point x="363" y="586.7844777142" type="curve" smooth="yes"/>
			<point x="265" y="586.7844777142"/>
			<point x="210" y="441.7844777142"/>
			<point x="173" y="237.7844777142" type="curve" smooth="yes"/>
			<point x="168" y="214.7844777142"/>
			<point x="158" y="208.7844777142"/>
			<point x="147" y="208.7844777142" type="curve" smooth="yes"/>
			<point x="133" y="208.7844777142"/>
			<point x="124" y="232.7844777142"/>
			<point x="117" y="269.7844777142" type="curve" smooth="yes"/>
			<point x="97" y="379.7844777142"/>
			<point x="88" y="497.7844777142"/>
			<point x="88" y="563.7844777142" type="curve" smooth="yes"/>
			<point x="88" y="754.7844777142"/>
			<point x="104" y="827.7844777142"/>
			<point x="104" y="927.7844777142" type="curve" smooth="yes"/>
			<point x="104" y="948.7844777142"/>
			<point x="114" y="968.7844777142"/>
			<point x="132" y="968.7844777142" type="curve" smooth="yes"/>
			<point x="152" y="968.7844777142"/>
			<point x="172" y="944.7844777142"/>
		</contour>
	</outline>
</glyph>
<glyph name="bracketright.alt2" format="2">
	<advance width="453"/>
	<outline>
		<contour>
			<point x="59" y="-90.036360535" type="curve" smooth="yes"/>
			<point x="119" y="-90.036360535"/>
			<point x="260" y="-73.036360535"/>
			<point x="317" y="-52.036360535" type="curve"/>
			<point x="294" y="-79.036360535" type="line"/>
			<point x="336" y="181.963639465"/>
			<point x="244" y="518.963639465"/>
			<point x="268" y="877.963639465" type="curve"/>
			<point x="309" y="842.963639465" type="line"/>
			<point x="241" y="828.963639465"/>
			<point x="148" y="850.963639465"/>
			<point x="80" y="850.963639465" type="curve" smooth="yes"/>
			<point x="52" y="850.963639465"/>
			<point x="30" y="867.963639465"/>
			<point x="30" y="896.963639465" type="curve" smooth="yes"/>
			<point x="30" y="909.963639465"/>
			<point x="36" y="920.963639465"/>
			<point x="60" y="920.963639465" type="curve" smooth="yes"/>
			<point x="114" y="920.963639465"/>
			<point x="183" y="906.963639465"/>
			<point x="244" y="906.963639465" type="curve" smooth="yes"/>
			<point x="265" y="906.963639465"/>
			<point x="286" y="911.963639465"/>
			<point x="304" y="911.963639465" type="curve" smooth="yes"/>
			<point x="326" y="911.963639465"/>
			<point x="340" y="895.963639465"/>
			<point x="338" y="873.963639465" type="curve" smooth="yes"/>
			<point x="313" y="510.963639465"/>
			<point x="406" y="171.963639465"/>
			<point x="364" y="-91.036360535" type="curve" smooth="yes"/>
			<point x="362" y="-103.036360535"/>
			<point x="353" y="-113.036360535"/>
			<point x="341" y="-118.036360535" type="curve" smooth="yes"/>
			<point x="283" y="-140.036360535"/>
			<point x="143" y="-160.036360535"/>
			<point x="81" y="-160.036360535" type="curve" smooth="yes"/>
			<point x="55" y="-160.036360535"/>
			<point x="30" y="-144.036360535"/>
			<point x="30" y="-115.036360535" type="curve" smooth="yes"/>
			<point x="30" y="-102.036360535"/>
			<point x="35" y="-90.036360535"/>
		</contour>
	</outline>
</glyph>
<glyph name="c.alt2" format="2">
	<advance width="482"/>
	<outline>
		<contour>
			<point x="444" y="265.0304234738" type="curve" smooth="yes"/>
			<point x="444" y="287.0304234738"/>
			<point x="437" y="295.0304234738"/>
			<point x="423" y="295.0304234738" type="curve" smooth="yes"/>
			<point x="393" y="295.0304234738"/>
			<point x="399" y="227.0304234738"/>
			<point x="266" y="227.0304234738" type="curve" smooth="yes"/>
			<point x="188" y="227.0304234738"/>
			<point x="124" y="286.5253729687"/>
			<point x="124" y="382.0304234738" type="curve" smooth="yes"/>
			<point x="124" y="493.3031507465"/>
			<point x="211" y="598.0304234738"/>
			<point x="331" y="598.0304234738" type="curve" smooth="yes"/>
			<point x="360" y="598.0304234738"/>
			<point x="361" y="585.0304234738"/>
			<point x="382" y="585.0304234738" type="curve" smooth="yes"/>
			<point x="399.1219512195" y="585.0304234738"/>
			<point x="408" y="598.1883182106"/>
			<point x="408" y="615.0304234738" type="curve" smooth="yes"/>
			<point x="408" y="657.5304234738"/>
			<point x="374.5" y="666.0304234738"/>
			<point x="341" y="666.0304234738" type="curve" smooth="yes"/>
			<point x="187" y="666.0304234738"/>
			<point x="56" y="545.0304234738"/>
			<point x="56" y="391.0304234738" type="curve" smooth="yes"/>
			<point x="56" y="255.0304234738"/>
			<point x="146" y="162.0304234738"/>
			<point x="266" y="162.0304234738" type="curve" smooth="yes"/>
			<point x="369" y="162.0304234738"/>
			<point x="444" y="204.0304234738"/>
		</contour>
	</outline>
</glyph>
<glyph name="comma.alt1" format="2">
	<advance width="240"/>
	<outline>
		<contour>
			<point x="159" y="78.9185650165"/>
			<point x="139" y="95.9185650165"/>
			<point x="104" y="95.9185650165" type="curve" smooth="yes"/>
			<point x="83" y="95.9185650165"/>
			<point x="70" y="78.9185650165"/>
			<point x="70" y="44.9185650165" type="curve" smooth="yes"/>
			<point x="70" y="-28.0814349835"/>
			<point x="57" y="-81.0814349835"/>
			<point x="28" y="-135.0814349835" type="curve" smooth="yes"/>
			<point x="13" y="-164.0814349835"/>
			<point x="6" y="-182.0814349835"/>
			<point x="6" y="-195.0814349835" type="curve" smooth="yes"/>
			<point x="6" y="-209.0814349835"/>
			<point x="16" y="-219.0814349835"/>
			<point x="31" y="-219.0814349835" type="curve" smooth="yes"/>
			<point x="49" y="-219.0814349835"/>
			<point x="73" y="-207.0814349835"/>
			<point x="88" y="-187.0814349835" type="curve" smooth="yes"/>
			<point x="132" y="-124.0814349835"/>
			<point x="159" y="-29.0814349835"/>
			<point x="159" y="31.9185650165" type="curve" smooth="yes"/>
		</contour>
	</outline>
</glyph>
<glyph name="copyright.alt2" format="2">
	<advance width="929"/>
	<outline>
		<contour>
			<point x="321" y="743.6348038434" type="curve" smooth="yes"/>
			<point x="202.7239495554" y="671.5603356037"/>
			<point x="152" y="550.6348038434"/>
			<point x="152" y="425.6348038434" type="curve" smooth="yes"/>
			<point x="152" y="287.6348038434"/>
			<point x="245.3962264151" y="170.6348038434"/>
			<point x="427" y="170.6348038434" type="curve" smooth="yes"/>
			<point x="661.6411609499" y="170.6348038434"/>
			<point x="796" y="305.6348038434"/>
			<point x="796" y="540.6348038434" type="curve" smooth="yes"/>
			<point x="796" y="714.6348038434"/>
			<point x="714" y="823.6348038434"/>
			<point x="512" y="822.6348038434" type="curve" smooth="yes"/>
			<point x="351" y="821.6348038434"/>
			<point x="286" y="760.6348038434"/>
			<point x="211" y="700.6348038434" type="curve" smooth="yes"/>
			<point x="199" y="691.6348038434"/>
			<point x="188" y="685.6348038434"/>
			<point x="177" y="685.6348038434" type="curve" smooth="yes"/>
			<point x="161" y="685.6348038434"/>
			<point x="156" y="693.6348038434"/>
			<point x="156" y="711.6348038434" type="curve" smooth="yes"/>
			<point x="156" y="768.6348038434"/>
			<point x="293" y="885.6348038434"/>
			<point x="503" y="885.6348038434" type="curve" smooth="yes"/>
			<point x="752" y="885.6348038434"/>
			<point x="864" y="752.6348038434"/>
			<point x="864" y="549.6348038434" type="curve" smooth="yes"/>
			<point x="864" y="253.6348038434"/>
			<point x="669.5852534562" y="107.6348038434"/>
			<point x="440" y="107.6348038434" type="curve" smooth="yes"/>
			<point x="236.2608695652" y="107.6348038434"/>
			<point x="85" y="202.6348038434"/>
			<point x="85" y="424.6348038434" type="curve" smooth="yes"/>
			<point x="85" y="672.6348038434"/>
			<point x="279" y="822.6348038434"/>
			<point x="354" y="822.6348038434" type="curve" smooth="yes"/>
			<point x="369" y="822.6348038434"/>
			<point x="376" y="818.6348038434"/>
			<point x="376" y="803.6348038434" type="curve" smooth="yes"/>
			<point x="376" y="783.6348038434"/>
			<point x="362" y="768.6348038434"/>
		</contour>
		<contour>
			<point x="466" y="280.6348038434" type="curve" smooth="yes"/>
			<point x="580.2790697674" y="280.6348038434"/>
			<point x="634" y="346.4600465618"/>
			<point x="634" y="393.6348038434" type="curve" smooth="yes"/>
			<point x="634" y="408.6348038434"/>
			<point x="627" y="419.6348038434"/>
			<point x="617" y="419.6348038434" type="curve" smooth="yes"/>
			<point x="594.5974025974" y="419.6348038434"/>
			<point x="576" y="344.6348038434"/>
			<point x="467" y="344.6348038434" type="curve" smooth="yes"/>
			<point x="391" y="344.6348038434"/>
			<point x="343" y="383.6348038434"/>
			<point x="343" y="454.6348038434" type="curve" smooth="yes"/>
			<point x="343" y="550.6348038434"/>
			<point x="414" y="645.6348038434"/>
			<point x="513" y="645.6348038434" type="curve" smooth="yes"/>
			<point x="569" y="645.6348038434"/>
			<point x="578" y="620.6348038434"/>
			<point x="578" y="590.6348038434" type="curve" smooth="yes"/>
			<point x="578" y="562.6348038434"/>
			<point x="582" y="552.6348038434"/>
			<point x="596" y="552.6348038434" type="curve" smooth="yes"/>
			<point x="623" y="552.6348038434"/>
			<point x="635" y="578.6348038434"/>
			<point x="635" y="607.6348038434" type="curve" smooth="yes"/>
			<point x="635" y="666.6348038434"/>
			<point x="602" y="708.6348038434"/>
			<point x="523" y="708.6348038434" type="curve" smooth="yes"/>
			<point x="384" y="708.6348038434"/>
			<point x="276" y="586.6348038434"/>
			<point x="276" y="457.6348038434" type="curve" smooth="yes"/>
			<point x="276" y="356.6348038434"/>
			<point x="335" y="280.6348038434"/>
		</contour>
	</outline>
</glyph>
<glyph name="dagger.alt1" format="2">
	<advance width="538"/>
	<outline>
		<contour>
			<point x="317" y="540.3072879433" type="curve" smooth="yes"/>
			<point x="317" y="430.3072879433"/>
			<point x="305" y="299.3072879433"/>
			<point x="305" y="94.3072879433" type="curve" smooth="yes"/>
			<point x="305" y="-161.6927120567"/>
			<point x="320" y="-194.6927120567"/>
			<point x="320" y="-327.6927120567" type="curve" smooth="yes"/>
			<point x="320" y="-362.6927120567"/>
			<point x="302" y="-372.6927120567"/>
			<point x="289" y="-372.6927120567" type="curve" smooth="yes"/>
			<point x="274" y="-372.6927120567"/>
			<point x="262" y="-358.6927120567"/>
			<point x="259" y="-336.6927120567" type="curve" smooth="yes"/>
			<point x="234" y="-153.6927120567"/>
			<point x="237" y="-35.6927120567"/>
			<point x="237" y="108.3072879433" type="curve" smooth="yes"/>
			<point x="237" y="308.3072879433"/>
			<point x="249" y="457.3072879433"/>
			<point x="249" y="562.3072879433" type="curve" smooth="yes"/>
			<point x="249" y="581.3072879433"/>
			<point x="259" y="599.3072879433"/>
			<point x="277" y="599.3072879433" type="curve" smooth="yes"/>
			<point x="297" y="599.3072879433"/>
			<point x="317" y="578.3072879433"/>
		</contour>
		<contour>
			<point x="86" y="274.3072879433" type="curve" smooth="yes"/>
			<point x="57" y="266.3072879433"/>
			<point x="41" y="282.3072879433"/>
			<point x="41" y="301.3072879433" type="curve" smooth="yes"/>
			<point x="42" y="325.3072879433"/>
			<point x="50" y="340.3072879433"/>
			<point x="102" y="348.3072879433" type="curve" smooth="yes"/>
			<point x="216" y="368.3072879433"/>
			<point x="354" y="382.3072879433"/>
			<point x="462" y="382.3072879433" type="curve" smooth="yes"/>
			<point x="488" y="382.3072879433"/>
			<point x="509" y="366.3072879433"/>
			<point x="509" y="347.3072879433" type="curve" smooth="yes"/>
			<point x="509" y="328.3072879433"/>
			<point x="499" y="321.3072879433"/>
			<point x="474" y="319.3072879433" type="curve" smooth="yes"/>
			<point x="299" y="305.3072879433"/>
			<point x="197" y="299.3072879433"/>
		</contour>
	</outline>
</glyph>
<glyph name="dagger.alt2" format="2">
	<advance width="538"/>
	<outline>
		<contour>
			<point x="317" y="794.5054545234" type="curve" smooth="yes"/>
			<point x="317" y="684.5054545234"/>
			<point x="305" y="553.5054545234"/>
			<point x="305" y="348.5054545234" type="curve" smooth="yes"/>
			<point x="305" y="92.5054545234"/>
			<point x="320" y="59.5054545234"/>
			<point x="320" y="-73.4945454766" type="curve" smooth="yes"/>
			<point x="320" y="-108.4945454766"/>
			<point x="302" y="-118.4945454766"/>
			<point x="289" y="-118.4945454766" type="curve" smooth="yes"/>
			<point x="274" y="-118.4945454766"/>
			<point x="262" y="-104.4945454766"/>
			<point x="259" y="-82.4945454766" type="curve" smooth="yes"/>
			<point x="234" y="100.5054545234"/>
			<point x="237" y="218.5054545234"/>
			<point x="237" y="362.5054545234" type="curve" smooth="yes"/>
			<point x="237" y="562.5054545234"/>
			<point x="249" y="711.5054545234"/>
			<point x="249" y="816.5054545234" type="curve" smooth="yes"/>
			<point x="249" y="835.5054545234"/>
			<point x="259" y="853.5054545234"/>
			<point x="277" y="853.5054545234" type="curve" smooth="yes"/>
			<point x="297" y="853.5054545234"/>
			<point x="317" y="832.5054545234"/>
		</contour>
		<contour>
			<point x="86" y="528.5054545234" type="curve" smooth="yes"/>
			<point x="57" y="520.5054545234"/>
			<point x="41" y="536.5054545234"/>
			<point x="41" y="555.5054545234" type="curve" smooth="yes"/>
			<point x="42" y="579.5054545234"/>
			<point x="50" y="594.5054545234"/>
			<point x="102" y="602.5054545234" type="curve" smooth="yes"/>
			<point x="216" y="622.5054545234"/>
			<point x="354" y="636.5054545234"/>
			<point x="462" y="636.5054545234" type="curve" smooth="yes"/>
			<point x="488" y="636.5054545234"/>
			<point x="509" y="620.5054545234"/>
			<point x="509" y="601.5054545234" type="curve" smooth="yes"/>
			<point x="509" y="582.5054545234"/>
			<point x="499" y="575.5054545234"/>
			<point x="474" y="573.5054545234" type="curve" smooth="yes"/>
			<point x="299" y="559.5054545234"/>
			<point x="197" y="553.5054545234"/>
		</contour>
	</outline>
</glyph>
<glyph name="daggerdbl.alt1" format="2">
	<advance width="538"/>
	<outline>
		<contour>
			<point x="317" y="511.8557287051" type="curve" smooth="yes"/>
			<point x="317" y="401.8557287051"/>
			<point x="305" y="270.8557287051"/>
			<point x="305" y="65.8557287051" type="curve" smooth="yes"/>
			<point x="305" y="-190.1442712949"/>
			<point x="320" y="-223.1442712949"/>
			<point x="320" y="-356.1442712949" type="curve" smooth="yes"/>
			<point x="320" y="-391.1442712949"/>
			<point x="302" y="-401.1442712949"/>
			<point x="289" y="-401.1442712949" type="curve" smooth="yes"/>
			<point x="274" y="-401.1442712949"/>
			<point x="262" y="-387.1442712949"/>
			<point x="259" y="-365.1442712949" type="curve" smooth="yes"/>
			<point x="234" y="-182.1442712949"/>
			<point x="237" y="-64.1442712949"/>
			<point x="237" y="79.8557287051" type="curve" smooth="yes"/>
			<point x="237" y="279.8557287051"/>
			<point x="249" y="428.8557287051"/>
			<point x="249" y="533.8557287051" type="curve" smooth="yes"/>
			<point x="249" y="552.8557287051"/>
			<point x="259" y="570.8557287051"/>
			<point x="277" y="570.8557287051" type="curve" smooth="yes"/>
			<point x="297" y="570.8557287051"/>
			<point x="317" y="549.8557287051"/>
		</contour>
		<contour>
			<point x="86" y="245.8557287051" type="curve" smooth="yes"/>
			<point x="57" y="237.8557287051"/>
			<point x="41" y="253.8557287051"/>
			<point x="41" y="272.8557287051" type="curve" smooth="yes"/>
			<point x="42" y="296.8557287051"/>
			<point x="50" y="311.8557287051"/>
			<point x="102" y="319.8557287051" type="curve" smooth="yes"/>
			<point x="216" y="339.8557287051"/>
			<point x="354" y="353.8557287051"/>
			<point x="462" y="353.8557287051" type="curve" smooth="yes"/>
			<point x="488" y="353.8557287051"/>
			<point x="509" y="337.8557287051"/>
			<point x="509" y="318.8557287051" type="curve" smooth="yes"/>
			<point x="509" y="299.8557287051"/>
			<point x="499" y="292.8557287051"/>
			<point x="474" y="290.8557287051" type="curve" smooth="yes"/>
			<point x="299" y="276.8557287051"/>
			<point x="197" y="270.8557287051"/>
		</contour>
		<contour>
			<point x="86" y="-151.1442712949" type="curve" smooth="yes"/>
			<point x="57" y="-159.1442712949"/>
			<point x="41" y="-143.1442712949"/>
			<point x="41" y="-124.1442712949" type="curve" smooth="yes"/>
			<point x="42" y="-100.1442712949"/>
			<point x="50" y="-85.1442712949"/>
			<point x="102" y="-77.1442712949" type="curve" smooth="yes"/>
			<point x="216" y="-57.1442712949"/>
			<point x="354" y="-43.1442712949"/>
			<point x="462" y="-43.1442712949" type="curve" smooth="yes"/>
			<point x="488" y="-43.1442712949"/>
			<point x="509" y="-59.1442712949"/>
			<point x="509" y="-78.1442712949" type="curve" smooth="yes"/>
			<point x="509" y="-97.1442712949"/>
			<point x="499" y="-104.1442712949"/>
			<point x="474" y="-106.1442712949" type="curve" smooth="yes"/>
			<point x="299" y="-120.1442712949"/>
			<point x="197" y="-126.1442712949"/>
		</contour>
	</outline>
</glyph>
<glyph name="daggerdbl.alt2" format="2">
	<advance width="538"/>
	<outline>
		<contour>
			<point x="317" y="804.0633020075" type="curve" smooth="yes"/>
			<point x="317" y="694.0633020075"/>
			<point x="305" y="563.0633020075"/>
			<point x="305" y="358.0633020075" type="curve" smooth="yes"/>
			<point x="305" y="102.0633020075"/>
			<point x="320" y="69.0633020075"/>
			<point x="320" y="-63.9366979925" type="curve" smooth="yes"/>
			<point x="320" y="-98.9366979925"/>
			<point x="302" y="-108.9366979925"/>
			<point x="289" y="-108.9366979925" type="curve" smooth="yes"/>
			<point x="274" y="-108.9366979925"/>
			<point x="262" y="-94.9366979925"/>
			<point x="259" y="-72.9366979925" type="curve" smooth="yes"/>
			<point x="234" y="110.0633020075"/>
			<point x="237" y="228.0633020075"/>
			<point x="237" y="372.0633020075" type="curve" smooth="yes"/>
			<point x="237" y="572.0633020075"/>
			<point x="249" y="721.0633020075"/>
			<point x="249" y="826.0633020075" type="curve" smooth="yes"/>
			<point x="249" y="845.0633020075"/>
			<point x="259" y="863.0633020075"/>
			<point x="277" y="863.0633020075" type="curve" smooth="yes"/>
			<point x="297" y="863.0633020075"/>
			<point x="317" y="842.0633020075"/>
		</contour>
		<contour>
			<point x="86" y="538.0633020075" type="curve" smooth="yes"/>
			<point x="57" y="530.0633020075"/>
			<point x="41" y="546.0633020075"/>
			<point x="41" y="565.0633020075" type="curve" smooth="yes"/>
			<point x="42" y="589.0633020075"/>
			<point x="50" y="604.0633020075"/>
			<point x="102" y="612.0633020075" type="curve" smooth="yes"/>
			<point x="216" y="632.0633020075"/>
			<point x="354" y="646.0633020075"/>
			<point x="462" y="646.0633020075" type="curve" smooth="yes"/>
			<point x="488" y="646.0633020075"/>
			<point x="509" y="630.0633020075"/>
			<point x="509" y="611.0633020075" type="curve" smooth="yes"/>
			<point x="509" y="592.0633020075"/>
			<point x="499" y="585.0633020075"/>
			<point x="474" y="583.0633020075" type="curve" smooth="yes"/>
			<point x="299" y="569.0633020075"/>
			<point x="197" y="563.0633020075"/>
		</contour>
		<contour>
			<point x="86" y="141.0633020075" type="curve" smooth="yes"/>
			<point x="57" y="133.0633020075"/>
			<point x="41" y="149.0633020075"/>
			<point x="41" y="168.0633020075" type="curve" smooth="yes"/>
			<point x="42" y="192.0633020075"/>
			<point x="50" y="207.0633020075"/>
			<point x="102" y="215.0633020075" type="curve" smooth="yes"/>
			<point x="216" y="235.0633020075"/>
			<point x="354" y="249.0633020075"/>
			<point x="462" y="249.0633020075" type="curve" smooth="yes"/>
			<point x="488" y="249.0633020075"/>
			<point x="509" y="233.0633020075"/>
			<point x="509" y="214.0633020075" type="curve" smooth="yes"/>
			<point x="509" y="195.0633020075"/>
			<point x="499" y="188.0633020075"/>
			<point x="474" y="186.0633020075" type="curve" smooth="yes"/>
			<point x="299" y="172.0633020075"/>
			<point x="197" y="166.0633020075"/>
		</contour>
	</outline>
</glyph>
<glyph name="dollar.alt1" format="2">
	<advance width="561"/>
	<outline>
		<contour>
			<point x="162" y="-85.9683140924" type="curve" smooth="yes"/>
			<point x="332" y="-85.9683140924"/>
			<point x="496" y="-27.9683140924"/>
			<point x="496" y="90.0316859076" type="curve" smooth="yes"/>
			<point x="496" y="264.0316859076"/>
			<point x="136" y="261.0516062263"/>
			<point x="136" y="344.0316859076" type="curve" smooth="yes"/>
			<point x="136" y="434.7884426644"/>
			<point x="250.1039809432" y="522.0520840831"/>
			<point x="459" y="563.0316859076" type="curve" smooth="yes"/>
			<point x="493" y="569.0316859076"/>
			<point x="504" y="581.0316859076"/>
			<point x="504" y="600.0316859076" type="curve" smooth="yes"/>
			<point x="504" y="621.0316859076"/>
			<point x="490" y="633.0316859076"/>
			<point x="461" y="633.0316859076" type="curve" smooth="yes"/>
			<point x="338" y="633.0316859076"/>
			<point x="67" y="512.0316859076"/>
			<point x="67" y="338.0316859076" type="curve" smooth="yes"/>
			<point x="67" y="192.8888287647"/>
			<point x="424" y="216.0316859076"/>
			<point x="425" y="84.0316859076" type="curve"/>
			<point x="396" y="12.0316859076"/>
			<point x="290" y="-17.9683140924"/>
			<point x="154" y="-17.9683140924" type="curve" smooth="yes"/>
			<point x="108" y="-17.9683140924"/>
			<point x="100" y="-7.9683140924"/>
			<point x="72" y="-7.9683140924" type="curve" smooth="yes"/>
			<point x="52" y="-7.9683140924"/>
			<point x="43" y="-16.9683140924"/>
			<point x="43" y="-32.9683140924" type="curve" smooth="yes"/>
			<point x="43" y="-63.9683140924"/>
			<point x="82" y="-85.9683140924"/>
		</contour>
		<contour>
			<point x="306" y="318.0316859076" type="curve" smooth="yes"/>
			<point x="321" y="318.0316859076"/>
			<point x="327" y="328.0316859076"/>
			<point x="330" y="344.0316859076" type="curve" smooth="yes"/>
			<point x="347.459328987" y="442.6255437167"/>
			<point x="352.6673255295" y="590.8552163872"/>
			<point x="327" y="713.0316859076" type="curve" smooth="yes"/>
			<point x="324" y="729.0316859076"/>
			<point x="312" y="740.0316859076"/>
			<point x="293" y="740.0316859076" type="curve" smooth="yes"/>
			<point x="258" y="740.0316859076"/>
			<point x="255" y="721.0316859076"/>
			<point x="260" y="700.0316859076" type="curve" smooth="yes"/>
			<point x="284.723779232" y="585.6842069598"/>
			<point x="276.3714278106" y="461.693585217"/>
			<point x="264" y="373.0316859076" type="curve" smooth="yes"/>
			<point x="260" y="336.0316859076"/>
			<point x="285" y="318.0316859076"/>
		</contour>
		<contour>
			<point x="252" y="140.0316859076" type="curve" smooth="yes"/>
			<point x="237" y="140.0316859076"/>
			<point x="231" y="130.0316859076"/>
			<point x="228" y="114.0316859076" type="curve" smooth="yes"/>
			<point x="212.3755149601" y="25.7992998"/>
			<point x="207.9969884337" y="-105.4739790366"/>
			<point x="231" y="-214.9683140924" type="curve" smooth="yes"/>
			<point x="234" y="-230.9683140924"/>
			<point x="245" y="-241.9683140924"/>
			<point x="265" y="-241.9683140924" type="curve" smooth="yes"/>
			<point x="299" y="-241.9683140924"/>
			<point x="303" y="-222.9683140924"/>
			<point x="298" y="-201.9683140924" type="curve" smooth="yes"/>
			<point x="276.1648130799" y="-100.9805745868"/>
			<point x="283.1128483073" y="7.0070987766"/>
			<point x="294" y="85.0316859076" type="curve" smooth="yes"/>
			<point x="298" y="122.0316859076"/>
			<point x="273" y="140.0316859076"/>
		</contour>
	</outline>
</glyph>
<glyph name="e.alt2" format="2">
	<advance width="537"/>
	<outline>
		<contour>
			<point x="192" y="317.2775486013" type="curve" smooth="yes"/>
			<point x="338" y="317.2775486013"/>
			<point x="446" y="382.2775486013"/>
			<point x="446" y="490.2775486013" type="curve" smooth="yes"/>
			<point x="446" y="585.2775486013"/>
			<point x="387.3121387283" y="636.2775486013"/>
			<point x="303" y="636.2775486013" type="curve" smooth="yes"/>
			<point x="144.8709677419" y="636.2775486013"/>
			<point x="45" y="484.2775486013"/>
			<point x="45" y="351.2775486013" type="curve" smooth="yes"/>
			<point x="45" y="223.2775486013"/>
			<point x="107" y="131.2775486013"/>
			<point x="249" y="131.2775486013" type="curve" smooth="yes"/>
			<point x="365.4788135593" y="131.2775486013"/>
			<point x="480" y="207.2775486013"/>
			<point x="480" y="255.2775486013" type="curve" smooth="yes"/>
			<point x="480" y="275.2775486013"/>
			<point x="476" y="284.2775486013"/>
			<point x="461" y="284.2775486013" type="curve" smooth="yes"/>
			<point x="427" y="284.2775486013"/>
			<point x="387" y="196.2775486013"/>
			<point x="246" y="196.2775486013" type="curve" smooth="yes"/>
			<point x="148.4558823529" y="196.2775486013"/>
			<point x="112" y="262.2775486013"/>
			<point x="112" y="342.2775486013" type="curve" smooth="yes"/>
			<point x="112" y="461.2775486013"/>
			<point x="191.1578947368" y="570.2775486013"/>
			<point x="300" y="570.2775486013" type="curve" smooth="yes"/>
			<point x="358.4430379747" y="570.2775486013"/>
			<point x="381" y="544.2775486013"/>
			<point x="381" y="494.2775486013" type="curve" smooth="yes"/>
			<point x="381" y="423.2775486013"/>
			<point x="314.3089005236" y="382.2775486013"/>
			<point x="188" y="382.2775486013" type="curve" smooth="yes"/>
			<point x="156" y="382.2775486013"/>
			<point x="137" y="390.2775486013"/>
			<point x="122" y="390.2775486013" type="curve" smooth="yes"/>
			<point x="103" y="390.2775486013"/>
			<point x="97" y="383.2775486013"/>
			<point x="97" y="368.2775486013" type="curve" smooth="yes"/>
			<point x="97" y="343.2775486013"/>
			<point x="121" y="317.2775486013"/>
		</contour>
	</outline>
</glyph>
<glyph name="eight.alt1" format="2">
	<advance width="700"/>
	<outline>
		<contour>
			<point x="446" y="563.047638509" type="curve" smooth="yes"/>
			<point x="252.7300157411" y="567.5163086653"/>
			<point x="160" y="534.047638509"/>
			<point x="160" y="462.047638509" type="curve" smooth="yes"/>
			<point x="160" y="421.3343517957"/>
			<point x="181.3605250435" y="390.2807804202"/>
			<point x="374" y="320.047638509" type="curve" smooth="yes"/>
			<point x="580.2824942527" y="245.3076043595"/>
			<point x="593" y="179.3872611505"/>
			<point x="593" y="107.047638509" type="curve" smooth="yes"/>
			<point x="593" y="4.047638509"/>
			<point x="505" y="-94.952361491"/>
			<point x="276" y="-94.952361491" type="curve" smooth="yes"/>
			<point x="161" y="-94.952361491"/>
			<point x="120" y="-31.952361491"/>
			<point x="121" y="42.047638509" type="curve" smooth="yes"/>
			<point x="122" y="110.047638509"/>
			<point x="136" y="172.047638509"/>
			<point x="334" y="306.047638509" type="curve" smooth="yes"/>
			<point x="434" y="373.047638509"/>
			<point x="487" y="429.047638509"/>
			<point x="513" y="519.047638509" type="curve" smooth="yes"/>
			<point x="522" y="548.047638509"/>
			<point x="528.7777777778" y="560.047638509"/>
			<point x="546" y="560.047638509" type="curve" smooth="yes"/>
			<point x="562.8596491228" y="560.047638509"/>
			<point x="577" y="545.047638509"/>
			<point x="577" y="526.047638509" type="curve" smooth="yes"/>
			<point x="577" y="452.047638509"/>
			<point x="518.4832924048" y="347.7281079675"/>
			<point x="381" y="257.047638509" type="curve" smooth="yes"/>
			<point x="228" y="158.047638509"/>
			<point x="185" y="99.047638509"/>
			<point x="185" y="41.047638509" type="curve" smooth="yes"/>
			<point x="185" y="12.047638509"/>
			<point x="193" y="-18.952361491"/>
			<point x="211" y="-45.952361491" type="curve"/>
			<point x="172" y="1.047638509" type="line"/>
			<point x="202" y="-19.952361491"/>
			<point x="241" y="-29.952361491"/>
			<point x="276" y="-29.952361491" type="curve" smooth="yes"/>
			<point x="414" y="-29.952361491"/>
			<point x="526" y="16.047638509"/>
			<point x="526" y="109.047638509" type="curve" smooth="yes"/>
			<point x="526" y="169.6409718423"/>
			<point x="491.8927426564" y="207.085891128"/>
			<point x="349" y="258.047638509" type="curve" smooth="yes"/>
			<point x="123.876552534" y="338.0915309414"/>
			<point x="91.9951228642" y="390.6916075959"/>
			<point x="93" y="464.047638509" type="curve" smooth="yes"/>
			<point x="95" y="567.047638509"/>
			<point x="190" y="628.047638509"/>
			<point x="405" y="628.047638509" type="curve" smooth="yes"/>
			<point x="455" y="628.047638509"/>
			<point x="477" y="607.047638509"/>
			<point x="477" y="586.047638509" type="curve" smooth="yes"/>
			<point x="477" y="573.047638509"/>
			<point x="462" y="562.047638509"/>
		</contour>
	</outline>
</glyph>
<glyph name="eight.alt2" format="2">
	<advance width="700"/>
	<outline>
		<contour>
			<point x="446" y="844.9537063614" type="curve" smooth="yes"/>
			<point x="252.7300157411" y="849.4223765177"/>
			<point x="160" y="815.9537063614"/>
			<point x="160" y="743.9537063614" type="curve" smooth="yes"/>
			<point x="160" y="703.2404196481"/>
			<point x="181.3605250435" y="672.1868482726"/>
			<point x="374" y="601.9537063614" type="curve" smooth="yes"/>
			<point x="580.2824942527" y="527.2136722119"/>
			<point x="593" y="461.2933290029"/>
			<point x="593" y="388.9537063614" type="curve" smooth="yes"/>
			<point x="593" y="285.9537063614"/>
			<point x="505" y="186.9537063614"/>
			<point x="276" y="186.9537063614" type="curve" smooth="yes"/>
			<point x="161" y="186.9537063614"/>
			<point x="120" y="249.9537063614"/>
			<point x="121" y="323.9537063614" type="curve" smooth="yes"/>
			<point x="122" y="391.9537063614"/>
			<point x="136" y="453.9537063614"/>
			<point x="334" y="587.9537063614" type="curve" smooth="yes"/>
			<point x="434" y="654.9537063614"/>
			<point x="487" y="710.9537063614"/>
			<point x="513" y="800.9537063614" type="curve" smooth="yes"/>
			<point x="522" y="829.9537063614"/>
			<point x="528.7777777778" y="841.9537063614"/>
			<point x="546" y="841.9537063614" type="curve" smooth="yes"/>
			<point x="562.8596491228" y="841.9537063614"/>
			<point x="577" y="826.9537063614"/>
			<point x="577" y="807.9537063614" type="curve" smooth="yes"/>
			<point x="577" y="733.9537063614"/>
			<point x="518.4832924048" y="629.6341758199"/>
			<point x="381" y="538.9537063614" type="curve" smooth="yes"/>
			<point x="228" y="439.9537063614"/>
			<point x="185" y="380.9537063614"/>
			<point x="185" y="322.9537063614" type="curve" smooth="yes"/>
			<point x="185" y="293.9537063614"/>
			<point x="193" y="262.9537063614"/>
			<point x="211" y="235.9537063614" type="curve"/>
			<point x="172" y="282.9537063614" type="line"/>
			<point x="202" y="261.9537063614"/>
			<point x="241" y="251.9537063614"/>
			<point x="276" y="251.9537063614" type="curve" smooth="yes"/>
			<point x="414" y="251.9537063614"/>
			<point x="526" y="297.9537063614"/>
			<point x="526" y="390.9537063614" type="curve" smooth="yes"/>
			<point x="526" y="451.5470396947"/>
			<point x="491.8927426564" y="488.9919589804"/>
			<point x="349" y="539.9537063614" type="curve" smooth="yes"/>
			<point x="123.876552534" y="619.9975987938"/>
			<point x="91.9951228642" y="672.5976754483"/>
			<point x="93" y="745.9537063614" type="curve" smooth="yes"/>
			<point x="95" y="848.9537063614"/>
			<point x="190" y="909.9537063614"/>
			<point x="405" y="909.9537063614" type="curve" smooth="yes"/>
			<point x="455" y="909.9537063614"/>
			<point x="477" y="888.9537063614"/>
			<point x="477" y="867.9537063614" type="curve" smooth="yes"/>
			<point x="477" y="854.9537063614"/>
			<point x="462" y="843.9537063614"/>
		</contour>
	</outline>
</glyph>
<glyph name="emdash.alt1" format="2">
	<advance width="1000"/>
	<outline>
		<contour>
			<point x="118" y="55.2468820646" type="curve" smooth="yes"/>
			<point x="227.2268907563" y="55.2468820646"/>
			<point x="403.2941176471" y="65.2468820646"/>
			<point x="894" y="65.2468820646" type="curve" smooth="yes"/>
			<point x="926" y="65.2468820646"/>
			<point x="945" y="76.2468820646"/>
			<point x="945" y="94.2468820646" type="curve" smooth="yes"/>
			<point x="945" y="107.2468820646"/>
			<point x="923" y="128.2468820646"/>
			<point x="861" y="128.2468820646" type="curve" smooth="yes"/>
			<point x="601.3670886076" y="128.2468820646"/>
			<point x="357" y="125.2468820646"/>
			<point x="87" y="114.2468820646" type="curve" smooth="yes"/>
			<point x="62" y="113.2468820646"/>
			<point x="55" y="96.2468820646"/>
			<point x="55" y="85.2468820646" type="curve" smooth="yes"/>
			<point x="55" y="70.2468820646"/>
			<point x="77" y="55.2468820646"/>
		</contour>
	</outline>
</glyph>
<glyph name="endash.alt1" format="2">
	<advance width="700"/>
	<outline>
		<contour>
			<point x="118" y="124.8484420538" type="curve" smooth="yes"/>
			<point x="185.4493927126" y="124.8484420538"/>
			<point x="293.3684210526" y="134.8484420538"/>
			<point x="594" y="134.8484420538" type="curve" smooth="yes"/>
			<point x="626" y="134.8484420538"/>
			<point x="645" y="145.8484420538"/>
			<point x="645" y="163.8484420538" type="curve" smooth="yes"/>
			<point x="645" y="176.8484420538"/>
			<point x="623" y="197.8484420538"/>
			<point x="561" y="197.8484420538" type="curve" smooth="yes"/>
			<point x="402.3551020408" y="197.8484420538"/>
			<point x="252" y="193.8484420538"/>
			<point x="87" y="183.8484420538" type="curve" smooth="yes"/>
			<point x="62" y="181.8484420538"/>
			<point x="55" y="165.8484420538"/>
			<point x="55" y="154.8484420538" type="curve" smooth="yes"/>
			<point x="55" y="139.8484420538"/>
			<point x="77" y="124.8484420538"/>
		</contour>
	</outline>
</glyph>
<glyph name="f.alt2" format="2">
	<advance width="322"/>
	<outline>
		<contour>
			<point x="126" y="510.3040587937"/>
			<point x="152" y="525.3040587937"/>
			<point x="256" y="525.3040587937" type="curve" smooth="yes"/>
			<point x="282" y="525.3040587937"/>
			<point x="293" y="534.3040587937"/>
			<point x="293" y="549.3040587937" type="curve" smooth="yes"/>
			<point x="293" y="566.8175723072"/>
			<point x="279" y="585.3040587937"/>
			<point x="249" y="585.3040587937" type="curve" smooth="yes"/>
			<point x="197" y="585.3040587937"/>
			<point x="154" y="580.3040587937"/>
			<point x="111" y="572.3040587937" type="curve" smooth="yes"/>
			<point x="84" y="566.3040587937"/>
			<point x="74" y="548.3040587937"/>
			<point x="74" y="531.3040587937" type="curve" smooth="yes"/>
			<point x="74" y="517.6084066198"/>
			<point x="85" y="510.3040587937"/>
			<point x="98" y="510.3040587937" type="curve" smooth="yes"/>
		</contour>
		<contour>
			<point x="100" y="78.3040587937" type="curve" smooth="yes"/>
			<point x="118" y="78.3040587937"/>
			<point x="127" y="87.3040587937"/>
			<point x="127" y="120.3040587937" type="curve" smooth="yes"/>
			<point x="127" y="318.2517027728"/>
			<point x="109" y="427.8893798946"/>
			<point x="109" y="537.3040587937" type="curve" smooth="yes"/>
			<point x="109" y="694.3040587937"/>
			<point x="134" y="807.3040587937"/>
			<point x="303" y="841.3040587937" type="curve" smooth="yes"/>
			<point x="327" y="846.3040587937"/>
			<point x="337" y="859.4217058525"/>
			<point x="337" y="874.3040587937" type="curve" smooth="yes"/>
			<point x="337" y="892.3040587937"/>
			<point x="315" y="901.3040587937"/>
			<point x="299" y="901.3040587937" type="curve" smooth="yes"/>
			<point x="157" y="901.3040587937"/>
			<point x="39" y="787.3040587937"/>
			<point x="39" y="580.3040587937" type="curve" smooth="yes"/>
			<point x="39" y="405.741887165"/>
			<point x="57" y="337.7264294114"/>
			<point x="57" y="137.3040587937" type="curve" smooth="yes"/>
			<point x="57" y="100.3040587937"/>
			<point x="79" y="78.3040587937"/>
		</contour>
	</outline>
</glyph>
<glyph name="four.alt1" format="2">
	<advance width="700"/>
	<outline>
		<contour>
			<point x="378" y="-32.7380913972" type="curve" smooth="yes"/>
			<point x="378" y="87.2619086028"/>
			<point x="425" y="206.2619086028"/>
			<point x="425" y="353.2619086028" type="curve" smooth="yes"/>
			<point x="425" y="406.2619086028"/>
			<point x="420" y="442.2619086028"/>
			<point x="410" y="472.2619086028" type="curve"/>
			<point x="438" y="469.2619086028" type="line"/>
			<point x="300" y="381.2619086028"/>
			<point x="192" y="211.2619086028"/>
			<point x="138" y="24.2619086028" type="curve"/>
			<point x="114" y="62.2619086028" type="line"/>
			<point x="149" y="47.2619086028"/>
			<point x="156" y="46.2619086028"/>
			<point x="175" y="46.2619086028" type="curve" smooth="yes"/>
			<point x="298" y="46.2619086028"/>
			<point x="399" y="97.2619086028"/>
			<point x="566" y="97.2619086028" type="curve" smooth="yes"/>
			<point x="613" y="97.2619086028"/>
			<point x="639" y="81.2619086028"/>
			<point x="639" y="59.2619086028" type="curve" smooth="yes"/>
			<point x="639" y="43.2619086028"/>
			<point x="625" y="32.2619086028"/>
			<point x="592" y="32.2619086028" type="curve" smooth="yes"/>
			<point x="413" y="32.2619086028"/>
			<point x="310" y="-19.7380913972"/>
			<point x="168" y="-19.7380913972" type="curve" smooth="yes"/>
			<point x="116" y="-19.7380913972"/>
			<point x="83" y="9.2619086028"/>
			<point x="83" y="52.2619086028" type="curve" smooth="yes"/>
			<point x="83" y="77.2619086028"/>
			<point x="89" y="96.2619086028"/>
			<point x="107" y="139.2619086028" type="curve" smooth="yes"/>
			<point x="195" y="350.2619086028"/>
			<point x="351" y="525.2619086028"/>
			<point x="438" y="525.2619086028" type="curve" smooth="yes"/>
			<point x="478" y="525.2619086028"/>
			<point x="492" y="473.2619086028"/>
			<point x="492" y="355.2619086028" type="curve" smooth="yes"/>
			<point x="492" y="213.2619086028"/>
			<point x="445" y="108.2619086028"/>
			<point x="445" y="-41.7380913972" type="curve" smooth="yes"/>
			<point x="445" y="-99.7380913972"/>
			<point x="455" y="-124.7380913972"/>
			<point x="455" y="-156.7380913972" type="curve" smooth="yes"/>
			<point x="455" y="-184.7380913972"/>
			<point x="443" y="-200.7380913972"/>
			<point x="425" y="-200.7380913972" type="curve" smooth="yes"/>
			<point x="391" y="-200.7380913972"/>
			<point x="378" y="-150.7380913972"/>
		</contour>
	</outline>
</glyph>
<glyph name="hyphen.alt2" format="2">
	<advance width="471"/>
	<outline>
		<contour>
			<point x="118" y="333.6028050497" type="curve" smooth="yes"/>
			<point x="152.718875502" y="333.6028050497"/>
			<point x="209.2610441767" y="353.6028050497"/>
			<point x="365" y="353.6028050497" type="curve" smooth="yes"/>
			<point x="397" y="353.6028050497"/>
			<point x="416" y="364.6028050497"/>
			<point x="416" y="382.6028050497" type="curve" smooth="yes"/>
			<point x="416" y="395.6028050497"/>
			<point x="394" y="416.6028050497"/>
			<point x="332" y="416.6028050497" type="curve" smooth="yes"/>
			<point x="249.6720647773" y="416.6028050497"/>
			<point x="174.29845576" y="403.5151120197"/>
			<point x="87" y="392.6028050497" type="curve" smooth="yes"/>
			<point x="62" y="389.6028050497"/>
			<point x="55" y="374.6028050497"/>
			<point x="55" y="363.6028050497" type="curve" smooth="yes"/>
			<point x="55" y="348.6028050497"/>
			<point x="77" y="333.6028050497"/>
		</contour>
	</outline>
</glyph>
<glyph name="j.alt2" format="2">
	<advance width="241"/>
	<outline>
		<contour>
			<point x="122" y="500.6835728951" type="curve" smooth="yes"/>
			<point x="160" y="334.6835728951"/>
			<point x="189" y="195.6835728951"/>
			<point x="189" y="18.6835728951" type="curve" smooth="yes"/>
			<point x="189" y="-126.3164271049"/>
			<point x="114" y="-201.3164271049"/>
			<point x="0" y="-201.3164271049" type="curve" smooth="yes"/>
			<point x="-86" y="-201.3164271049"/>
			<point x="-135" y="-175.3164271049"/>
			<point x="-135" y="-144.3164271049" type="curve" smooth="yes"/>
			<point x="-135" y="-124.3164271049"/>
			<point x="-123" y="-113.3164271049"/>
			<point x="-105" y="-113.3164271049" type="curve" smooth="yes"/>
			<point x="-70" y="-113.3164271049"/>
			<point x="-51" y="-135.3164271049"/>
			<point x="-9" y="-135.3164271049" type="curve" smooth="yes"/>
			<point x="74" y="-135.3164271049"/>
			<point x="122" y="-88.3164271049"/>
			<point x="122" y="6.6835728951" type="curve" smooth="yes"/>
			<point x="122" y="354.6835728951"/>
			<point x="46" y="435.6835728951"/>
			<point x="46" y="512.6835728951" type="curve" smooth="yes"/>
			<point x="46" y="542.6835728951"/>
			<point x="60" y="554.6835728951"/>
			<point x="75" y="554.6835728951" type="curve" smooth="yes"/>
			<point x="93" y="554.6835728951"/>
			<point x="112" y="543.6835728951"/>
		</contour>
		<contour>
			<point x="130" y="735.6835728951" type="curve" smooth="yes"/>
			<point x="169" y="735.6835728951"/>
			<point x="184" y="762.6835728951"/>
			<point x="184" y="783.6835728951" type="curve" smooth="yes"/>
			<point x="184" y="817.6835728951"/>
			<point x="152" y="859.6835728951"/>
			<point x="101" y="859.6835728951" type="curve" smooth="yes"/>
			<point x="74" y="859.6835728951"/>
			<point x="53" y="839.6835728951"/>
			<point x="53" y="814.6835728951" type="curve" smooth="yes"/>
			<point x="53" y="774.6835728951"/>
			<point x="89" y="735.6835728951"/>
		</contour>
	</outline>
</glyph>
<glyph name="k.alt1" format="2">
	<advance width="558"/>
	<outline>
		<contour>
			<point x="471" y="-187.011262685" type="curve" smooth="yes"/>
			<point x="491" y="-187.011262685"/>
			<point x="501" y="-177.011262685"/>
			<point x="501" y="-161.011262685" type="curve" smooth="yes"/>
			<point x="501" y="-144.011262685"/>
			<point x="491" y="-130.011262685"/>
			<point x="438" y="-112.011262685" type="curve" smooth="yes"/>
			<point x="305.2082863863" y="-69.3989963761"/>
			<point x="239" y="14.988737315"/>
			<point x="239" y="48.988737315" type="curve" smooth="yes"/>
			<point x="239" y="95.5559014941"/>
			<point x="346.2465843186" y="203.5049995075"/>
			<point x="444" y="243.988737315" type="curve" smooth="yes"/>
			<point x="471" y="254.988737315"/>
			<point x="485" y="266.988737315"/>
			<point x="485" y="287.988737315" type="curve" smooth="yes"/>
			<point x="485" y="305.988737315"/>
			<point x="472.7222222222" y="314.988737315"/>
			<point x="451" y="314.988737315" type="curve" smooth="yes"/>
			<point x="374" y="314.988737315"/>
			<point x="172" y="149.988737315"/>
			<point x="172" y="48.988737315" type="curve" smooth="yes"/>
			<point x="172" y="-62.011262685"/>
			<point x="373" y="-187.011262685"/>
		</contour>
		<contour>
			<point x="182" y="628.988737315" type="curve" smooth="yes"/>
			<point x="163" y="629.988737315"/>
			<point x="152" y="618.988737315"/>
			<point x="149" y="600.988737315" type="curve" smooth="yes"/>
			<point x="142" y="555.988737315"/>
			<point x="148" y="548.988737315"/>
			<point x="127" y="410.988737315" type="curve" smooth="yes"/>
			<point x="98" y="223.988737315"/>
			<point x="75" y="28.845294692"/>
			<point x="75" y="-63.011262685" type="curve" smooth="yes"/>
			<point x="75" y="-165.011262685"/>
			<point x="99.5" y="-190.011262685"/>
			<point x="124" y="-190.011262685" type="curve" smooth="yes"/>
			<point x="140.1111111111" y="-190.011262685"/>
			<point x="149" y="-179.011262685"/>
			<point x="149" y="-155.011262685" type="curve" smooth="yes"/>
			<point x="149" y="-122.011262685"/>
			<point x="144" y="-93.411262685"/>
			<point x="144" y="-51.011262685" type="curve" smooth="yes"/>
			<point x="144" y="88.9793696335"/>
			<point x="152" y="136.988737315"/>
			<point x="195" y="413.988737315" type="curve" smooth="yes"/>
			<point x="221" y="584.988737315"/>
			<point x="212" y="628.988737315"/>
		</contour>
	</outline>
</glyph>
<glyph name="k.alt2" format="2">
	<advance width="558"/>
	<outline>
		<contour>
			<point x="471" y="186.9279696868" type="curve" smooth="yes"/>
			<point x="491" y="186.9279696868"/>
			<point x="501" y="196.9279696868"/>
			<point x="501" y="212.9279696868" type="curve" smooth="yes"/>
			<point x="501" y="229.9279696868"/>
			<point x="491" y="243.9279696868"/>
			<point x="438" y="261.9279696868" type="curve" smooth="yes"/>
			<point x="305.2082863863" y="304.5402359957"/>
			<point x="239" y="388.9279696868"/>
			<point x="239" y="422.9279696868" type="curve" smooth="yes"/>
			<point x="239" y="469.4951338659"/>
			<point x="346.2465843186" y="577.4442318793"/>
			<point x="444" y="617.9279696868" type="curve" smooth="yes"/>
			<point x="471" y="628.9279696868"/>
			<point x="485" y="640.9279696868"/>
			<point x="485" y="661.9279696868" type="curve" smooth="yes"/>
			<point x="485" y="679.9279696868"/>
			<point x="472.7222222222" y="688.9279696868"/>
			<point x="451" y="688.9279696868" type="curve" smooth="yes"/>
			<point x="374" y="688.9279696868"/>
			<point x="172" y="523.9279696868"/>
			<point x="172" y="422.9279696868" type="curve" smooth="yes"/>
			<point x="172" y="311.9279696868"/>
			<point x="373" y="186.9279696868"/>
		</contour>
		<contour>
			<point x="182" y="1002.9279696868" type="curve" smooth="yes"/>
			<point x="163" y="1003.9279696868"/>
			<point x="152" y="992.9279696868"/>
			<point x="149" y="974.9279696868" type="curve" smooth="yes"/>
			<point x="142" y="929.9279696868"/>
			<point x="148" y="922.9279696868"/>
			<point x="127" y="784.9279696868" type="curve" smooth="yes"/>
			<point x="98" y="597.9279696868"/>
			<point x="75" y="402.7845270638"/>
			<point x="75" y="310.9279696868" type="curve" smooth="yes"/>
			<point x="75" y="208.9279696868"/>
			<point x="99.5" y="183.9279696868"/>
			<point x="124" y="183.9279696868" type="curve" smooth="yes"/>
			<point x="140.1111111111" y="183.9279696868"/>
			<point x="149" y="194.9279696868"/>
			<point x="149" y="218.9279696868" type="curve" smooth="yes"/>
			<point x="149" y="251.9279696868"/>
			<point x="144" y="280.5279696868"/>
			<point x="144" y="322.9279696868" type="curve" smooth="yes"/>
			<point x="144" y="462.9186020053"/>
			<point x="152" y="510.9279696868"/>
			<point x="195" y="787.9279696868" type="curve" smooth="yes"/>
			<point x="221" y="958.9279696868"/>
			<point x="212" y="1002.9279696868"/>
		</contour>
	</outline>
</glyph>
<glyph name="l.alt2" format="2">
	<advance width="318"/>
	<outline>
		<contour>
			<point x="157" y="920.168434236" type="curve" smooth="yes"/>
			<point x="157" y="847.168434236"/>
			<point x="129" y="763.168434236"/>
			<point x="129" y="516.168434236" type="curve" smooth="yes"/>
			<point x="129" y="295.168434236"/>
			<point x="157" y="225.168434236"/>
			<point x="193" y="225.168434236" type="curve" smooth="yes"/>
			<point x="240.7922077922" y="225.168434236"/>
			<point x="248" y="253.168434236"/>
			<point x="273" y="253.168434236" type="curve" smooth="yes"/>
			<point x="291" y="253.168434236"/>
			<point x="297" y="241.168434236"/>
			<point x="297" y="224.168434236" type="curve" smooth="yes"/>
			<point x="297" y="189.168434236"/>
			<point x="244" y="158.168434236"/>
			<point x="195" y="158.168434236" type="curve" smooth="yes"/>
			<point x="113" y="158.168434236"/>
			<point x="61" y="202.168434236"/>
			<point x="61" y="536.168434236" type="curve" smooth="yes"/>
			<point x="61" y="709.704434236"/>
			<point x="73" y="805.168434236"/>
			<point x="89" y="910.168434236" type="curve" smooth="yes"/>
			<point x="98" y="962.168434236"/>
			<point x="108.2727272727" y="979.168434236"/>
			<point x="126" y="979.168434236" type="curve" smooth="yes"/>
			<point x="144.6" y="979.168434236"/>
			<point x="157" y="963.168434236"/>
		</contour>
	</outline>
</glyph>
<glyph name="minute.alt1" format="2">
	<advance width="259"/>
	<outline>
		<contour>
			<point x="107" y="300.3144256695" type="curve" smooth="yes"/>
			<point x="124" y="300.3144256695"/>
			<point x="135" y="310.3144256695"/>
			<point x="147" y="334.3144256695" type="curve" smooth="yes"/>
			<point x="173" y="390.3144256695"/>
			<point x="190" y="477.3144256695"/>
			<point x="190" y="536.3144256695" type="curve" smooth="yes"/>
			<point x="190" y="579.3144256695"/>
			<point x="170" y="592.3144256695"/>
			<point x="149" y="592.3144256695" type="curve" smooth="yes"/>
			<point x="128" y="592.3144256695"/>
			<point x="118" y="579.3144256695"/>
			<point x="118" y="550.3144256695" type="curve" smooth="yes"/>
			<point x="118" y="382.3144256695"/>
			<point x="83" y="366.3144256695"/>
			<point x="83" y="324.3144256695" type="curve" smooth="yes"/>
			<point x="83" y="307.3144256695"/>
			<point x="94" y="300.3144256695"/>
		</contour>
	</outline>
</glyph>
